/* XPM */
static char *result[] = {
/* columns rows colors chars-per-pixel */
"64 92 92 1 ",
"  c #4C250E",
". c #4D2610",
"X c #4F2913",
"o c #522C15",
"O c #542F18",
"+ c #563117",
"@ c #55321A",
"# c #5A351C",
"$ c #5D391F",
"% c #603A1F",
"& c #573621",
"* c #593721",
"= c #5D3B22",
"- c #5E3F2B",
"; c #613D23",
": c #613F29",
"> c #5F4125",
", c #5F412A",
"< c #644126",
"1 c #684327",
"2 c #64452A",
"3 c #69462A",
"4 c #66492D",
"5 c #6A4B2E",
"6 c #69502F",
"7 c #644631",
"8 c #664B33",
"9 c #6B4D31",
"0 c #664E39",
"q c #6C4F3A",
"w c #714F31",
"e c #6D5234",
"r c #67513C",
"t c #6A523E",
"y c #715436",
"u c #715837",
"i c #735639",
"p c #785739",
"a c #755A3B",
"s c #795D3D",
"d c #7B603F",
"f c #6C5642",
"g c #6E5944",
"h c #735741",
"j c #765B40",
"k c #7C5E40",
"l c #705D49",
"z c #795F49",
"x c #7D6242",
"c c #73614E",
"v c #7B634D",
"b c #756451",
"n c #786552",
"m c #786955",
"M c #7B6D5B",
"N c #816645",
"B c #836947",
"V c #816748",
"C c #856B4A",
"Z c #896E4C",
"A c #87704B",
"S c #8A714E",
"D c #816B55",
"F c #846D58",
"G c #8D7452",
"H c #8F7855",
"J c #83715D",
"K c #89745F",
"L c #907754",
"P c #917955",
"I c #957E59",
"U c #837563",
"Y c #897764",
"T c #847864",
"R c #8D7B64",
"E c #867B68",
"W c #8C7D6B",
"Q c #927F6B",
"! c #96815C",
"~ c #99835E",
"^ c #9B8661",
"/ c #9D8963",
"( c #94826D",
") c #938473",
"_ c #988671",
"` c #948778",
"' c #9B8E7D",
"] c #998F80",
"[ c #979080",
"{ c #9C9485",
"} c #A49783",
"| c #A49885",
/* pixels */
"#@+O##+@####**===;=;=;;;<;;;;<=;;;=;;;;;=;===;===$#$#####o++O@#;",
"@#<97833;$<<33334254233485553585355737833454432232<2<:*;33348<;*",
"O<FQRRRD:;pVxxxxxdxxxxxxkkNkkxkkxkkkkkkkxkdxxxjxjxxkka:7DRKRQF7#",
"o7(|_RQJq9VHGGSGGSGSSGSSGGSGGSGGGSGSGSGGSGSSSSSSSSSSGVyiFRR(}_9@",
"o3_'vqqhxCGPHHHPPPPPPIPIPPPIIIPIIPIPPIPIIPPPPPPIIHHHHSZViq7z'_w+",
"+3KRh:3qxBVNxVNBBCSSGSLLHHPGGPPPPPPPHGPGGGSGGSCBBvBNxVBx92:yRK3+",
"+;7hkNkp2;%%%;;%$1pssssdxNxNNNNVNNNxxNdxssssay1%<$;;%;;3ikkjjq;#",
"%;3iNCCs$o#$$#$$#$13551w599w999wyywy5w55w5541;%#$$##$+o#aCCxp5;*",
"#<NGBBBs$#5piapisw;##$%#%#%%#%%%###%##%###%+#$waypyyw3O;pCCCZx3@",
"#3G~SBBs%$aVxxVvVk<###%%%%%%%%%%%%%%%;%%%%++#1sBNNxNNp#%sCNCPZ3@",
"#5S!SBZs%;xGVxxxxxsw#%yswppppppppppppppppw;;ydxVxxxVDN;%sCCCPC3#",
"#5S!SBZk%#pVVVVVxVCx33wxNNNNNNBBBBNBNNVNNpwwNBBBBBVVNw%;sCNCPV3#",
"#5GISZZx;o%wVGSCxNVVNp35kZBZBNBBBBBNBBCswwkVCCBVSGGV3%+;dCBZPC5#",
"$5SIZCSk;++;pxkxVCCCZNw5pkkkNVNNNNNNxdkp9yZGSZACxxVa1@+;dZBCPC5$",
"#5GISZZN;#35;;;3CPZVCCNsw;%wpskdxxxsw339kCZZBAHD5%;1y5%<dZBZPC3#",
"=5GIZCZN;%wy;%#3kZZZCCZNw133epsdksspywwpCLZZSSSx1@#;pp<1dSCZIZ4$",
"#9SISZSd1%wpppuw13S!AAAANNBd55sxxkwwkBBZZZCGIL:;5yyypp;;NZZSPZ3%",
";5S~SSSN1%wpddNp%1dSSABBSGPBpwpppwwpZLLSGGZZZN:%pskspp;wNLZSIZ3%",
"%5SISASx11wpddddpw13G!SBZGGSZx5;1wkZZZSSZLIZw;:psssspp;:NZZSIZ5%",
"#9GIGSSN11pddNNBAd11NLSSSSGGPZy11wNZZZSSGLLN;;NNkssNNp3wNLZLIA5%",
"$5S!GSGB31pBBBZBZCNp15P^SSSSLSABNxwpBSZLILw:pNNCCNNCCNw:BGSH!S5%",
"$5S!HSGBw1pBBBZZZZSN11NPPPPHSSSLPZpykZGLPN::NZZVCCCZVN:wBGSS!A3%",
"$5S!PSSB11pNBZZBZZZZNp3wH/~~LSSHGGBNwpIIp;pCCCCCCCCCCN::BSSH~Sw%",
";5S!HSSB11pNZBZZZCZZLN;3BPGGPPLSSGGZppZZ;;BLZCCCZCCZZN::BHSH~S5%",
";wS!LSGN31pNBZZZCZZZZZNp3%%wL~LSSSGSSx31pCZZZZCCCCCCZN33BHSP!Gw$",
";9S!LSGB31pNBZZZZCZZZZZk3%%3NLLPPLGSPB11NSZZZZZCCCCZZN33ASSG~G5%",
"%5S!PSLB11pNBZZZZZZZSBywdNBp15L//~GSSSNkipCLSZZCZCZZZN5wBLGL~Pw$",
"%wS!LSPN1%pxBBBBZNNNNdwpZPPB53BLGSPLLSSZpwNNNNCCCNNNNN35BLSP~Sw$",
"%6S!PGPB3<wsddddkpw55wxZZSZSPZw%;wP/GASACkw83qNNNNhNNi;3CGSH/H5$",
"$wS!PLPB3%wuppssppww5pBGSSSLPZ1%%3BLLGAZFVi3w9pjNNppky;3NLGP^H9%",
"$5S!PLPB1%5pssdp3wkCBBZGSL~Lw1wspw1yP~SBZCNNNjwwpNNhNy;:NLGH^P5#",
"$5S!LSPB1%wupduywpBSLGZGLLPN1%dBBs%1BPHGZCZSZNw7pppNkp;3NLGP^P5%",
"%wS~LLLB1%5ppp55sBZSSZZS~Lw1wppNNxdw1wL~ZBBZZZNp9wpxxy;1NPGP^G5#",
"%3A!PLPB;#3wywwpBSZSLLLLLB1%kBNNxNBs%1BLSZZZBZNNq5ypp9;;NLZP^G9#",
"#3S~LLPB;#;;;3pBZZZSI//Lw1ppNNNNNxNdpw15SILSBNNkkp3;<;#1NLSP/G5#",
"$3Z!LLPN;#;1;5NZZZSSSLLN1;pNNNNNNxxNNs%1kSBNBBNkxs9<3;@1NLGP^G5@",
"#5S~LGPN;#5pkxBZBZLZw%;wpNNBBNNNNNCNBBxp1%%wZLNpxxsase#;NGSH^S7@",
"+3S~LLPN%%wNBBZBZZBp%%%;NZZZZBBBCCCNBBZN1%%;pZBNvxxBBa#;NLGH^S3O",
"+3S~LLPN%#pNZZZZLB31pppkZZBBZZBZCCNZCZZNdppw;wZLBxVxBa#;NGGH^G3o",
"+<dPLLIB%#5ppssxBp%%wppppkkpkkkNNNkkkkkkpppw%%pBsppya5@;NPGGHN;o",
"$$2iZPIC%o##%;%;1%%%%1%%1;111111%:::111111;;%%%1;%%%#OX;VILZp3*O",
"+$7exZZk4%%%%;1%11111%1111113311::ww1111111111%%;%%%;;;3kCCzh7#+",
"+3FKj78wsNdsxNNNNNBBBBZBBBBBZZZBZZZBZZBBBBZZBBNNxxkkpkNp973hKD; ",
"+2(`nqqhVZSHPPPIIIIIII~I!I!IIIIIIIIIIIIIIIIIILLIPPGGLZCkhfqv`R: ",
"o7({`)`YipG~!~~~~~~~~~~/^^^^///~II///////I//I//I~~IIISihY`Q`|W: ",
".,U[']]W4<V!PLIIPI!!!!!!~~~~~~~~/IIIIIIIIIIIIIIIIIIIIC:qW{]]]U= ",
"o=cJMUTn$+uBBNNBABBABBBZBAABBSBSLZZZLZZZLZZBZZZBCCBBCs**nEUUUc* ",
"o*fnclg0#%ydssddxdxxNNNxxNNNxNNxBNNNBBNNNNNNNNNNNxNNNi;*0lnmmh* ",
"o=fnbf&#4uudxdxNxNxxNxNNdNNxNNNNNNxBxBBBNNNNNxNNNNNxNdd5$=gmmf#.",
"o*rlf8#$pxddxBNNNVNxNNNNNNNBBBBBBBBBBBxBBBBBBBBBNNBNxNBd$#8gcr#.",
".#0r&#5yddddxBBBBBVVBBBBBxBBBBBBBBCCABBBBABBBBBBBBBNNNBNa6$&ff#.",
".O,,#$pdueeyapupuppsususdaadasaaasaaadsasussdaspuuppppuuxd$#77@.",
"ooo#5sdp=@@#$#+#####$$$$$$$$$$$$$$$$$$$$$%<$=#=$%$###@#<dxa4#XXo",
"XXo=aBNe@ o@+o++O@##ooOO++##@+#@##++##@@++o+###@+++++X #uxBa>XXX",
" @4psdxy+o<5542259i9OX=>><222225452542222=o+9i4222222>X+uxxda4#.",
" #yxdsde+O<9eeiueaxu;#=>,4eeeeeeeeyeye422=#=uxe96e654>o+uxdxxu#.",
" $ydssde#.o$9iuiiyaaa9#@28eer9q9qeeeiee2@@9uuiye6ee2#o #yxddde# ",
" +eddddy#.X@<459eiyaxa=@=;459e9e9eye832=#=pdieye2,3>@o.#udddde@ ",
".+edaddy+X,2@oo=quauaaa9@Xo@5eeeyyi9#oX#8uayyeu9$Xo#;=o@exddde# ",
" $edadde++4e#oo@4eeaiavu;O@#29eeye8<*@@=uxyeye92#oo$42O@edddde@ ",
" @edssde@o4e542=@#eaaaaaaake##4au9##9aiiuyeuu6#+$>22e2o@6dadde@ ",
" #edddde@O4eee72@@2euaaaxVCj=*2482#=axvkuuuue2++>4eee2O@6dddae@ ",
" #6ssaseOO4eee542=@$exasadjdxe#XX$exaauuupa6#@=,249ee4o@6daaa9@.",
" @edasswOO4eee4442@@2eeeaaaaBx<@@=dxeeey6462@@,6228ee2o+eaaaa8@.",
" @9sajx9Oo4eee85442=#+o=udaaddaxdu8,>2ee$++#>,4424e9e2OO9auua9@.",
" @esaaae@@4eee544562#Xo@2eaaaaxvSx924752#XX@2642,44ee2OO9auuu9@.",
".@9saas9@X4ee9844484444,+#edaadddaxvxa=O,4424442440er2OO5ueiu5#.",
".@9aaas9@@4eeq554864224,#$eeeuaauuvCZj=@>442484444eee2XO9uuua5@.",
" @6aaaae@X2eee8244e2#XX#ya7-,2ujadajddje#XX#,6844799e4OO8pyya4@.",
" @esaua6@O2te64484,>#@X>kx8,,27e4euueavx>@@#=228479ee4OO9uyuu4@.",
".@6auua6@X2ee8446,+@6auuaueeee$oX=edauajaaj0@O,6449ee2oO4uyuu4@ ",
".@6auaa5@O,e9e422=@=uvvxuiaue4#XX#2eaauaxvCx>@=,2499r2OO9uuuu4@.",
".@5uuau6@o288e4>O#7euuauuaae=@,472@#esajjaaja7@O,69ee4OO5euiu4@.",
".@9auaa5+o,ee8,=@=uxutue9893@@7ee4@@3e9euauaxh=@=24ee4oO5ieiu6@ ",
".@5auuu6@+2ee2@@7eauieue=oo@,49ee54>#OO&eaauaau8@O2et2X@9auiu,@ ",
".@4auua5@X=,2=@*exeeeie2@o.#4e9999e4@X.@4eaaeaxa=#=,2>O@4uueu4O.",
".@6uuua6@.XOX#4eeeeeue#@=>,299e95e45,,>$O=qaieiije#XoX.@4iuue4@ ",
" @,euuu6@.XOO*eueee96,+X,49e94944e9866,>OO1eyeeixj=@@@.@4eeuu4+ ",
".O2e6eu4@o2e88ee9ee8#O&>224e94488544662,>&O#9ieeeyiea8@o4uee64+.",
".@4e6eu4X@8auue99972@@>222494955495e442,,>X@29ee89jvve@@4u6eu5+.",
".@4ee664OO4ieeeee8#@*,2,24498595865584,,,,>#@&4e9eeeu8Oo4eeeu8O.",
".o>66ee4Oo=472224=Xo&>>>=>>,2>>2222<2,>*>=>#.X=2222,2=XO4ue6,,O.",
"X.X@6uu,o.ooOoX+OX. XOXXXXXOOXXoXXXXXXXXXXXX..XOooOXXX.O,ue6#XXX",
".X@$>6e6=@@@@@@#@@#######&##@###&########@@&&&@@&@#@###&666,&&X.",
".&rr@@4eeeiiuuuuiauaaaxajxadjdajxjdxdxddadaduadaakaadduuu4+#ff&.",
" &lc,#>6ujjxxxcxxxxvxxxvvVVvvVVVxvvxxxvxvvxxxxxvVxxvvxxd6>@>bc&.",
" &rbcf@+4ueu06uureeeuueeuuueueuueuuuuuuuuu6uuuuuyueiuuu6@#tbcrO ",
" @rcMb,@,48666666566e4664664664e6666666666666666686666,>&,bMc0& ",
" @rccccf&@6u66666u6666666ee6666e6666666666u6u66ueeeeu4+&fbbccr& ",
" @7r0rlr@X>,,44,,,4,,6,,22,,6,444,44,6,46,4,4,4,22,24>X+fcrrr7O.",
".X&&OO&&XX+@@+++@@+@@@@@+@+@@+++@@O@@++++@+@o++@++O@+oXo@&&@&OXX",
"X.      XX..X.......XX...... .. .. ...X ..............XX      XX"
};
