/* XPM */
static char *result[] = {
/* columns rows colors chars-per-pixel */
"64 64 5 1 ",
"  c #222222",
". c #483B3A",
"X c #775C55",
"o c #AA8D7A",
"O c #D3BFA9",
/* pixels */
"XXXXXXXXXXXXXXXXXXXX    XXXXXXXXXXXXXXXXXXXX    oooooooooooo    ",
"XXXXXXXXXXXXXXXXXXXX    XXXXXXXXXXXXXXXXXXXX    oooooooooooo    ",
"XXXXXXXXXXXXXXXXXXXX    XXXXXXXXXXXXXXXXXXXX    oooooooooooo    ",
"XXXXXXXXXXXXXXXXXXXX    XXXXXXXXXXXXXXXXXXXX    oooooooooooo    ",
"....................    ....................    oooooooooooo    ",
"....................    ....................    oooooooooooo    ",
"....................    ....................    oooooooooooo    ",
"....................    ....................    oooooooooooo    ",
"....................    ........    ........    OOOOOOOOOOOO    ",
"....................    ........    ........    OOOOOOOOOOOO    ",
"....................    ........    ........    OOOOOOOOOOOO    ",
"....................    ........    ........    OOOOOOOOOOOO    ",
"                                                                ",
"                                                                ",
"                                                                ",
"                                                                ",
"XXXX    XXXXXXXX    XXXX    XXXXXXXXXXXXXXXX    oooooooooooo    ",
"XXXX    XXXXXXXX    XXXX    XXXXXXXXXXXXXXXX    oooooooooooo    ",
"XXXX    XXXXXXXX    XXXX    XXXXXXXXXXXXXXXX    oooooooooooo    ",
"XXXX    XXXXXXXX    XXXX    XXXXXXXXXXXXXXXX    oooooooooooo    ",
"................    ........    ............    oooooooooooo    ",
"................    ........    ............    oooooooooooo    ",
"................    ........    ............    oooooooooooo    ",
"................    ........    ............    oooooooooooo    ",
"................    ........    ............    oooooooooooo    ",
"................    ........    ............    oooooooooooo    ",
"................    ........    ............    oooooooooooo    ",
"................    ........    ............    oooooooooooo    ",
"                                                oooooooooooo    ",
"                                                oooooooooooo    ",
"                                                oooooooooooo    ",
"                                                oooooooooooo    ",
"XXXXXXXX    XXXXXXXXXXXXXXXX    XXXXXXXX        oooooooooooo    ",
"XXXXXXXX    XXXXXXXXXXXXXXXX    XXXXXXXX        oooooooooooo    ",
"XXXXXXXX    XXXXXXXXXXXXXXXX    XXXXXXXX        oooooooooooo    ",
"XXXXXXXX    XXXXXXXXXXXXXXXX    XXXXXXXX        oooooooooooo    ",
"........    ................    ........        OOOOOOOOOOOO    ",
"........    ................    ........        OOOOOOOOOOOO    ",
"........    ................    ........        OOOOOOOOOOOO    ",
"........    ................    ........        OOOOOOOOOOOO    ",
"............    ............    ............                    ",
"............    ............    ............                    ",
"............    ............    ............                    ",
"............    ............    ............                    ",
"                                                oooooooooooo    ",
"                                                oooooooooooo    ",
"                                                oooooooooooo    ",
"                                                oooooooooooo    ",
"XXXXXXXX    XXXXXXXX    XXXXXXXXXXXXXXXX        oooooooooooo    ",
"XXXXXXXX    XXXXXXXX    XXXXXXXXXXXXXXXX        oooooooooooo    ",
"XXXXXXXX    XXXXXXXX    XXXXXXXXXXXXXXXX        oooooooooooo    ",
"XXXXXXXX    XXXXXXXX    XXXXXXXXXXXXXXXX        oooooooooooo    ",
"....        ........    ................        oooooooooooo    ",
"....        ........    ................        oooooooooooo    ",
"....        ........    ................        oooooooooooo    ",
"....        ........    ................        oooooooooooo    ",
"........    ....................    ....        oooooooooooo    ",
"........    ....................    ....        oooooooooooo    ",
"........    ....................    ....        oooooooooooo    ",
"........    ....................    ....        oooooooooooo    ",
"                                                oooooooooooo    ",
"                                                oooooooooooo    ",
"                                                oooooooooooo    ",
"                                                oooooooooooo    "
};
