/* XPM */
static char *result[] = {
/* columns rows colors chars-per-pixel */
"64 64 5 1 ",
"  c #222222",
". c #483B3A",
"X c #775C55",
"o c #AA8D7A",
"O c #D3BFA9",
/* pixels */
"    oooooooooooo    XXXXXXXXXXXXXXXXXXXX    XXXXXXXXXXXXXXXXXXXX",
"    oooooooooooo    XXXXXXXXXXXXXXXXXXXX    XXXXXXXXXXXXXXXXXXXX",
"    oooooooooooo    XXXXXXXXXXXXXXXXXXXX    XXXXXXXXXXXXXXXXXXXX",
"    oooooooooooo    XXXXXXXXXXXXXXXXXXXX    XXXXXXXXXXXXXXXXXXXX",
"    oooooooooooo    ....................    ....................",
"    oooooooooooo    ....................    ....................",
"    oooooooooooo    ....................    ....................",
"    oooooooooooo    ....................    ....................",
"    OOOOOOOOOOOO    ........    ........    ....................",
"    OOOOOOOOOOOO    ........    ........    ....................",
"    OOOOOOOOOOOO    ........    ........    ....................",
"    OOOOOOOOOOOO    ........    ........    ....................",
"                                                                ",
"                                                                ",
"                                                                ",
"                                                                ",
"    oooooooooooo    XXXXXXXXXXXXXXXX    XXXX    XXXXXXXX    XXXX",
"    oooooooooooo    XXXXXXXXXXXXXXXX    XXXX    XXXXXXXX    XXXX",
"    oooooooooooo    XXXXXXXXXXXXXXXX    XXXX    XXXXXXXX    XXXX",
"    oooooooooooo    XXXXXXXXXXXXXXXX    XXXX    XXXXXXXX    XXXX",
"    oooooooooooo    ............    ........    ................",
"    oooooooooooo    ............    ........    ................",
"    oooooooooooo    ............    ........    ................",
"    oooooooooooo    ............    ........    ................",
"    oooooooooooo    ............    ........    ................",
"    oooooooooooo    ............    ........    ................",
"    oooooooooooo    ............    ........    ................",
"    oooooooooooo    ............    ........    ................",
"    oooooooooooo                                                ",
"    oooooooooooo                                                ",
"    oooooooooooo                                                ",
"    oooooooooooo                                                ",
"    oooooooooooo        XXXXXXXX    XXXXXXXXXXXXXXXX    XXXXXXXX",
"    oooooooooooo        XXXXXXXX    XXXXXXXXXXXXXXXX    XXXXXXXX",
"    oooooooooooo        XXXXXXXX    XXXXXXXXXXXXXXXX    XXXXXXXX",
"    oooooooooooo        XXXXXXXX    XXXXXXXXXXXXXXXX    XXXXXXXX",
"    OOOOOOOOOOOO        ........    ................    ........",
"    OOOOOOOOOOOO        ........    ................    ........",
"    OOOOOOOOOOOO        ........    ................    ........",
"    OOOOOOOOOOOO        ........    ................    ........",
"                    ............    ............    ............",
"                    ............    ............    ............",
"                    ............    ............    ............",
"                    ............    ............    ............",
"    oooooooooooo                                                ",
"    oooooooooooo                                                ",
"    oooooooooooo                                                ",
"    oooooooooooo                                                ",
"    oooooooooooo        XXXXXXXXXXXXXXXX    XXXXXXXX    XXXXXXXX",
"    oooooooooooo        XXXXXXXXXXXXXXXX    XXXXXXXX    XXXXXXXX",
"    oooooooooooo        XXXXXXXXXXXXXXXX    XXXXXXXX    XXXXXXXX",
"    oooooooooooo        XXXXXXXXXXXXXXXX    XXXXXXXX    XXXXXXXX",
"    oooooooooooo        ................    ........        ....",
"    oooooooooooo        ................    ........        ....",
"    oooooooooooo        ................    ........        ....",
"    oooooooooooo        ................    ........        ....",
"    oooooooooooo        ....    ....................    ........",
"    oooooooooooo        ....    ....................    ........",
"    oooooooooooo        ....    ....................    ........",
"    oooooooooooo        ....    ....................    ........",
"    oooooooooooo                                                ",
"    oooooooooooo                                                ",
"    oooooooooooo                                                ",
"    oooooooooooo                                                "
};
