/* XPM */
static char *result[] = {
/* columns rows colors chars-per-pixel */
"64 64 5 1 ",
"  c #222222",
". c #483B3A",
"X c #AA8D7A",
"o c #D3BFA9",
"O c None",
/* pixels */
"OOOOOOOOOOOOOOOOOOOOOOOOOOOOOOOOOOOOOOOOOOOO    XXXXXXXXXXXX    ",
"OOOOOOOOOOOOOOOOOOOOOOOOOOOOOOOOOOOOOOOOOOOO    XXXXXXXXXXXX    ",
"OOOOOOOOOOOOOOOOOOOOOOOOOOOOOOOOOOOOOOOOOOOO    XXXXXXXXXXXX    ",
"OOOOOOOOOOOOOOOOOOOOOOOOOOOOOOOOOOOOOOOOOOOO    XXXXXXXXXXXX    ",
"OOOOOOOOOOOOOOOOOOOOOOOOOOOOOOOOOOOOOOOOOOOO    oooooooooooo    ",
"OOOOOOOOOOOOOOOOOOOOOOOOOOOOOOOOOOOOOOOOOOOO    oooooooooooo    ",
"OOOOOOOOOOOOOOOOOOOOOOOOOOOOOOOOOOOOOOOOOOOO    oooooooooooo    ",
"OOOOOOOOOOOOOOOOOOOOOOOOOOOOOOOOOOOOOOOOOOOO    oooooooooooo    ",
"OOOOOOOOOOOOOOOOOOOOOOOOOOOOOOOOOOOOOOOOOOOO                    ",
"OOOOOOOOOOOOOOOOOOOOOOOOOOOOOOOOOOOOOOOOOOOO                    ",
"OOOOOOOOOOOOOOOOOOOOOOOOOOOOOOOOOOOOOOOOOOOO                    ",
"OOOOOOOOOOOOOOOOOOOOOOOOOOOOOOOOOOOOOOOOOOOO                    ",
"OOOOOOOOOOOOOOOOOOOOOOOOOOOOOOOOOOOOOOOOOOOO    XXXXXXXXXXXX    ",
"OOOOOOOOOOOOOOOOOOOOOOOOOOOOOOOOOOOOOOOOOOOO    XXXXXXXXXXXX    ",
"OOOOOOOOOOOOOOOOOOOOOOOOOOOOOOOOOOOOOOOOOOOO    XXXXXXXXXXXX    ",
"OOOOOOOOOOOOOOOOOOOOOOOOOOOOOOOOOOOOOOOOOOOO    XXXXXXXXXXXX    ",
"OOOOOOOOOOOOOOOOOOOOOOOOOOOOOOOOOOOOOOOOOOOO    XXXXXXXXXXXX    ",
"OOOOOOOOOOOOOOOOOOOOOOOOOOOOOOOOOOOOOOOOOOOO    XXXXXXXXXXXX    ",
"OOOOOOOOOOOOOOOOOOOOOOOOOOOOOOOOOOOOOOOOOOOO    XXXXXXXXXXXX    ",
"OOOOOOOOOOOOOOOOOOOOOOOOOOOOOOOOOOOOOOOOOOOO    XXXXXXXXXXXX    ",
"OOOOOOOOOOOOOOOOOOOOOOOOOOOOOOOOOOOOOOOOOOOO    XXXXXXXXXXXX    ",
"OOOOOOOOOOOOOOOOOOOOOOOOOOOOOOOOOOOOOOOOOOOO    XXXXXXXXXXXX    ",
"OOOOOOOOOOOOOOOOOOOOOOOOOOOOOOOOOOOOOOOOOOOO    XXXXXXXXXXXX    ",
"OOOOOOOOOOOOOOOOOOOOOOOOOOOOOOOOOOOOOOOOOOOO    XXXXXXXXXXXX    ",
"OOOOOOOOOOOOOOOOOOOOOOOOOOOOOOOOOOOOOOOOOOOO    XXXXXXXXXXXX    ",
"OOOOOOOOOOOOOOOOOOOOOOOOOOOOOOOOOOOOOOOOOOOO    XXXXXXXXXXXX    ",
"OOOOOOOOOOOOOOOOOOOOOOOOOOOOOOOOOOOOOOOOOOOO    XXXXXXXXXXXX    ",
"OOOOOOOOOOOOOOOOOOOOOOOOOOOOOOOOOOOOOOOOOOOO    XXXXXXXXXXXX    ",
"OOOOOOOOOOOOOOOOOOOOOOOOOOOOOOOOOOOOOOOOOOOO    XXXXXXXXXXXX    ",
"OOOOOOOOOOOOOOOOOOOOOOOOOOOOOOOOOOOOOOOOOOOO    XXXXXXXXXXXX    ",
"OOOOOOOOOOOOOOOOOOOOOOOOOOOOOOOOOOOOOOOOOOOO    XXXXXXXXXXXX    ",
"OOOOOOOOOOOOOOOOOOOOOOOOOOOOOOOOOOOOOOOOOOOO    XXXXXXXXXXXX    ",
"OOOOOOOOOOOOOOOOOOOOOOOOOOOOOOOOOOOOOOOOOOOO    oooooooooooo    ",
"OOOOOOOOOOOOOOOOOOOOOOOOOOOOOOOOOOOOOOOOOOOO    oooooooooooo    ",
"OOOOOOOOOOOOOOOOOOOOOOOOOOOOOOOOOOOOOOOOOOOO    oooooooooooo    ",
"OOOOOOOOOOOOOOOOOOOOOOOOOOOOOOOOOOOOOOOOOOOO    oooooooooooo    ",
"OOOOOOOOOOOOOOOOOOOOOOOOOOOOOOOOOOOOOOOOOOOO                    ",
"OOOOOOOOOOOOOOOOOOOOOOOOOOOOOOOOOOOOOOOOOOOO                    ",
"OOOOOOOOOOOOOOOOOOOOOOOOOOOOOOOOOOOOOOOOOOOO                    ",
"OOOOOOOOOOOOOOOOOOOOOOOOOOOOOOOOOOOOOOOOOOOO                    ",
"OOOOOOOOOOOOOOOOOOOOOOOOOOOOOOOOOOOOOOOOOOOO    XXXXXXXXXXXX    ",
"OOOOOOOOOOOOOOOOOOOOOOOOOOOOOOOOOOOOOOOOOOOO    XXXXXXXXXXXX    ",
"OOOOOOOOOOOOOOOOOOOOOOOOOOOOOOOOOOOOOOOOOOOO    XXXXXXXXXXXX    ",
"OOOOOOOOOOOOOOOOOOOOOOOOOOOOOOOOOOOOOOOOOOOO    XXXXXXXXXXXX    ",
"OOOOOOOOOOOOOOOOOOOOOOOOOOOOOOOOOOOOOOOOOOOO    XXXXXXXXXXXX    ",
"OOOOOOOOOOOOOOOOOOOOOOOOOOOOOOOOOOOOOOOOOOOO    XXXXXXXXXXXX    ",
"OOOOOOOOOOOOOOOOOOOOOOOOOOOOOOOOOOOOOOOOOOOO    XXXXXXXXXXXX    ",
"OOOOOOOOOOOOOOOOOOOOOOOOOOOOOOOOOOOOOOOOOOOO    XXXXXXXXXXXX    ",
"                                                XXXXXXXXXXXX    ",
"                                                XXXXXXXXXXXX    ",
"                                                XXXXXXXXXXXX    ",
"                                                XXXXXXXXXXXX    ",
"XXXXXXXXXXXXXXXXXXXX    ....XXXXXXXXXXXXXXXX    XXXXXXXXXXXX    ",
"XXXXXXXXXXXXXXXXXXXX    ....XXXXXXXXXXXXXXXX    XXXXXXXXXXXX    ",
"XXXXXXXXXXXXXXXXXXXX    ....XXXXXXXXXXXXXXXX    XXXXXXXXXXXX    ",
"XXXXXXXXXXXXXXXXXXXX    ....XXXXXXXXXXXXXXXX    XXXXXXXXXXXX    ",
"XXXXXXXXXXXXXXXXXXXX    XXXXXXXXXXXXXXXXXXXX    XXXXXXXXXXXX    ",
"XXXXXXXXXXXXXXXXXXXX    XXXXXXXXXXXXXXXXXXXX    XXXXXXXXXXXX    ",
"XXXXXXXXXXXXXXXXXXXX    XXXXXXXXXXXXXXXXXXXX    XXXXXXXXXXXX    ",
"XXXXXXXXXXXXXXXXXXXX    XXXXXXXXXXXXXXXXXXXX    XXXXXXXXXXXX    ",
"oooooooooooooooooooo    oooooooooooooooooooo    oooooooooooo    ",
"oooooooooooooooooooo    oooooooooooooooooooo    oooooooooooo    ",
"oooooooooooooooooooo    oooooooooooooooooooo    oooooooooooo    ",
"oooooooooooooooooooo    oooooooooooooooooooo    oooooooooooo    "
};
