/* XPM */
static char *result[] = {
/* columns rows colors chars-per-pixel */
"32 32 14 1 ",
"  c #042D4C",
". c #04354C",
"X c #04474C",
"o c #04624C",
"O c #04734C",
"+ c #047D4C",
"@ c #395A73",
"# c #028F56",
"$ c #369665",
"% c #68B07E",
"& c #60AC86",
"* c #87C19A",
"= c #CDE4B1",
"- c None",
/* pixels */
"---------------XX---------------",
"-------------XXoooX-------------",
"-----------XXoooooo%=-----------",
"----------Xoo++++++++=----------",
"--------XXoo+++++++++&*=--------",
"------XXoo++++++++++&&&+=%------",
"----- oo+++++++++++&&&++%%+-----",
"----- XX++++++++++&&&+%%+++-----",
"----- XXXX%++++++&&&+%++oo+-----",
"----- XXXXX%++++&&&%%+oooo+-----",
"----- XXXXXXo%=&&*=++ooooo+-----",
"----- XXXXXXoo+*%++ooooooo+-----",
"----- XXXXXXXoo+=+oooooooo%-----",
"----- XXXXXXoooo=+ooooooo$*-----",
"----- XXXXXoooXo=+oooooo$$*-----",
"----- XXXXoooXXX=oooooo$$$+-----",
"----- XXXoooXXXX=+oooo$$$o+-----",
"-----XXXoooXXXXX=oooo$$$oo+-----",
"-----XXoooXXXXXo=ooo$$$ooo%-----",
"----- oooXXXXXXo=oo$$$oooo+-----",
"-----@ooXXXXXoo%=++*$ooooo+-----",
"-----@oXXXXooo==#=*++ooooo+-----",
"----- XXXXX%###o+##++ooooo+-----",
"-----XXXXX##ooo+++o##+oooo+-----",
"----- XX%ooooo+++ooooo++oo+-----",
"----- ooooooo+++oooooooo+%%-----",
"------XXOOoo+++ooooooooo+%------",
"--------XXO+++oooooooo+X--------",
"----------XooooooooooX+---------",
"-----------XXooooooXX-----------",
"-------------XXXXXX-------------",
"---------------X.---------------"
};
