/* XPM */
static char *result[] = {
/* columns rows colors chars-per-pixel */
"32 32 22 1 ",
"  c #042D4C",
". c #04354C",
"X c #04474C",
"o c #04624C",
"O c #04734C",
"+ c #047D4C",
"@ c #395A73",
"# c #028F56",
"$ c #369665",
"% c #68B07E",
"& c #60AC86",
"* c #83A68C",
"= c #83B38C",
"- c #82BC91",
"; c #9BBF98",
": c #87C19A",
"> c #AFCAA8",
", c #B3CCA4",
"< c #C2D4B1",
"1 c #CDE4B1",
"2 c #E4E5BC",
"3 c None",
/* pixels */
"333333333333333XX333333333333333",
"3333333333333XXoooX3333333333333",
"33333333333XXoooooo%133333333333",
"3333333333Xoo++++++++13333333333",
"33333333XXoo+++++++++&:133333333",
"333333XXoo++++++++++>>>+1%333333",
"33333 oo+++++++++++>>&++,%+33333",
"33333 XX++++++++++>>>+%,+++33333",
"33333 XXXX%++++++>>>+%=+oo+33333",
"33333 XXXXX%++++>>>%%+oooo+33333",
"33333 XXXXXXo%1>><1++ooooo+33333",
"33333 XXXXXXoo=<,++ooooooo+33333",
"33333 XXXXXXXo*=1+oooooooo%33333",
"33333 XXXXXXoooo1+ooooooo$:33333",
"33333 XXXXXoooXo1+oooooo;$:33333",
"33333 XXXXoooXXX1oooooo;;$+33333",
"33333 XXXoooXXXX1+oooo;;;o+33333",
"33333XXXoooXXXXX1oooo;;;oo+33333",
"33333XXoooXXXXXo1ooo;;;ooo%33333",
"33333 oooXXXXXXo1oo;;;oooo+33333",
"33333@ooXXXXXoo%1+=<;ooooo+33333",
"33333@oXXXXooo11#2<=+ooooo+33333",
"33333 XXXXX%###o+--++ooooo+33333",
"33333XXXXX##ooo+++o##+oooo+33333",
"33333 XX%ooooo+++ooooo++oo+33333",
"33333 ooooooo+++oooooooo+%%33333",
"333333XXOOoo+++ooooooooo=%333333",
"33333333XXO+++oooooooo+X33333333",
"3333333333XooooooooooX+333333333",
"33333333333XXooooooXX33333333333",
"3333333333333XXXXXX3333333333333",
"333333333333333X.333333333333333"
};
