/* XPM */
static char *result[] = {
/* columns rows colors chars-per-pixel */
"32 32 20 1 ",
"  c #042D4C",
". c #04354C",
"X c #04474C",
"o c #04624C",
"O c #04734C",
"+ c #047D4C",
"@ c #395A73",
"# c #028F56",
"$ c #369665",
"% c #68B07E",
"& c #60AC86",
"* c #838D8C",
"= c #83A68C",
"- c #83B38C",
"; c #9CA29F",
": c #82BC91",
"> c #87C19A",
", c #C2D4B1",
"< c #CDE4B1",
"1 c None",
/* pixels */
"111111111111111XX111111111111111",
"1111111111111XXoooX1111111111111",
"11111111111XXoooooo%<11111111111",
"1111111111Xoo++++++++<1111111111",
"11111111XXoo+++++++++&><11111111",
"111111XXoo++++++++++&&&+<%111111",
"11111 oo+++++++++++&&&++%%+11111",
"11111 XX++++++++++&&&+%%+++11111",
"11111 XXXX%++++++&&&+%++oo+11111",
"11111 XXXXX%++++&&&%%+oooo+11111",
"11111 XXXXXXo%<&&><++ooooo+11111",
"11111 XXXXXXoo+>%++ooooooo+11111",
"11111 XXXXXXXoo+<+oooooooo%11111",
"11111 XXXXXXoooo<+ooooooo$>11111",
"11111 XXXXXoooXo<+oooooo$$>11111",
"11111 XXXXoooXXX<oooooo$$$+11111",
"11111 XXXoooXXXX<+oooo$$$o+11111",
"11111XXX=ooXXXXX<oooo$$$oo+11111",
"11111XX===XXXXXo<ooo$$$ooo%11111",
"11111*===XXXXXXo<oo$$$oooo+11111",
"11111;=oXXXXXoo%<+->$ooooo+11111",
"11111@oXXXXooo<<#<,++ooooo+11111",
"11111 XXXXX%###o+#:++ooooo+11111",
"11111XXXXX##ooo-++o##+oooo+11111",
"11111 XX%ooooo+-+ooooo++oo+11111",
"11111 ooooooo++-oooooooo+%%11111",
"111111XXOOoo-++ooooooooo+%111111",
"11111111XXO--+oooooooo+X11111111",
"1111111111X==ooooooooX+111111111",
"11111111111XXooooooXX11111111111",
"1111111111111XXXXXX1111111111111",
"111111111111111X.111111111111111"
};
