/* XPM */
static char *result[] = {
/* columns rows colors chars-per-pixel */
"64 64 80 1 ",
"  c #4C2109",
". c #51260E",
"X c #4F2912",
"o c #512710",
"O c #542D17",
"+ c #552F19",
"@ c #592F19",
"# c #57311B",
"$ c #59331E",
"% c #573621",
"& c #5B3621",
"* c #5C3924",
"= c #5C3E2B",
"- c #603D29",
"; c #5E402D",
": c #5F4230",
"> c #61422F",
", c #624533",
"< c #694631",
"1 c #664936",
"2 c #6B4A35",
"3 c #674C39",
"4 c #694D3A",
"5 c #6E503E",
"6 c #5C4F41",
"7 c #5F5245",
"8 c #5D574B",
"9 c #5F594D",
"0 c #625446",
"q c #625648",
"w c #615B4F",
"e c #6A5C4E",
"r c #725846",
"t c #765C49",
"y c #785C4A",
"u c #635F54",
"i c #7B614E",
"p c #646156",
"a c #6E6457",
"s c #676359",
"d c #6A655B",
"f c #6F6A5F",
"g c #716152",
"h c #73675C",
"j c #746A5F",
"k c #6E6C63",
"l c #726E63",
"z c #786E62",
"x c #747166",
"c c #7C7366",
"v c #757369",
"b c #7B756B",
"n c #7C786E",
"m c #7C7770",
"M c #7E7A72",
"N c #837A6D",
"B c #817E75",
"V c #8B7D72",
"C c #837F78",
"Z c #858377",
"A c #8A8377",
"S c #878579",
"D c #88867B",
"F c #8C8A7E",
"G c #8E8C81",
"H c #918E84",
"J c #929187",
"K c #95938A",
"L c #98968E",
"P c #9A988F",
"I c #999790",
"U c #9C9A93",
"Y c #A09E97",
"T c #A19F99",
"R c #9EA09C",
"E c #A3A29B",
"W c #A3A5A0",
"Q c #A7A9A4",
"! c #A8AAA6",
"~ c None",
/* pixels */
"~~~~~~#$$$$$&&&&$;$$;$;$*$;$********************&*%$#O#O@X~~~~~~",
"~~~~~~4521113333444441344444334344344334424444422411<<,151~~~~~~",
"~~~~.2VHVnNNNNncccNccccccncccncccnccNcncZZZZZZZAZZZNAZZAFA2.~~~~",
"~~~~=iPQIJJJJHFFFFDFFFFFFFFFFFFFFFFFFFFFFFFKFFFFFKFFFFFY!Pi$~~~~",
"~~O>gVREKHHHFDDDDDDDDDSFFDFSDFSSSSFSSSSFFFFKFKFKFFPFFFFPEUc0>O~~",
"~~=rbGUUJFFFDZSDSSDSSSSSSSSSSSSSSSSSSSSSFFFFFFFFFFFFPFFFRIms5*~~",
"#>gbnDIUJFFFDSSSSSSSSSSDSSSSSSSSSSSSSSSSSFSFFFFFFPFFFFFKULndaq;#",
"$2cZMZLUJFFFDSSSSSSSSSSSSSSSSSSSSSSSSSSSSSSSSFFFFFFFFFFPULbdxa>$",
"$1lZMZPPFDSSSSSSSSSSSSSSSSSSSSSSSSSSSSSSSSSSSFFFJFDSDASFULvdke=&",
"$:zZnZLPFSSSSSSSSSDSSSSSSSSSSSSSSSSSSSSSSSSSSSFFFFDSSSZFUJvkku=$",
"$,zMvMJPFSSSSSSSSSSSSSSSSSSSSSDSSSSSSSSSSSSSSSSFSSSSSSSFPJvdsq=&",
"$,lMxnJPFSSSSSSSSSSSSSSSSSSSSSSSSSSSSSSSSSSSSSSSSSSSSSSFPJvdp7=&",
"$:fvxnJKFSSSSSSSSSSSSSSSSSSSSSSSSSSSSSSSSSSSSSSSSSSSSSSFIJbdpq=&",
"$1avlnJLFSSSSSSSSSSSSSSSSSSSSSSSSSSSSSSSSSSSSSSSSSSSSSSFIHxppq=&",
"$,avlnFPFSSSSSSSSDSSSSSSSSSSSSSSSSSSSSFSSSSSSSSSSSSSSSZFUGkupq=&",
"$,avlNKKFSSSSSSSSSSSSSDSSSSSSSSSSSSSSSSSSSSSSSSSSSSSSZZFUHf9uq;&",
"&,avxbJPFSSSSSSSSSSSSSSSSSSSSSSSSSDASSSSSSSSSSDSSSSSSSSFLGfwuq;&",
"&,avxbJLFSSSSSSSSSSSSSSSSSSSSSSSSSSDSSSSSSSSSSSSSSSSSSSDPGfwuq;&",
"&,avxnJLFSSSSSSSSSSSSDSSSSSDSSSSSSDASSSSSSSSSSSSSSSSSSSFLGkupq;&",
"*,avlnJLFZSSSSSSSSSSSSSSSSSSSSSSSSSSSSSSDSSSSSSSSSSSSSSFLGj9uq=&",
"&,avxnJLFAZSSSSSSDSSSSSSSSSSSSSSSSSSSSSSSSSSSSSSSSSSSSSFIGfwuq;&",
"*,avjnJLFSSSSSSSSADSSSSSSSSSSSSSSSSSSDSSSSSSSSSSSSSSSSSFLGfwuq;&",
"&,avxbJLFSSSSSSSSSSSSSSSSSSSSSSSSSSDSSSSSSSSSSSSSSSSSSAFLGfwpq;&",
"*,axlnJLFSSSSSSSSSSSSSSSSSSSSSSSSSSSSSSSSSSSSSSSSSSSDSSFIGfwuq;&",
"&,avlnJLFZSSSSSSSSSSSSSSSSSSSSSSSSSSSSSSSSSSSSSSSSSSSSZFIGfwuq;&",
"*,avlnJLFSSSSSSSSSSSSSSSDSSSSSSSSSSSSSSSSSSSSSDSSSSSSSZFIGfwuq;&",
"*,gvlnJLFSSSSSSSSSSSSSSSSSSSSSSDSSSSSSSSSSSSSSSSSSSSSSZGLGlwuq;&",
"*,avlnHLFSSSSSSSSSSSSSSSSSSSSSSSSSSSSSSSSSDSSSSSSSSSSSZFIGfwuq;&",
"*,avxnJLFZSSSSSSSDSSSSSSSSSSSSSSSSSSSSSSSSSSSSSSSSSSZZZGUGfwuq;&",
"*,avxnJLFSSSSSSSSSSSSSSSSSSSSSSSSSSSSSSSSSSSSSSDSSSSFZSGLGfwpq;&",
"$,gvlnJLFSZSSSSSSSSSSSSSSSSSSSSSSSSSSSSDSSSSSSSSSSSSZDZFLGfwpq;&",
"*,avlnJLFASSSSSSSSSSSSSSSSSSSSSSSSSSSSSSSSSSSSSSSSSSDZZGLGf9pq;&",
"*:avxnJPFFDDSSASSSSSSSSSSSSSSSSSSSSSSSSSSSSSSSSSSSSSSSSFLFf9pq;$",
"*1avlnJPKFFFDDDSSSSSSSSSSSSSSDSSSSSSSSSSSSSSSSSSSSSSSSSFPFfupq;&",
"*,avlnJLFFFFFFDSSSSSDASSSSSSSSSSSSSSSSSDSSFASSSSSSSSSSSFPGfwpq;&",
"&,axlnJLKFFFFFDASDSSSDSSADSSSSSSSSSSSSSSSSSFFSSSSSSSSSZFPGj9pq;*",
"*,ablnJPKFFKFFFSSSSSSSSSSSSSSSSSSSSSSSSSSSFFFFSSSSSSSSAFLJfwpq;$",
"&,axxnJLFFFFJFDSSSSSSSSSSSSSSSSSSSSSSSSSSDFFJFSSSSSSSSSFLGfww8;*",
"*1avlnJPKFFFFFASSSSSSSSSSSSSSSDSSSSSSSSSSDFFFFSSSSSSSSSFLGfwpq;$",
"*:avznKYKFJFFFDSSSSSSSDSSSSSSSSSSSSSSSSSFFFJFFFSSSSSSSSFIGfqpq;*",
"&:avxnPEJFFSSDSSSSSSSSSSSSDSSSSSSSSSDSSSSSDFDSSSSSSSSSZDLGfwuq=&",
"*,svknPEJFSASSSSDASSSSSSSSSSSSSSSSSSSSSSSSSZSSSSSSSSSSSGIGfwuq;&",
"&,avlnUUJFFSSSSSSSSSSSSSSSSSSSSSSSSDSSSSSSSSSSSSSSSSSSZGLGkwuq=&",
"&:anlnUEJFSSSSSSSSSSSSSSSSSSSSSSSSSSSSSSSSSSSSSSSSSSSSZFLGlwuq=&",
"&,avknUEKFSSSSSSSSSSSDSSSSSSSSSSSSSSSSSSSSSSSSSSSSSSSSZFLGfwuq=&",
"$,axxnLTJFDSDSSSSSSSSSSSSSSSSSSSSSSSSSSSSSSSSSSSSSSSSSSHIHfwuq=&",
"$,avlnUYKFFFFFDSSSSSSSSSSSSSSSSSSSSSSSSSSSSSSSSSSSSSSSGJYLkwu0=$",
"$,avlMUYKFFFJFDDDSSSSSSSSSSSSSSSSSSSSSSSSSSSSSSSSSSSSZGJYLl9u0=$",
"$;avlMUYJGFHFHFFGFAZDDSSSSZSSSSSSDZDSSSSSSSSSSSSSSSSFFFKELl9uq=#",
"$,avlMLYJFFHHFFHGGDZDZSSSFSSSSSSSZDZSSSSSSSSSSSZDDDDFGFKELlqu0=$",
"$:avkMURJFFFJFGFGDASZSSZFFHFSSSSSSZDSSSDSSSSSSAGFFGGHFFJELj8u7*#",
"$;avlbLULHHFFFFJGGGCDDSFFGHFSZSSSZDZSZZZZSSZSZAAFGFHFGHLYHd897=#",
"$;avlvGKTPHFFFFFGGGGAGGGFHFFASZZZZSZSCZZZCZZCCCCFHFFFHTUGbp8u7=+",
"#;svbnDJUYKHJJJKJJHHKJHJJJJJFFFFGGFFGGGGGGGGGGGGJHJJJJUJBxspu6=#",
"#;pbZDGGHKYTYEEETTTTTYIIPPPPPPPPPPLUTTUTTTUUYYYRTTTTELSnbbvku6%#",
"+;gZFGGGHKPYUUUPUUUUIIIKLKLLLLLLLLLLUUUUUUUUUUIIUUUUTLZMbbMvd8=#",
"O,xGGGGHTYHDAGSGGDCCCCCBCMMMCMCBCCDGGGGCDDCCCCCCCCCCBDIKMxvnvs;#",
"+,NJGGHIYKZMMCMmMmbvbvbvbbmbbbbbbbMMmMMMBmmmvvvvvbvxlBKIFMnnBk:+",
"@<VKGHUUHCBBCZMCmmmmmmvmmbmbbbbmmbmmMMMCCBmbmmbmmmbbmmBGPKMvMl:#",
"O=hCHIULSBBBMMZMmmmmmmmmmmmmmmmmmmmmMGMCCBmmmmmmmmmmmmvMIUGMce;O",
"~~=yKELGCCBBMBMBBNmmmBmBMmMMBmMBBMmBMBMMBBBmmBmBmMMMMMMMZHEFi%~~",
"~~ <VHNhzzkhllhhhlhhhhhlkhhkhhlhkhhhllhlhlhhhhhlhhhhhhjjaNFA< ~~",
"~~~~13=-=,============-===-=====--====-=============;;;==-41~~~~",
"~~~~o@@OO+++++++++++++O++++++++O++O+++++++++++++++++OOOOOO+O~~~~"
};
