/* XPM */
static char *result[] = {
/* columns rows colors chars-per-pixel */
"64 64 200 2 ",
"   c black",
".  c #07080E",
"X  c #1C0306",
"o  c #1B0008",
"O  c #120F18",
"+  c #230507",
"@  c #250508",
"#  c #280609",
"$  c #2A090A",
"%  c #270A09",
"&  c #330C0D",
"*  c #3C0C0E",
"=  c #261409",
"-  c #311208",
";  c #39170C",
":  c #341507",
">  c #300F12",
",  c #351414",
"<  c #3B1413",
"1  c #391917",
"2  c #33121D",
"3  c #3B1C1C",
"4  c #37191A",
"5  c #3F2A1E",
"6  c #121624",
"7  c #151926",
"8  c #1A1C28",
"9  c #1B1F31",
"0  c #0E1526",
"q  c #331426",
"w  c #3C1C23",
"e  c #3B2522",
"r  c #23273C",
"t  c #420D0F",
"y  c #4B1F0F",
"u  c #440E10",
"i  c #4D0F11",
"p  c #451113",
"a  c #4A1414",
"s  c #451B1A",
"d  c #4B1C1C",
"f  c #541113",
"g  c #5B1215",
"h  c #5B1A18",
"j  c #510F15",
"k  c #671617",
"l  c #73171A",
"z  c #7D191C",
"x  c #76181D",
"c  c #4D220F",
"v  c #42221F",
"b  c #48281D",
"n  c #5B3C1E",
"m  c #592518",
"M  c #673B15",
"N  c #7A3819",
"B  c #682D16",
"V  c #452522",
"C  c #4A2924",
"Z  c #4B2C26",
"A  c #572927",
"S  c #553625",
"D  c #602B28",
"F  c #692128",
"G  c #7F2123",
"H  c #6C3C36",
"J  c #623530",
"K  c #743F38",
"L  c #713C20",
"P  c #755509",
"I  c #7B4517",
"U  c #744218",
"Y  c #7A5A16",
"T  c #785715",
"R  c #644411",
"E  c #6C4924",
"W  c #76413B",
"Q  c #7A433C",
"!  c #7E533B",
"~  c #7B5E24",
"^  c #282D47",
"/  c #343B5D",
"(  c #2E3B65",
")  c #463A41",
"_  c #3A4165",
"`  c #5F505E",
"'  c #775341",
"]  c #434B78",
"[  c #841B1E",
"{  c #943D1C",
"}  c #8E1E24",
"|  c #AD1C28",
" . c #9E2025",
".. c #8A3432",
"X. c #863224",
"o. c #A42225",
"O. c #AD2329",
"+. c #AB2A28",
"@. c #A72629",
"#. c #B3242B",
"$. c #BC262C",
"%. c #BE282D",
"&. c #B62A2F",
"*. c #B5362E",
"=. c #B82C30",
"-. c #B43334",
";. c #A72D30",
":. c #C4272D",
">. c #C6292C",
",. c #CC2A2E",
"<. c #C9242F",
"1. c #D22B2F",
"2. c #CC2D31",
"3. c #D62E32",
"4. c #C83135",
"5. c #D43135",
"6. c #D33539",
"7. c #DD373B",
"8. c #D6393D",
"9. c #DB3A3E",
"0. c #E33A3E",
"q. c #E3373B",
"w. c #854A17",
"e. c #98411F",
"r. c #8E521B",
"t. c #93531D",
"y. c #AF5619",
"u. c #9C7C0E",
"i. c #947507",
"p. c #8C6C13",
"a. c #806014",
"s. c #95750C",
"d. c #B4621C",
"f. c #A87F04",
"g. c #994827",
"h. c #8A5128",
"j. c #80463F",
"k. c #8F5222",
"l. c #B8542A",
"z. c #B25B3A",
"x. c #9A7C36",
"c. c #907433",
"v. c #8C7233",
"b. c #A86226",
"n. c #B36625",
"m. c #C06519",
"M. c #C57B38",
"N. c #D47F36",
"B. c #F87638",
"V. c #EF7436",
"C. c #DA3B40",
"Z. c #EA3E42",
"A. c #E53D42",
"S. c #815640",
"D. c #805E5B",
"F. c #824840",
"G. c #B27642",
"H. c #D67F5E",
"J. c #9C8302",
"K. c #A2820D",
"L. c #A78602",
"P. c #9E8237",
"I. c #B38E2F",
"U. c #A28437",
"Y. c #A98C35",
"T. c #AE933A",
"R. c #B99C3D",
"E. c #C5A504",
"W. c #CBAB05",
"Q. c #D4B403",
"!. c #DEBE03",
"~. c #E98D3E",
"^. c #CAA837",
"/. c #E6C602",
"(. c #BC824D",
"). c #CB8548",
"_. c #D58949",
"`. c #D2B642",
"'. c #ECAC43",
"]. c #D39766",
"[. c #E09F65",
"{. c #E3A16B",
"}. c #E6A162",
"|. c #F3AA6B",
" X c #EBAE78",
".X c #E8A974",
"XX c #F4AD70",
"oX c #E8D245",
"OX c #FCE44C",
"+X c #FFEC4E",
"@X c #FFF24F",
"#X c #FFF650",
"$X c #FFF951",
"%X c #4E5790",
"&X c #465183",
"*X c #51609C",
"=X c #69719C",
"-X c #878EB8",
";X c #B3B7D4",
":X c None",
/* pixels */
":X:X:X:X:X:X:X:X:X:X:X:X:X:X:X:X:X:X:X:X:X:X:X:X:X:XXX:X:X:X:X:X:X:X:X{.{.:X:X:X:X:X:X:X:X:X:X:X:X:X:X:X:X:X:X:X:X:X:X:X:X:X:X:X",
":X:X:X:X:X:X:X:X:X:X:X:X:X:X:X:X:X:X:X:X:X:X:X:X:X}._.:X:X:X:X:X:X:X:X)._.:X:X:X:X:X:X:X:X:X:X:X:X:X:X:X:X:X:X:X:X:X:X:X:X:X:X:X",
":X:X:X:X:X:X:X:X:X:X:X:X:X:X:X:X:X:X:X:X:X:X:X:X{.|.d.:X:X:X:X:X:X:X:Xy.).XX:X:X:X:X:X:X:X:X:X:X:X:X:X:X:X:X:X:X:X:X:X:X:X:X:X:X",
":X:X:X:X:X:X:X:X:X:X:X:X:X:X:X:X:X:X:X:X:X:X:X:XM I n.d.b.%X-X;X*XD.d.n.t.U :X:X:X:X:X:X:X:X:X:X:X:X:X:X:X:X:X:X:X:X:X:X:X:X:X:X",
":X:X:X:X:X:X:X:X:X:X:X:X:X:X:X:X:X:X:X:X:X:X:X:X:XU t.h.! _ =X-X&X` ! t.w.M :X:X:X:X:X:X:X:X:X:X:X:X:X:X:X:X:X:X:X:X:X:X:X:X:X:X",
":X:X:X:X:X:X:X:X:X:X:X:X:X:X:X:X:X:X:X:X:X:X:X:X:X:XM ) ( ( ] %X/ / ( M M :X:X:X:X:X:X:X:X:X:X:X:X:X:X:X:X:X:X:X:X:X:X:X:X:X:X:X",
":X:X:X:X:X:X:X:X:X:X:X:X:X:X:X:X:X:X:X:X:X:X:X:X:X:X:X8 9 / _ _ _ ^ 7 :X:X:X:X:X:X:X:X:X:X:X:X:X:X:X:X:X:X:X:X:X:X:X:X:X:X:X:X:X",
":X:X:X:X:X:X:X:X:X:X:X:X:X:X:X:X:X:X:X:X:X:X:X:X:X:X:X6 9 r ^ ^ ^ 9 6 :X:X:X:X:X:X:X:X:X:X:X:X:X:X:X:X:X:X:X:X:X:X:X:X:X:X:X:X:X",
":X:X:X:X:X:X:X:X:X:X:X:X:X:X:X:X:X:X:X:X:X:X:X:X:X:X:X6 7   . 0   . 7 :X:X:X:X:X:X:X:X:X:X:X:X:X:X:X:X:X:X:X:X:X:X:X:X:X:X:X:X:X",
":X:X:X:X:X:X:X:X:X:X:X:X:X:X:X:X:X:X:X:X:X:X:X:X:X:XA.A 7 I e 0 U b 0 C.:X:X:X:X:X:X:X:X:X:X:X:X:X:X:X:X:X:X:X:X:X:X:X:X:X:X:X:X",
":X:X:X:X:X:X:X:X:X:X:X:X:X:X:X:X:X:X:X:X:X:X:X:X:X:Xq.F O n.E e b.M O 6.6.:X:X:X:X:X:X:X:X:X:X:X:X:X:X:X:X:X:X:X:X:X:X:X:X:X:X:X",
":X:X:X:X:X:X:X:X:X:X:X:X:X:X:X:X:X:X:X:X:X:X:X:X9.Z.1.k % ~.n.k.~.k.o $.5.A.:X:X:X:X:X:X:X:X:X:X:X:X:X:X:X:X:X:X:X:X:X:X:X:X:X:X",
":X:X:X:X:X:X:X:X:X:X:X:X:X:X:X:X:X:X:X:X:X:X:X9.2.2.#.=.-.; k.N.= F 4.O.%.2.0.9.:X:X:X:X:X:X:X:X:X:X:X:X:X:X:X:X:X:X:X:X:X:X:X:X",
":X:X:X:X:X:X:X:X:X:X:X:X:X:X:X:X:X:X:X:X:X:X:X7.2.:.O.4.6.f N b.& G 7.#.#.:.7.6.:X:X:X:X:X:X:X:X:X:X:X:X:X:X:X:X:X:X:X:X:X:X:X:X",
":X:X:X:X:X:X:X:X:X:X:X:X:X:X:X:X:X:X:X:X:X8.A.,.$.O.O.$.>.Z.h   9.6.>.#.#.O.>.5.Z.:X:X:X:X:X:X:X:X:X:X:X:X:X:X:X:X:X:X:X:X:X:X:X",
":X:X:X:X:X:X:X:X:X:X:X:X:X:X:X:X:X:X:X:XC.5.,.#.#.#.>.,.,.3.=.;.2.2.,.,.%.O.#.%.3.9.9.:X:X:X:X:X:X:X:X:X:X:X:X:X:X:X:X:X:X:X:X:X",
":X:X:X:X:X:X:X:X:X:X:X:X:X:X:X:X:X:X:X:X0.2.$.O.#.#.o.o.o.>.5.7.,.#.o.o.O.$.O.#.:.7.6.:X:X:X:X:X:X:X:X:X:X:X:X:X:X:X:X:X:X:X:X:X",
":X:X:X:X:X:X:X:X:X:X:X:X:X:X:X:X:X:X9.0.>.$.O.O.>.%.@ @ $ ,.,.1.1.x X X l 3.#.O.O.>.6.Z.:X:X:X:X:X:X:X:X:X:X:X:X:X:X:X:X:X:X:X:X",
":X:X:X:X:X:X:X:X:X:X:X:X:X:X:X:X:X:X2.3.#.#.#.2.[ i # # & ,.[ f 1.z + + * f $.$.O.#.:.5.:X:X:X:X:X:X:X:X:X:X:X:X:X:X:X:X:X:X:X:X",
":X:X:X:X:X:X:X:X:X:X:X:X:X:X:X:X:X:X>.>.#.#.#.#.f X # @ & 1.l + ,.z + $ + +  .O.#.#.#.,.:X:X:X:X:X:X:X:X:X:X:X:X:X:X:X:X:X:X:X:X",
":X:X:X:X:X:X:X:X:X:X:X:X:X:X:X:X:X:XO.#.O.,.$.X + @ # @ # 1.l + ,.[ X + # + X k 3.#.#.#.:X:X:X:X:X:X:X:X:X:X:X:X:X:X:X:X:X:X:X:X",
":X:X:X:X:X:X:X:X:X:X:X:X:X:X:X:X:X:X#.$.>.z a + P i.2 P f.1.G 4 ,.y.J.1 R L.- * g #.:.#.:X:X:X:X:X:X:X:X:X:X:X:X:X:X:X:X:X:X:X:X",
":X:X:X:X:X:X:X:X:X:X:X:X:X:X:X:X:X:XO.$.,.k % + i.E.S u.W.:.X.S $.d.W.n p.W.: $ = #.:.#.:X:X:X:X:X:X:X:X:X:X:X:X:X:X:X:X:X:X:X:X",
":X:X:X:X:X:X:X:X:X:X:X:X:X:X:X:X:X:X#.#.#.e.I # , C /.Y q q s./.V w w !.u.q $ c t.+.#.#.:X:X:X:X:X:X:X:X:X:X:X:X:X:X:X:X:X:X:X:X",
":X:X:X:X:X:X:X:X:X:X:X:X:X:X:X:X:X:X#.#.#.{ w.@ T L.a.s.K.K.p.Y u.K.K.Y p.K.- c r.+.O.$.:X:X:X:X:X:X:X:X:X:X:X:X:X:X:X:X:X:X:X:X",
":X:X:X:X:X:X:X:X:X:X:X:X:X:X:X:X:X:X#.#.#.{ I o i.L.q u./.Q.p.Z W.Q.!.V Y Q.: c r.+.#.#.:X:X:X:X:X:X:X:X:X:X:X:X:X:X:X:X:X:X:X:X",
":X:X:X:X:X:X:X:X:X:X:X:X:X:X:X:X:X:X#.#.#.{ I # % % w (.+Xq Y.#X4 x.$XS 4 @ + c r.+.#.&.:X:X:X:X:X:X:X:X:X:X:X:X:X:X:X:X:X:X:X:X",
":X:X:X:X:X:X:X:X:X:X:X:X:X:X:X:X:X:X#.#.#.g.I @ % % > ~ x.T.U.c.T.U.v.1 > @ + c r.+.#.#.:X:X:X:X:X:X:X:X:X:X:X:X:X:X:X:X:X:X:X:X",
":X:X:X:X:X:X:X:X:X:X:X:X:X:X:X:X:X:X#.#.#.{ I @ $ $ # 1 S #XU.V @XT.w $ # $ # c t.+.#.#.:X:X:X:X:X:X:X:X:X:X:X:X:X:X:X:X:X:X:X:X",
":X:X:X:X:X:X:X:X:X:X:X:X:X:X:X:X:X:X#.#.#.{ N @ % $ o Y.$X+XOXOX+X+X+X; + o + y w.+.#.#.:X:X:X:X:X:X:X:X:X:X:X:X:X:X:X:X:X:X:X:X",
":X:X:X:X:X:X:X:X:X:X:X:X:X:X:X:X:X:X#.#.| M.I.@ $ $ @ E P.x.`.OXU.P.x.$ y g.# M ^.*.#.#.:X:X:X:X:X:X:X:X:X:X:X:X:X:X:X:X:X:X:X:X",
":X:X:X:X:X:X:X:X:X:X:X:X:X:X:X:X:X:XO.$.| '.oX$ $ $ @ , w 2 U.OXV 3 w @ N B.& ~ $X*.| #.:X:X:X:X:X:X:X:X:X:X:X:X:X:X:X:X:X:X:X:X",
":X:X:X:X:X:X:X:X:X:X:X:X:X:X:X:X:X:X#.$.#.e.t..X! 3 $ $ $ V C C V 1 @ + N B.{.).w.+.O.#.:X:X:X:X:X:X:X:X:X:X:X:X:X:X:X:X:X:X:X:X",
":X:X:X:X:X:X:X:X:X:X:X:X:X:X:X:X:X:XO.#.#.z.(. Xj.3 $ $ $ 1 v V 1 > # # m g.{.].G.&.#.#.:X:X:X:X:X:X:X:X:X:X:X:X:X:X:X:X:X:X:X:X",
":X:X:X:X:X:X:X:X:X:X:X:X:X:X:X:X:X:X#.#.| H. X.Xj.5 $ $ $ # 1 V # # $ # , e ]..X X-.| #.:X:X:X:X:X:X:X:X:X:X:X:X:X:X:X:X:X:X:X:X",
":X:X:X:X:X:X:X:X:X:X:X:X:X:X:X:X:X:X:X:X$.&.@.a b Z v v v $ $ $ @ , V v V V , 2 s O.%.%.:X:X:X:X:X:X:X:X:X:X:X:X:X:X:X:X:X:X:X:X",
":X:X:X:X:X:X:X:X:X:X:X:X:X:X:X:X:X:X:X:X#.#.o.t v V V V V # # $ @ , Z V V V $ u x o.O.&.:X:X:X:X:X:X:X:X:X:X:X:X:X:X:X:X:X:X:X:X",
":X:X:X:X:X:X:X:X:X:X:X:X:X:X:X:X:X:X:X:X:X#.@.t s b V V V # $ # # , C V V V % g :.:X:X:X:X:X:X:X:X:X:X:X:X:X:X:X:X:X:X:X:X:X:X:X",
":X:X:X:X:X:X:X:X:X:X:X:X:X:X:X:X:X:X:X:X:X#.@.p p p Z , $ # 1 V $ $ $ V s u + g $.:X:X:X:X:X:X:X:X:X:X:X:X:X:X:X:X:X:X:X:X:X:X:X",
":X:X:X:X:X:X:X:X:X:X:X:X:X:X:X:X:X:X:X:X:XO.O.* u p C , @ # , V $ $ $ V s u @ g $.:X:X:X:X:X:X:X:X:X:X:X:X:X:X:X:X:X:X:X:X:X:X:X",
":X:X:X:X:X:X:X:X:X:X:X:X:X:X:X:X:X:X:X:X:X#.@.t u u Z , @ @ 4 C $ $ @ V s u $ g $.:X:X:X:X:X:X:X:X:X:X:X:X:X:X:X:X:X:X:X:X:X:X:X",
":X:X:X:X:X:X:X:X:X:X:X:X:X:X:X:X:X:X:X:X:X#.@.u u p V V s @ & p $ , V V s u # g $.:X:X:X:X:X:X:X:X:X:X:X:X:X:X:X:X:X:X:X:X:X:X:X",
":X:X:X:X:X:X:X:X:X:X:X:X:X:X:X:X:X:X:X:X:X#.O.t u u V V V & * u & 1 C V s t @ g $.:X:X:X:X:X:X:X:X:X:X:X:X:X:X:X:X:X:X:X:X:X:X:X",
":X:X:X:X:X:X:X:X:X:X:X:X:X:X:X:X:X:X:X:X:X#.o.t u p V Z V u u u u s V V s t @ g $.:X:X:X:X:X:X:X:X:X:X:X:X:X:X:X:X:X:X:X:X:X:X:X",
":X:X:X:X:X:X:X:X:X:X:X:X:X:X:X:X:X:X:X:X:X#.O.* t u H A e u u * u s C H A t @ g $.:X:X:X:X:X:X:X:X:X:X:X:X:X:X:X:X:X:X:X:X:X:X:X",
":X:X:X:X:X:X:X:X:X:X:X:X:X:X:X:X:X:X:X:X:X#.@.t u a K J Z u f k t d A Q A t @ g $.:X:X:X:X:X:X:X:X:X:X:X:X:X:X:X:X:X:X:X:X:X:X:X",
":X:X:X:X:X:X:X:X:X:X:X:X:X:X:X:X:X:X:X:X:X#.O.t u a K K K * [ %.t A Q K D t # g $.:X:X:X:X:X:X:X:X:X:X:X:X:X:X:X:X:X:X:X:X:X:X:X",
":X:X:X:X:X:X:X:X:X:X:X:X:X:X:X:X:X:X:X:X:X#.O.* u a K C < |  .:X .l > K D t + g :.:X:X:X:X:X:X:X:X:X:X:X:X:X:X:X:X:X:X:X:X:X:X:X",
":X:X:X:X:X:X:X:X:X:X:X:X:X:X:X:X:X:X:X:X:X#.@.g g h K A < $.:X:X%.l , K D t @ j $.:X:X:X:X:X:X:X:X:X:X:X:X:X:X:X:X:X:X:X:X:X:X:X",
":X:X:X:X:X:X:X:X:X:X:X:X:X:X:X:X:X:X:X:X:X:X:X$.$.&.K Q Q :X:X:X:X:XF.W A * + X :X:X:X:X:X:X:X:X:X:X:X:X:X:X:X:X:X:X:X:X:X:X:X:X",
":X:X:X:X:X:X:X:X:X:X:X:X:X:X:X:X:X:X:X:X:X:X:X$.#.:XQ A 1 :X:X:X:X:Xa K .. .l.l.:X:X:X:X:X:X:X:X:X:X:X:X:X:X:X:X:X:X:X:X:X:X:X:X",
":X:X:X:X:X:X:X:X:X:X:X:X:X:X:X:X:X:X:X:X:X:X:X%.:X:XQ s + :X:X:X:X:X# H ..#.B.V.:X:X:X:X:X:X:X:X:X:X:X:X:X:X:X:X:X:X:X:X:X:X:X:X",
":X:X:X:X:X:X:X:X:X:X:X:X:X:X:X:X:X:X:X:X:X:X:X:X:X:X:X$ $ :X:X:X:X:X$ :X:X:X:X:X:X:X:X:X:X:X:X:X:X:X:X:X:X:X:X:X:X:X:X:X:X:X:X:X",
":X:X:X:X:X:X:X:X:X:X:X:X:X:X:X:X:X:X:X:X:X:X:X:X:X:X:X+ # :X:X:X:X:X# :X:X:X:X:X:X:X:X:X:X:X:X:X:X:X:X:X:X:X:X:X:X:X:X:X:X:X:X:X",
":X:X:X:X:X:X:X:X:X:X:X:X:X:X:X:X:X:X:X:X:X:X:X:X:X:X:X& - :X:X:X:X:X, :X:X:X:X:X:X:X:X:X:X:X:X:X:X:X:X:X:X:X:X:X:X:X:X:X:X:X:X:X",
":X:X:X:X:X:X:X:X:X:X:X:X:X:X:X:X:X:X:X:X:X:X:X:X:X:X:XW K :X:X:X:X:XQ :X:X:X:X:X:X:X:X:X:X:X:X:X:X:X:X:X:X:X:X:X:X:X:X:X:X:X:X:X",
":X:X:X:X:X:X:X:X:X:X:X:X:X:X:X:X:X:X:X:X:X:X:X:X:X:X:XK K :X:X:X:X:XQ :X:X:X:X:X:X:X:X:X:X:X:X:X:X:X:X:X:X:X:X:X:X:X:X:X:X:X:X:X",
":X:X:X:X:X:X:X:X:X:X:X:X:X:X:X:X:X:X:X:X:X:X:X:X:X:X:XK K :X:X:X:X:XQ :X:X:X:X:X:X:X:X:X:X:X:X:X:X:X:X:X:X:X:X:X:X:X:X:X:X:X:X:X",
":X:X:X:X:X:X:X:X:X:X:X:X:X:X:X:X:X:X:X:X:X:X:X:X:X:X:XK K :X:X:X:X:XQ :X:X:X:X:X:X:X:X:X:X:X:X:X:X:X:X:X:X:X:X:X:X:X:X:X:X:X:X:X",
":X:X:X:X:X:X:X:X:X:X:X:X:X:X:X:X:X:X:X:X:X:X:X:X:X:X:XK K :X:X:X:X:XQ :X:X:X:X:X:X:X:X:X:X:X:X:X:X:X:X:X:X:X:X:X:X:X:X:X:X:X:X:X",
":X:X:X:X:X:X:X:X:X:X:X:X:X:X:X:X:X:X:X:X:X:X:X:X:X:X:XK K :X:X:X:X:XQ :X:X:X:X:X:X:X:X:X:X:X:X:X:X:X:X:X:X:X:X:X:X:X:X:X:X:X:X:X",
":X:X:X:X:X:X:X:X:X:X:X:X:X:X:X:X:X:X:X:X:X:X:X:X:X:X:XK Q :X:X:X:XK j.:X:X:X:X:X:X:X:X:X:X:X:X:X:X:X:X:X:X:X:X:X:X:X:X:X:X:X:X:X",
":X:X:X:X:X:X:X:X:X:X:X:X:X:X:X:X:X:X:X:X:X:X:X:X:X:X:X:X:X:X:X:X:X:X:X:X:X:X:X:X:X:X:X:X:X:X:X:X:X:X:X:X:X:X:X:X:X:X:X:X:X:X:X:X",
":X:X:X:X:X:X:X:X:X:X:X:X:X:X:X:X:X:X:X:X:X:X:X:X:X:X:X:X:X:X:X:X:X:X:X:X:X:X:X:X:X:X:X:X:X:X:X:X:X:X:X:X:X:X:X:X:X:X:X:X:X:X:X:X"
};
