/* XPM */
static char *result[] = {
/* columns rows colors chars-per-pixel */
"64 64 202 2 ",
"   c #010308",
".  c #130002",
"X  c #1C0305",
"o  c #1E0209",
"O  c #16030A",
"+  c #0E121E",
"@  c #18161A",
"#  c #0B0E17",
"$  c #250506",
"%  c #260608",
"&  c #280708",
"*  c #250B0B",
"=  c #2B0A0B",
"-  c #350C0D",
";  c #3D0C0E",
":  c #350308",
">  c #2C1908",
",  c #33130A",
"<  c #3C190B",
"1  c #351313",
"2  c #3A1514",
"3  c #3A1917",
"4  c #3B1B1A",
"5  c #32121D",
"6  c #211815",
"7  c #3E211F",
"8  c #0E1525",
"9  c #141826",
"0  c #181B27",
"q  c #3C1D21",
"w  c #351522",
"e  c #3A292E",
"r  c #420D0F",
"t  c #4A1C0F",
"y  c #440E10",
"u  c #441213",
"i  c #491314",
"p  c #441C1B",
"a  c #4B1C1C",
"s  c #5B1214",
"d  c #581517",
"f  c #621216",
"g  c #6D161A",
"h  c #62191E",
"j  c #74191B",
"k  c #79181B",
"l  c #422108",
"z  c #4D220F",
"x  c #5A320B",
"c  c #42211E",
"v  c #4E2410",
"b  c #5C2F12",
"n  c #4B311F",
"m  c #583718",
"M  c #693A15",
"N  c #692F16",
"B  c #401C24",
"V  c #7C1F22",
"C  c #462622",
"Z  c #472A23",
"A  c #4A2A24",
"S  c #512522",
"D  c #542825",
"F  c #572C28",
"G  c #4C3120",
"H  c #523323",
"J  c #742228",
"K  c #7E3C21",
"L  c #6A3A34",
"P  c #743F38",
"I  c #723D37",
"U  c #612D26",
"Y  c #6F5003",
"T  c #7F4818",
"R  c #784217",
"E  c #7A5B17",
"W  c #7A5908",
"Q  c #58423E",
"!  c #755729",
"~  c #674031",
"^  c #77423B",
"/  c #79423C",
"(  c #774B37",
")  c #7D4C2F",
"_  c #272D46",
"`  c #27304F",
"'  c #353C5D",
"]  c #2F3655",
"[  c #373E61",
"{  c #3B4164",
"}  c #3F466F",
"|  c #44425A",
" . c #404260",
".. c #474F7F",
"X. c #831B1E",
"o. c #8F3D1F",
"O. c #8D331D",
"+. c #961F24",
"@. c #8C1C22",
"#. c #AD1C28",
"$. c #8A2328",
"%. c #9A2226",
"&. c #993F20",
"*. c #9E3535",
"=. c #AD2327",
"-. c #AD2329",
";. c #AC2A29",
":. c #A22528",
">. c #B3242A",
",. c #BA262C",
"<. c #BF292D",
"1. c #B73A2E",
"2. c #B83334",
"3. c #B92D31",
"4. c #C3272B",
"5. c #C5292D",
"6. c #CB292D",
"7. c #C8272B",
"8. c #D32B2F",
"9. c #C8302F",
"0. c #CD2D31",
"q. c #C62930",
"w. c #D42E32",
"e. c #CF3034",
"r. c #D23135",
"t. c #D5363A",
"y. c #D5393D",
"u. c #DB383C",
"i. c #E2393D",
"p. c #874D19",
"a. c #8D521B",
"s. c #805F13",
"d. c #93521A",
"f. c #92581D",
"g. c #AB5F1E",
"h. c #93740A",
"j. c #836313",
"k. c #8A6D11",
"l. c #907110",
"z. c #A07D0D",
"x. c #AC611F",
"c. c #BC671C",
"v. c #9C4221",
"b. c #8D5221",
"n. c #80463F",
"m. c #925425",
"M. c #A45E25",
"N. c #A74E3E",
"B. c #997A26",
"V. c #9B7537",
"C. c #AB6428",
"Z. c #B26421",
"A. c #B56929",
"S. c #BD6437",
"D. c #C07030",
"F. c #D67232",
"G. c #E06C33",
"H. c #FF7E3B",
"J. c #DF3C40",
"K. c #E53D41",
"L. c #EC3E42",
"P. c #996749",
"I. c #A16A4C",
"U. c #B57945",
"Y. c #AE7544",
"T. c #846361",
"R. c #CE7B4C",
"E. c #A3850C",
"W. c #9E8138",
"Q. c #A28434",
"!. c #A78A37",
"~. c #AF983D",
"^. c #B1953B",
"/. c #D0AF02",
"(. c #DFBF01",
"). c #D3B302",
"_. c #CBAB02",
"`. c #CE8F37",
"'. c #E78C3E",
"]. c #C5A334",
"[. c #E7C700",
"{. c #CA8A55",
"}. c #EA8A51",
"|. c #D4B843",
" X c #E6A141",
".X c #DC9F6E",
"XX c #E19F64",
"oX c #ECA76A",
"OX c #E8AC74",
"+X c #F7B479",
"@X c #F9DE4B",
"#X c #EFDA47",
"$X c #FEE54D",
"%X c #FEEC4E",
"&X c #FFF34F",
"*X c #FFF651",
"=X c #50588B",
"-X c #5D669C",
";X c #5564A3",
":X c #8A91BE",
">X c #B9BEDD",
",X c None",
/* pixels */
",X,X,X,X,X,X,X,X,X,X,X,X,X,X,X,X,X,X,X,X,X,X,X,X,X,X,X,X,X,X,X,X,X,X,X,X,X,X,X,X,X,X,X,X,X,X,X,X,X,X,X,X,X,X,X,X,X,X,X,X,X,X,X,X",
",X,X,X,X,X,X,X,X,X,X,X,X,X,X,X,X,X,X,X,X,X,X,X,X,X,X,X,X,X,X,X,X,X,X,X,X,X,X,X,X,X,X,X,X,X,X,X,X,X,X,X,X,X,X,X,X,X,X,X,X,X,X,X,X",
",X,X,X,X,X,X,X,X,X,X,X,X,X,X,X,X,X,X,X,X,X,X,X,X,X,X+X,X,X,X,X,X,X,X,XoXoX,X,X,X,X,X,X,X,X,X,X,X,X,X,X,X,X,X,X,X,X,X,X,X,X,X,X,X",
",X,X,X,X,X,X,X,X,X,X,X,X,X,X,X,X,X,X,X,X,X,X,X,XoXoXA.,X,X,X,X,X,X,X,XZ.R.oX,X,X,X,X,X,X,X,X,X,X,X,X,X,X,X,X,X,X,X,X,X,X,X,X,X,X",
",X,X,X,X,X,X,X,X,X,X,X,X,X,X,X,X,X,X,X,X,X,X,X,XU.U.Z.x.,X,X,X,X,X,X,XZ.C.U.,X,X,X,X,X,X,X,X,X,X,X,X,X,X,X,X,X,X,X,X,X,X,X,X,X,X",
",X,X,X,X,X,X,X,X,X,X,X,X,X,X,X,X,X,X,X,X,X,X,X,Xx M x.Z.A.=X:X>X;XT.c.Z.p.x ,X,X,X,X,X,X,X,X,X,X,X,X,X,X,X,X,X,X,X,X,X,X,X,X,X,X",
",X,X,X,X,X,X,X,X,X,X,X,X,X,X,X,X,X,X,X,X,X,X,X,X,X,Xp.Q  .[ =X-X{ { | R M ,X,X,X,X,X,X,X,X,X,X,X,X,X,X,X,X,X,X,X,X,X,X,X,X,X,X,X",
",X,X,X,X,X,X,X,X,X,X,X,X,X,X,X,X,X,X,X,X,X,X,X,X,X,XM e ` [ } ..[ ] ` M ,X,X,X,X,X,X,X,X,X,X,X,X,X,X,X,X,X,X,X,X,X,X,X,X,X,X,X,X",
",X,X,X,X,X,X,X,X,X,X,X,X,X,X,X,X,X,X,X,X,X,X,X,X,X,X,X9 0 [ [ [ { _ + ,X,X,X,X,X,X,X,X,X,X,X,X,X,X,X,X,X,X,X,X,X,X,X,X,X,X,X,X,X",
",X,X,X,X,X,X,X,X,X,X,X,X,X,X,X,X,X,X,X,X,X,X,X,X,X,X,X9 9   8 0   # 0 ,X,X,X,X,X,X,X,X,X,X,X,X,X,X,X,X,X,X,X,X,X,X,X,X,X,X,X,X,X",
",X,X,X,X,X,X,X,X,X,X,X,X,X,X,X,X,X,X,X,X,X,X,X,X,X,X,X9 0 > @ 9 > 6 9 ,X,X,X,X,X,X,X,X,X,X,X,X,X,X,X,X,X,X,X,X,X,X,X,X,X,X,X,X,X",
",X,X,X,X,X,X,X,X,X,X,X,X,X,X,X,X,X,X,X,X,X,X,X,X,X,X,X9 0 d.H 8 d.H 8 ,X,X,X,X,X,X,X,X,X,X,X,X,X,X,X,X,X,X,X,X,X,X,X,X,X,X,X,X,X",
",X,X,X,X,X,X,X,X,X,X,X,X,X,X,X,X,X,X,X,X,X,X,X,X,X,XK.h * `.M.M `.p.O y.,X,X,X,X,X,X,X,X,X,X,X,X,X,X,X,X,X,X,X,X,X,X,X,X,X,X,X,X",
",X,X,X,X,X,X,X,X,X,X,X,X,X,X,X,X,X,X,X,X,X,X,X,X,X,Xi.$.d C.M.M.M.K d u.t.,X,X,X,X,X,X,X,X,X,X,X,X,X,X,X,X,X,X,X,X,X,X,X,X,X,X,X",
",X,X,X,X,X,X,X,X,X,X,X,X,X,X,X,X,X,X,X,X,X,X,X,Xy.L.7.u.y.. p.'.  h L.q.r.K.,X,X,X,X,X,X,X,X,X,X,X,X,X,X,X,X,X,X,X,X,X,X,X,X,X,X",
",X,X,X,X,X,X,X,X,X,X,X,X,X,X,X,X,X,X,X,X,X,X,Xu.r.6.>.5.6.2.J > :.3.0.,.4.0.K.,X,X,X,X,X,X,X,X,X,X,X,X,X,X,X,X,X,X,X,X,X,X,X,X,X",
",X,X,X,X,X,X,X,X,X,X,X,X,X,X,X,X,X,X,X,X,X,X,Xi.0.4.-.,.5.i.J = y.r.4.-.>.4.i.t.,X,X,X,X,X,X,X,X,X,X,X,X,X,X,X,X,X,X,X,X,X,X,X,X",
",X,X,X,X,X,X,X,X,X,X,X,X,X,X,X,X,X,X,X,X,Xy.K.6.,.-.-.-.>.7.t.u.6.,.-.>.>.=.7.r.K.,X,X,X,X,X,X,X,X,X,X,X,X,X,X,X,X,X,X,X,X,X,X,X",
",X,X,X,X,X,X,X,X,X,X,X,X,X,X,X,X,X,X,X,XJ.r.0.>.>.;.5.4.5.6.6.r.6.7.5.5.,.=.>.4.r.J.,X,X,X,X,X,X,X,X,X,X,X,X,X,X,X,X,X,X,X,X,X,X",
",X,X,X,X,X,X,X,X,X,X,X,X,X,X,X,X,X,X,X,Xi.6.<.>.>.>.=.=.=.6.,.=.6.,.=.=.=.,.>.>.4.i.J.,X,X,X,X,X,X,X,X,X,X,X,X,X,X,X,X,X,X,X,X,X",
",X,X,X,X,X,X,X,X,X,X,X,X,X,X,X,X,X,X,X,X8.,.-.-.7.4.$ * = r.j o 6.k X X g 8.>.=.-.0.q.,X,X,X,X,X,X,X,X,X,X,X,X,X,X,X,X,X,X,X,X,X",
",X,X,X,X,X,X,X,X,X,X,X,X,X,X,X,X,X,X,X,X<.>.>.6.X.d $ $ - 6.j * 6.k $ * r s <.4.-.4.,.,X,X,X,X,X,X,X,X,X,X,X,X,X,X,X,X,X,X,X,X,X",
",X,X,X,X,X,X,X,X,X,X,X,X,X,X,X,X,X,X,X,X>.>.>.,.s X t , - 8.j * 6.V * < , X :.>.>.,.-.,X,X,X,X,X,X,X,X,X,X,X,X,X,X,X,X,X,X,X,X,X",
",X,X,X,X,X,X,X,X,X,X,X,X,X,X,X,X,X,X,X,X>.5.>.X $ < [.j.B 8.$.q 8.$.q [.h.o X f 8.,.>.,X,X,X,X,X,X,X,X,X,X,X,X,X,X,X,X,X,X,X,X,X",
",X,X,X,X,X,X,X,X,X,X,X,X,X,X,X,X,X,X,X,X>.,.;.M r , E l.z.J a.E.J a.E.E m $ x O.<.,.#.,X,X,X,X,X,X,X,X,X,X,X,X,X,X,X,X,X,X,X,X,X",
",X,X,X,X,X,X,X,X,X,X,X,X,X,X,X,X,X,X,X,X>.>.;.f.z * C h._.Z h./.n k./.m 7 $ p.&.-.,.-.,X,X,X,X,X,X,X,X,X,X,X,X,X,X,X,X,X,X,X,X,X",
",X,X,X,X,X,X,X,X,X,X,X,X,X,X,X,X,X,X,X,X>.>.;.a.z , [.j.q [.j.w (.h.5 (.h.X T &.-.,.-.,X,X,X,X,X,X,X,X,X,X,X,X,X,X,X,X,X,X,X,X,X",
",X,X,X,X,X,X,X,X,X,X,X,X,X,X,X,X,X,X,X,X>.>.;.a.z & Y B.^.j.B.~.E Q.~.W x $ T &.>.,.>.,X,X,X,X,X,X,X,X,X,X,X,X,X,X,X,X,X,X,X,X,X",
",X,X,X,X,X,X,X,X,X,X,X,X,X,X,X,X,X,X,X,X,.-.;.a.z $ . Q.$Xq !.$XC W.%X= X & T &.#.,.-.,X,X,X,X,X,X,X,X,X,X,X,X,X,X,X,X,X,X,X,X,X",
",X,X,X,X,X,X,X,X,X,X,X,X,X,X,X,X,X,X,X,X,.>.;.a.z $ $ 1 A %XV.4 $X!.5 = $ $ T &.>.,.-.,X,X,X,X,X,X,X,X,X,X,X,X,X,X,X,X,X,X,X,X,X",
",X,X,X,X,X,X,X,X,X,X,X,X,X,X,X,X,X,X,X,X>.-.;.a.z $ $ ! ~.%X|.!.%X|.Q.= * % T &.-.,.-.,X,X,X,X,X,X,X,X,X,X,X,X,X,X,X,X,X,X,X,X,X",
",X,X,X,X,X,X,X,X,X,X,X,X,X,X,X,X,X,X,X,X,.-.;.f.z $ X Q.*X@X$X%X@X$X$Xt & % p.v.>.,.>.,X,X,X,X,X,X,X,X,X,X,X,X,X,X,X,X,X,X,X,X,X",
",X,X,X,X,X,X,X,X,X,X,X,X,X,X,X,X,X,X,X,X>.=.1.*X! . % 3 H C ^.&XH A A G.o.. #X X#.,.-.,X,X,X,X,X,X,X,X,X,X,X,X,X,X,X,X,X,X,X,X,X",
",X,X,X,X,X,X,X,X,X,X,X,X,X,X,X,X,X,X,X,X>.=.1.].V.( 2 1 5 q ! !.A q 1 G.S.( ].D.#.,.-.,X,X,X,X,X,X,X,X,X,X,X,X,X,X,X,X,X,X,X,X,X",
",X,X,X,X,X,X,X,X,X,X,X,X,X,X,X,X,X,X,X,X>.>.;.o.{.OXA 1 = C C 4 Z 2 % G.}.+Xb.o.>.,.-.,X,X,X,X,X,X,X,X,X,X,X,X,X,X,X,X,X,X,X,X,X",
",X,X,X,X,X,X,X,X,X,X,X,X,X,X,X,X,X,X,X,X>.-.2.OXOX.XA 1 $ = 3 A = = % c P.+XOXR.#.>.>.,X,X,X,X,X,X,X,X,X,X,X,X,X,X,X,X,X,X,X,X,X",
",X,X,X,X,X,X,X,X,X,X,X,X,X,X,X,X,X,X,X,X,.-.;.I.I.P.A 4 1 $ 1 4 * = 2 c L P.I.N.>.,.-.,X,X,X,X,X,X,X,X,X,X,X,X,X,X,X,X,X,X,X,X,X",
",X,X,X,X,X,X,X,X,X,X,X,X,X,X,X,X,X,X,X,X,.>.%.: 2 4 A A C = $ $ % 3 A A 5 o : f ,.,.-.,X,X,X,X,X,X,X,X,X,X,X,X,X,X,X,X,X,X,X,X,X",
",X,X,X,X,X,X,X,X,X,X,X,X,X,X,X,X,X,X,X,X,X>.=.; p Z C C C % % % = 2 A A 2 & ; g ,.,X,X,X,X,X,X,X,X,X,X,X,X,X,X,X,X,X,X,X,X,X,X,X",
",X,X,X,X,X,X,X,X,X,X,X,X,X,X,X,X,X,X,X,X,X>.:.y i B A 4 3 = = 1 % 1 4 C 3 $ ; g ,.,X,X,X,X,X,X,X,X,X,X,X,X,X,X,X,X,X,X,X,X,X,X,X",
",X,X,X,X,X,X,X,X,X,X,X,X,X,X,X,X,X,X,X,X,X>.=.; y y A 1 % % 4 A = $ % C 3 % ; g ,.,X,X,X,X,X,X,X,X,X,X,X,X,X,X,X,X,X,X,X,X,X,X,X",
",X,X,X,X,X,X,X,X,X,X,X,X,X,X,X,X,X,X,X,X,X>.=.y y y Z 1 % = 3 A % = & C 3 & ; g ,.,X,X,X,X,X,X,X,X,X,X,X,X,X,X,X,X,X,X,X,X,X,X,X",
",X,X,X,X,X,X,X,X,X,X,X,X,X,X,X,X,X,X,X,X,X>.:.y r y C 4 - % 2 p = = 1 C 3 $ ; g ,.,X,X,X,X,X,X,X,X,X,X,X,X,X,X,X,X,X,X,X,X,X,X,X",
",X,X,X,X,X,X,X,X,X,X,X,X,X,X,X,X,X,X,X,X,X-.=.r y 2 C C C % - r & 2 A C 3 & ; g ,.,X,X,X,X,X,X,X,X,X,X,X,X,X,X,X,X,X,X,X,X,X,X,X",
",X,X,X,X,X,X,X,X,X,X,X,X,X,X,X,X,X,X,X,X,X>.=.; r i L D c r r y ; p C L A $ ; g ,.,X,X,X,X,X,X,X,X,X,X,X,X,X,X,X,X,X,X,X,X,X,X,X",
",X,X,X,X,X,X,X,X,X,X,X,X,X,X,X,X,X,X,X,X,X>.:.u r i / L D r y y r a F ^ D $ ; g ,.,X,X,X,X,X,X,X,X,X,X,X,X,X,X,X,X,X,X,X,X,X,X,X",
",X,X,X,X,X,X,X,X,X,X,X,X,X,X,X,X,X,X,X,X,X>.=.y r i P P P y r r r F n.^ D $ ; g ,.,X,X,X,X,X,X,X,X,X,X,X,X,X,X,X,X,X,X,X,X,X,X,X",
",X,X,X,X,X,X,X,X,X,X,X,X,X,X,X,X,X,X,X,X,X-.=.r y i / S 1 ; g :.r ; ; ^ D $ ; g ,.,X,X,X,X,X,X,X,X,X,X,X,X,X,X,X,X,X,X,X,X,X,X,X",
",X,X,X,X,X,X,X,X,X,X,X,X,X,X,X,X,X,X,X,X,X>.=.; y i / S 2 s X.>.f i , P D $ ; g ,.,X,X,X,X,X,X,X,X,X,X,X,X,X,X,X,X,X,X,X,X,X,X,X",
",X,X,X,X,X,X,X,X,X,X,X,X,X,X,X,X,X,X,X,X,X>.-.; ; u ^ ^ / q.,X,X,.*./ / D % - g 5.,X,X,X,X,X,X,X,X,X,X,X,X,X,X,X,X,X,X,X,X,X,X,X",
",X,X,X,X,X,X,X,X,X,X,X,X,X,X,X,X,X,X,X,X,X,X,X%.%.%./ D 2 ,X,X,X,Xd 3 / D $ @.+.,X,X,X,X,X,X,X,X,X,X,X,X,X,X,X,X,X,X,X,X,X,X,X,X",
",X,X,X,X,X,X,X,X,X,X,X,X,X,X,X,X,X,X,X,X,X,X,X,.>.-./ p $ ,X,X,X,X,X& I U u >.,.,X,X,X,X,X,X,X,X,X,X,X,X,X,X,X,X,X,X,X,X,X,X,X,X",
",X,X,X,X,X,X,X,X,X,X,X,X,X,X,X,X,X,X,X,X,X,X,X5.,X,X,X$ = ,X,X,X,X,X= ,X,XH.9.-.,X,X,X,X,X,X,X,X,X,X,X,X,X,X,X,X,X,X,X,X,X,X,X,X",
",X,X,X,X,X,X,X,X,X,X,X,X,X,X,X,X,X,X,X,X,X,X,X,X,X,X,X$ = ,X,X,X,X,X= ,X,X,X,X,X,X,X,X,X,X,X,X,X,X,X,X,X,X,X,X,X,X,X,X,X,X,X,X,X",
",X,X,X,X,X,X,X,X,X,X,X,X,X,X,X,X,X,X,X,X,X,X,X,X,X,X,X- - ,X,X,X,X,X1 ,X,X,X,X,X,X,X,X,X,X,X,X,X,X,X,X,X,X,X,X,X,X,X,X,X,X,X,X,X",
",X,X,X,X,X,X,X,X,X,X,X,X,X,X,X,X,X,X,X,X,X,X,X,X,X,X,X^ ^ ,X,X,X,X,X/ ,X,X,X,X,X,X,X,X,X,X,X,X,X,X,X,X,X,X,X,X,X,X,X,X,X,X,X,X,X",
",X,X,X,X,X,X,X,X,X,X,X,X,X,X,X,X,X,X,X,X,X,X,X,X,X,X,XP P ,X,X,X,X,X/ ,X,X,X,X,X,X,X,X,X,X,X,X,X,X,X,X,X,X,X,X,X,X,X,X,X,X,X,X,X",
",X,X,X,X,X,X,X,X,X,X,X,X,X,X,X,X,X,X,X,X,X,X,X,X,X,X,XP P ,X,X,X,X,X/ ,X,X,X,X,X,X,X,X,X,X,X,X,X,X,X,X,X,X,X,X,X,X,X,X,X,X,X,X,X",
",X,X,X,X,X,X,X,X,X,X,X,X,X,X,X,X,X,X,X,X,X,X,X,X,X,X,XP P ,X,X,X,X,X/ ,X,X,X,X,X,X,X,X,X,X,X,X,X,X,X,X,X,X,X,X,X,X,X,X,X,X,X,X,X",
",X,X,X,X,X,X,X,X,X,X,X,X,X,X,X,X,X,X,X,X,X,X,X,X,X,X,XP P ,X,X,X,X,X/ ,X,X,X,X,X,X,X,X,X,X,X,X,X,X,X,X,X,X,X,X,X,X,X,X,X,X,X,X,X",
",X,X,X,X,X,X,X,X,X,X,X,X,X,X,X,X,X,X,X,X,X,X,X,X,X,X,XP P ,X,X,X,X,X/ ,X,X,X,X,X,X,X,X,X,X,X,X,X,X,X,X,X,X,X,X,X,X,X,X,X,X,X,X,X",
",X,X,X,X,X,X,X,X,X,X,X,X,X,X,X,X,X,X,X,X,X,X,X,X,X,X,XP / ,X,X,X,XP n.,X,X,X,X,X,X,X,X,X,X,X,X,X,X,X,X,X,X,X,X,X,X,X,X,X,X,X,X,X",
",X,X,X,X,X,X,X,X,X,X,X,X,X,X,X,X,X,X,X,X,X,X,X,X,X,X,X,X,X,X,X,X,X,X,X,X,X,X,X,X,X,X,X,X,X,X,X,X,X,X,X,X,X,X,X,X,X,X,X,X,X,X,X,X",
",X,X,X,X,X,X,X,X,X,X,X,X,X,X,X,X,X,X,X,X,X,X,X,X,X,X,X,X,X,X,X,X,X,X,X,X,X,X,X,X,X,X,X,X,X,X,X,X,X,X,X,X,X,X,X,X,X,X,X,X,X,X,X,X"
};
