/* XPM */
static char *result[] = {
/* columns rows colors chars-per-pixel */
"37 64 211 2 ",
"   c #060608",
".  c #0A0A0B",
"X  c #050606",
"o  c #150B0B",
"O  c #190D0D",
"+  c #160606",
"@  c #0F100F",
"#  c #120F10",
"$  c #0F1B18",
"%  c #091814",
"&  c #141414",
"*  c #1A1213",
"=  c #1E1917",
"-  c #111E19",
";  c #1C1B1B",
":  c #0F0F11",
">  c #211D1C",
",  c #2A1A1F",
"<  c #1B201E",
"1  c #23211E",
"2  c #1F1C22",
"3  c #1E2326",
"4  c #232323",
"5  c #262A2C",
"6  c #2C2B2B",
"7  c #282629",
"8  c #34262C",
"9  c #3C262D",
"0  c #3A282E",
"q  c #332426",
"w  c #2A2E31",
"e  c #2B3435",
"r  c #2E3B3A",
"t  c #2A3338",
"y  c #3C3D3C",
"u  c #323B3A",
"i  c #552B3A",
"p  c #463738",
"a  c #4D2D36",
"s  c #69283C",
"d  c #32403F",
"f  c #42403F",
"g  c #2B3C48",
"h  c #6D3548",
"j  c #6A3244",
"k  c #79364C",
"l  c #7E3850",
"z  c #1F4841",
"x  c #294B46",
"c  c #314B5C",
"v  c #344D51",
"b  c #3A5666",
"n  c #38596A",
"m  c #314F62",
"M  c #3E646F",
"N  c #474442",
"B  c #5D5C5A",
"V  c #565655",
"C  c #52504F",
"Z  c #674549",
"A  c #69454A",
"S  c #67454A",
"D  c #76474E",
"F  c #745869",
"G  c #48746F",
"H  c #497673",
"J  c #4B7E7C",
"K  c #47737C",
"L  c #6F7273",
"P  c #8A3953",
"I  c #993D5B",
"U  c #86304C",
"Y  c #A53B5F",
"T  c #A73F62",
"R  c #B23A63",
"E  c #CA3B6B",
"W  c #9E405F",
"Q  c #87525A",
"!  c #AB4D65",
"~  c #807E7A",
"^  c #B86A75",
"/  c #AB646F",
"(  c #D94878",
")  c #D8507B",
"_  c #C15172",
"`  c #E3467B",
"'  c #E84D7E",
"]  c #C8717E",
"[  c #CF667B",
"{  c #3F6B86",
"}  c #356B85",
"|  c #3C738B",
" . c #367189",
".. c #3F7F93",
"X. c #406E88",
"o. c #42738B",
"O. c #44788E",
"+. c #437690",
"@. c #467B91",
"#. c #477D99",
"$. c #547D95",
"%. c #B26887",
"&. c #EA5A85",
"*. c #F35183",
"=. c #D67A86",
"-. c #D77887",
";. c #D56D90",
":. c #ED6B89",
">. c #F8688F",
",. c #E8798E",
"<. c #F96990",
"1. c #F27C92",
"2. c #4A8396",
"3. c #4C8698",
"4. c #4D899A",
"5. c #458297",
"6. c #508E9E",
"7. c #569691",
"8. c #599C96",
"9. c #53969E",
"0. c #528E8C",
"q. c #618399",
"w. c #69899E",
"e. c #6D8A90",
"r. c #70A19A",
"t. c #4C97A3",
"y. c #4B9AA5",
"u. c #549AA6",
"i. c #579EA8",
"p. c #5A9EA9",
"a. c #578FA1",
"s. c #5AA4AD",
"d. c #5CA8AF",
"f. c #56A9A6",
"g. c #5CB1A9",
"h. c #5CA7B2",
"j. c #56AEB2",
"k. c #5EACB3",
"l. c #5BB1B4",
"z. c #5EB7BC",
"x. c #61AEB4",
"c. c #61B3B6",
"v. c #63B7B9",
"b. c #65BDBD",
"n. c #6ABDBD",
"m. c #77B7B2",
"M. c #6DABAB",
"N. c #65C0BF",
"B. c #69C4C2",
"V. c #6DCAC5",
"C. c #6DCDC9",
"Z. c #66C7C4",
"A. c #78C6C6",
"S. c #66D1CA",
"D. c #6DD2CC",
"F. c #71D5CD",
"G. c #74D6CE",
"H. c #74DBD1",
"J. c #77D8D1",
"K. c #6CDED3",
"L. c #77E0D6",
"P. c #77E2D9",
"I. c #79E5DB",
"U. c #7AE8DD",
"Y. c #6DE1D6",
"T. c #7DEEE3",
"R. c #8D8983",
"E. c #898987",
"W. c #949088",
"Q. c #92A9B7",
"!. c #89B6BB",
"~. c #8CA7AA",
"^. c #A7A9A4",
"/. c #B4ABA6",
"(. c #BCB8B1",
"). c #FF859B",
"_. c #FD8B9B",
"`. c #F78797",
"'. c #FF919F",
"]. c #FF8FA1",
"[. c #FF91A2",
"{. c #FF96A8",
"}. c #C3B2AB",
"|. c #8CC1BE",
" X c #B5C7BD",
".X c #96BBC1",
"XX c #8CB4C3",
"oX c #97DDD8",
"OX c #93CFCF",
"+X c #AFCBCC",
"@X c #81E3D8",
"#X c #A3E5DC",
"$X c #B7E9E2",
"%X c #CBCDC7",
"&X c #D8D2C7",
"*X c #D8DFDF",
"=X c #D9DBD7",
"-X c #C4DBDA",
";X c #C8ECE6",
":X c #C7F4E9",
">X c #D7FEF3",
",X c #E4EBE6",
"<X c #F5EDE2",
"1X c #E3F2EA",
"2X c #F5F3EB",
"3X c #FAF5EB",
"4X c #F4F5F2",
"5X c #FDFEF4",
"6X c #FFFFFD",
"7X c #F6FBFC",
"8X c None",
/* pixels */
"8X8X8X8X8X8X8X8X8X8X8X8X8X8X8X8X8X8X8X8X8X8X8X8X8X8X8X8X8X8X8X8X8X8X8X8X8X",
"8X8X8X8X8X8X8X8X8X8X8X8X8X8X8X8X8X8X8X8X8X8X8X8X8X8X8X8X8X8X8X8X8X8X8X8X8X",
"8X8X8X8X8X8X8X8X8X8X8X8X8X8X8X8X8X8X8X8X8X8X8X8X8X8X8X8X8X8X8X8X8X8X8X8X8X",
"8X8X8X8X8X8X8X8X8X8X8X8X8X8X8X8X8X8X8X8X8X8X8X8X8X8X8X8X8X8X8X8X8X8X8X8X8X",
"8X8X8X8X8X8X8X8X8X8X8X8X8X8X8X8X8X8X8X8X8X8X8X8X8X8X8X8X8X8X8X8X8X8X8X8X8X",
"8X8X8X8X8X8X8X8X8X8X8X8X8X8X8X8X8X8X8X8X8X8X8X8X8X8X8X8X8X8X8X8X8X8X8X8X8X",
"8X8X8X8X8X8X8X8X8X8X8X8X8X8X8X8X8X8X8X8X8X8X8X8X8X8X8X8X8X8X8X8X8X8X8X8X8X",
"8X8X8X8X8X8X8X8X8X8X8X8X8X8X8X8X8X8X8X8X8X8X8X8X8X8X8X8X8X8X8X8X8X8X8X8X8X",
"8X8X8X8X8X8X8X8X8X8X8X8X8X8X8X8X8X8X8X8X8X8X8X8X8X8X8X8X8X8X8X8X8X8X8X8X8X",
"8X8X8X8X8X8X8X8X8X8X8X8X8X8X8X8X8X8X8X8X8X8X8X8X8X8X8X8X8X8X8X8X8X8X8X8X8X",
"8X8X8X8X8X8X8X8X8X8X8X8X8X8X8X8X8X8X8X8X8X8X8X8X8X8X8X8X8X8X8X8X8X8X8X8X8X",
"8X8X8X8X8X8X8X8X8X8X8X8X8X8X8X8X8X8X8X8X8X8X8X8X8X8X8X8X8X8X8X8X8X8X8X8X8X",
"8X8X8X8X8X8X8X8X8X8X8X8X8X8X8X8X8X8X8X8X8X8X8X8X8X8X8X8X8X8X8X8X8X8X8X8X8X",
"8X8X8X8X8X8X8X8X8X8X8X8X8X8X8X8X8X8X8X8X8X8X8X8X8X8X8X8X8X8X8X8X8X8X8X8X8X",
"8X8X8X8X8X8X8X8X8X8X8X8X8X8X8X8X8X8X8X8X8X8X8X8X8X8X8X8X8X8X8X8X8X8X8X8X8X",
"8X8X8X8X8X8X8X8X8X8X8X8X8X8X8X8X8X8X8X8X8X8X8X8X8X8X8X8X8X8X8X8X8X8X8X8X8X",
"8X8X8X8X8X8X8X8X8X8X8X8X8X8X8X8X8X8X8X8X8X8X8X8X8X8X8X8X8X8X8X8X8X8X8X8X8X",
"8X8X8X8X8X8X8X8X8X8X8X8X8X8X8X8X8X8X8X8X8X8X8X8X8X8X8X8X8X8X8X8X8X8X8X8X8X",
"8X8X8X8X8X8X8X8X8X8X8X8X8X8X8X8X8X8X8X8X8X8X8X8X8X8X8X8X8X8X8X8X8X8X8X8X8X",
"8X8X8X8X8X8X8X8X8X8X8X8X8X8X8X8X8X8X8X8X8X8X8X8X8X8X8X8X8X8X8X8X8X8X8X8X8X",
"8X8X8X8X8X8X8X8X8X8X8X8X8X8X8X8X8X8X8X8X8X8X8X8X8X8X8X8X8X8X8X8X8X8X8X8X8X",
"8X8X8X8X8X8X8X< < < < ; ; ; ; ; 3 3 8X8X8X8X8X8X8X8X8X8X8X8X8X8X8X8X8X8X8X",
"8X8X8X8X8X8X9 i j A Z N S S S A A Z p 8X8X8X8X8X8X8X8X8X8X8X8X8X8X8X8X8X8X",
"8X8X8X8X8X% a T ( ;.=.`.=.=.-.;.-.] D < X 8X8X8X8X8X8X8X8X8X8X8X8X8X8X8X8X",
"8X8X8X8X7 9 h T ) <.].].1.].].[.{._./ p q 8X8X8X8X8X8X8X8X8X8X8X8X8X8X8X8X",
"8X8X8X$ j T T h k ! <.>.&.:.1.{.[._.,.] Q p $ 8X8X8X8X8X8X8X8X8X8X8X8X8X8X",
"8X8X< 8 P ( ! 0 7 P E ` E &.1.1.`.`.'._.^ p $ 8X8X8X8X8X8X8X8X8X8X8X8X8X8X",
"$ 8 j I T P j 8X8Xi U R &.*.&.:.`._.{.{.] p $ 8X8X8X8X8X8X8X8X8X8X8X8X8X8X",
"< 8 I ( W 0 - 8X8X$ 4 U ) *.` &.,.`.[.'.^ p $ 8X8X8X8X8X8X8X8X8X8X8X8X8X8X",
"$ 8 k W k 4 8X8X8X% @ a U Y E ` *.:.[ ! A q % . 8X8X8X8X8X8X8X8X8X8X8X8X8X",
"8X8X8 8 8 8X8X4 4 > = = , s R *.*.( U 9 > ; & = & & & ; 4 4 8X8X8X8X8X8X8X",
"8X8X8X< 8X8X8X> 5 g v x x C %.;.;.;.F x d x v V B B B N 6 1 8X8X8X8X8X8X8X",
"8X8X8X8X8X8X8X* e J g.g.g.g.!.!..X!.m.g.f.j.m. X&X=X&XW.y & 8X8X8X8X8X8X8X",
"8X8X8X8X8X8X8X* u 8.I.T.P.L.D.S.S.S.D.F.D.S.OX;X2X7X4X^.y . 8X8X8X8X8X8X8X",
"8X8X8X8X8X8X8X* r 8.P.T.L.C.s.y.t.y.t.u.y.u.p.~.Q.XXQ.L 4   X . ; 4 8X8X8X",
"8X8X8X8X8X8X8X* r 7.H.U.J.v.2.{ { o.o.X.o.| X.X.X.o.o.m e , 4 q 4 4 3 8X8X",
"8X8X8X8X8X8X8X* r 7.J.U.H.v.O.{ 2.u.u.i.u.u.9.u.y.y.t.w.E.W.R.~ C 4 & 8X8X",
"8X8X8X8X8X8X8X* r 7.H.U.H.c.@.O.k.F.G.F.F.F.F.F.F.S.C.oX,X4X4X=XL 4 . 8X8X",
"8X8X8X8X8X8X8X* r 7.H.U.H.c.@.@.v.L.F.b.N.H.H.V.N.S.H.oX-X,X6X3XW.7   8X8X",
"8X8X8X8X8X8X8X* r 7.H.U.H.v.@.@.v.G.x.2.s.C.V.9.2.c.G.N.a.~.,X<XR.7 . 8X8X",
"8X8X8X8X8X8X8X* r 7.G.U.H.c.@.@.v.F.u.X.4.V.B.2.{ s.F.j.} 4.*X<XR.4 . 8X8X",
"8X8X8X8X8X8X8X* r 7.H.U.H.c.@.@.v.F.s.X.6.V.B.6.| s.G.l.{ w.*X<XR.4 . 8X8X",
"8X8X8X8X8X8X8X* r 7.H.U.H.l.@.@.v.F.s.X.6.V.V.4.o.s.G.l.| w.*X<XR.4   8X8X",
"8X8X8X8X8X8X8X* r 7.H.U.H.v.@.@.v.F.s.{ 4.V.V.3.| s.G.l. .4.=X<XR.4 . 8X8X",
"8X8X8X8X8X8X8X* r 7.G.U.J.c.@.@.v.F.s.o.6.C.V.3.| s.F.l.| q.*X<XR.4 . 8X8X",
"8X8X8X8X8X8X8X* r 7.H.U.H.v.@.@.v.J.b.u.x.F.F.k.f.N.G.A.!.+X4X3XR.4   8X8X",
"8X8X8X8X8X8X8X* r 7.H.U.H.v.@.O.v.H.J.D.F.J.J.F.D.D.G.#X,X7X6X2XR.4   8X8X",
"8X8X8X8X8X8X8X* r 7.H.U.G.c.@.o.i.N.B.B.b.b.b.N.N.z.z.|.%X&X&X(.L > : 8X8X",
"8X8X8X8X8X8X8X* r 7.G.U.H.l.@.{ o.2.2.2.2.2.2.2.2.2.@.K B V V C y 4 ; 8X8X",
"8X8X8X8X8X8X8X* r 7.H.U.H.b.6.o.o.o.O.O.O.o.O.O.o.3.$.b 3 o & & ; 4 4 8X8X",
"8X8X8X8X8X8X8X* r 8.H.T.L.F.b.c.c.c.c.c.c.c.l.l.n.OX%X%.w . X 8X8X8X8X8X8X",
"8X8X8X8X8X8X8X* r 7.H.P.F.F.F.F.F.F.F.F.G.F.F.S.J.$X4X^.f @ 8X8X8X8X8X8X8X",
"8X8X8X8X8X8X8X= t K h.k.s.s.s.s.d.d.d.d.s.k.s.f.c.#X:X~.d o 8X8X8X8X8X8X8X",
"8X8X8X8X8X8X8X= 5 b o.+.o.o.o.o.o.o.o.o.o.o.| { O.c.J.8.u * 8X8X8X8X8X8X8X",
"8X8X8X8X8X8X8X= t M 4.6.3.3.3.4.4.4.3.4.4.4.5.5.6.A.oXr.d O 8X8X8X8X8X8X8X",
"8X8X8X8X8X8X8X* e 0.B.C.B.B.B.B.N.B.B.B.N.B.N.N.A.$X1X^.d O 8X8X8X8X8X8X8X",
"8X8X8X8X8X8X8X* r 8.P.T.H.L.L.L.L.L.L.L.L.L.L.K.@X>X5X/.N : 8X8X8X8X8X8X8X",
"8X8X8X8X8X8X8X* r 8.P.T.P.P.I.U.U.U.U.U.U.U.P.K.@X>X6X}.f . 8X8X8X8X8X8X8X",
"8X8X8X8X8X8X8X* r 7.D.H.F.F.V.V.V.V.V.V.V.V.V.S.G.;X2X/.f @ 8X8X8X8X8X8X8X",
"8X8X8X8X8X8X8X= e K h.z.s.9.J G H H H H H G J 9.k.XX(.$.u & 8X8X8X8X8X8X8X",
"8X8X8X8X8X8X8X= w b O.#.+.n t 4 4 4 4 7 4 4 t n +.#.O.b w = 8X8X8X8X8X8X8X",
"8X8X8X8X8X8X8X> 5 g c m c g 2 + o O O O + + 1 g c m c g 5 > 8X8X8X8X8X8X8X",
"8X8X8X8X8X8X8X4 4 5 5 5 5 7 8X8X8X8X8X8X8X8X8X5 5 5 3 3 4 4 8X8X8X8X8X8X8X",
"8X8X8X8X8X8X8X4 4 > = > = > 8X8X8X8X8X8X8X8X8X> ; > = 3 4 4 8X8X8X8X8X8X8X"
};
