/* XPM */
static char *result[] = {
/* columns rows colors chars-per-pixel */
"37 64 209 2 ",
"   c #060405",
".  c #060608",
"X  c #0B0B0C",
"o  c #070A08",
"O  c #130E0E",
"+  c #01100B",
"@  c #14100F",
"#  c #0E1C18",
"$  c #0B1A15",
"%  c #141414",
"&  c #1A1113",
"*  c #131D19",
"=  c #1C1B1B",
"-  c #191818",
";  c #180F10",
":  c #211C1C",
">  c #2F181E",
",  c #18201E",
"<  c #3F1D27",
"1  c #1F2121",
"2  c #232323",
"3  c #25292C",
"4  c #2B2A2B",
"5  c #282527",
"6  c #34252A",
"7  c #272F30",
"8  c #292F31",
"9  c #233532",
"0  c #2A3534",
"q  c #2C3837",
"w  c #2E3B3A",
"e  c #2D3539",
"r  c #313B3A",
"t  c #3C3D3B",
"y  c #383736",
"u  c #4B1E2B",
"i  c #482C36",
"p  c #5A2B3B",
"a  c #433234",
"s  c #473A3B",
"d  c #56353E",
"f  c #43262E",
"g  c #3D403F",
"h  c #303F40",
"j  c #5E3040",
"k  c #653344",
"l  c #6B3346",
"z  c #663F48",
"x  c #77364C",
"c  c #7F3850",
"v  c #2B4656",
"b  c #334C5B",
"n  c #365465",
"m  c #3B5D6C",
"M  c #395363",
"N  c #3B5F73",
"B  c #3A666D",
"V  c #464545",
"C  c #674549",
"Z  c #68464A",
"A  c #67454A",
"S  c #7B4C54",
"D  c #62615E",
"F  c #436A6C",
"G  c #456171",
"H  c #6A6967",
"J  c #716F6C",
"K  c #787877",
"L  c #73706D",
"P  c #893954",
"I  c #963A59",
"U  c #80364F",
"Y  c #A6355C",
"T  c #BA3D68",
"R  c #845259",
"E  c #94435C",
"W  c #B9436B",
"Q  c #837F79",
"!  c #AC646F",
"~  c #B96A75",
"^  c #CA4673",
"/  c #D44677",
"(  c #D34C78",
")  c #DA4879",
"_  c #C55173",
"`  c #E1477C",
"'  c #E2537F",
"]  c #C9727E",
"[  c #D1677F",
"{  c #3F6C87",
"}  c #386B86",
"|  c #38728A",
" . c #416E8A",
".. c #406D87",
"X. c #42728B",
"o. c #4A758E",
"O. c #477B8B",
"+. c #467C91",
"@. c #4A7D94",
"#. c #457691",
"$. c #527A84",
"%. c #EC4E83",
"&. c #EA5A85",
"*. c #F95289",
"=. c #D47485",
"-. c #D67A86",
";. c #DB7C8C",
":. c #ED6D8C",
">. c #F8678F",
",. c #E8798E",
"<. c #F27891",
"1. c #FD6490",
"2. c #4E8683",
"3. c #518C87",
"4. c #558B8A",
"5. c #4E968D",
"6. c #53938D",
"7. c #4B8396",
"8. c #4B8598",
"9. c #458B9B",
"0. c #4E8B9B",
"q. c #488797",
"w. c #508F9E",
"e. c #569691",
"r. c #559892",
"t. c #51919F",
"y. c #589B95",
"u. c #63849A",
"i. c #6A8A9E",
"p. c #7E909F",
"a. c #729190",
"s. c #66A099",
"d. c #5394A2",
"f. c #569EA8",
"g. c #5C9FAA",
"h. c #4992A2",
"j. c #6C99A8",
"k. c #5AA3AC",
"l. c #5CA9AF",
"z. c #5CADB5",
"x. c #57AFB3",
"c. c #5DB1B5",
"v. c #5AB3B6",
"b. c #61B3B7",
"n. c #63B7B9",
"m. c #64BABB",
"M. c #6BB8BB",
"N. c #7AA4B1",
"B. c #6BBBC0",
"V. c #64C2C2",
"C. c #6AC6C3",
"Z. c #6CCAC6",
"A. c #6ECEC9",
"S. c #64CBC6",
"D. c #73C4C3",
"F. c #6CD2CB",
"G. c #67D2CB",
"H. c #71D5CD",
"J. c #76D7CF",
"K. c #71D6D0",
"L. c #74DAD1",
"P. c #7DDDD4",
"I. c #6BD9D0",
"U. c #77E1D5",
"Y. c #79E5DC",
"T. c #7AE8DD",
"R. c #77E3DA",
"E. c #7BEDE0",
"W. c #7EF1E7",
"Q. c #8D8883",
"!. c #99ACB8",
"~. c #90ACAE",
"^. c #A5ACA5",
"/. c #B4A9A5",
"(. c #B9B3AA",
"). c #B9B6B2",
"_. c #FF859B",
"`. c #FD8B9B",
"'. c #F78797",
"]. c #FF919F",
"[. c #FF8FA1",
"{. c #FF91A2",
"}. c #FF96A8",
"|. c #C9C5BD",
" X c #99BBC3",
".X c #A2B8C2",
"XX c #86DDD5",
"oX c #98D1CD",
"OX c #B4C3CB",
"+X c #B5C8D5",
"@X c #9CE1D9",
"#X c #A7E4DD",
"$X c #B0E8E1",
"%X c #D5D5CC",
"&X c #D7DDDD",
"*X c #DADDDD",
"=X c #DFE4D9",
"-X c #E3E0D5",
";X c #D4EAE4",
":X c #C8F3EA",
">X c #DBF8EC",
",X c #EBEBE6",
"<X c #F4ECE1",
"1X c #FAF4EB",
"2X c #F9F1E6",
"3X c #FFFFFE",
"4X c #FBFBF2",
"5X c #EDF3F0",
"6X c None",
/* pixels */
"6X6X6X6X6X6X6X6X6X6X6X6X6X6X6X6X6X6X6X6X6X6X6X6X6X6X6X6X6X6X6X6X6X6X6X6X6X",
"6X6X6X6X6X6X6X6X6X6X6X6X6X6X6X6X6X6X6X6X6X6X6X6X6X6X6X6X6X6X6X6X6X6X6X6X6X",
"6X6X6X6X6X6X6X6X6X6X6X6X6X6X6X6X6X6X6X6X6X6X6X6X6X6X6X6X6X6X6X6X6X6X6X6X6X",
"6X6X6X6X6X6X6X6X6X6X6X6X6X6X6X6X6X6X6X6X6X6X6X6X6X6X6X6X6X6X6X6X6X6X6X6X6X",
"6X6X6X6X6X6X6X6X6X6X6X6X6X6X6X6X6X6X6X6X6X6X6X6X6X6X6X6X6X6X6X6X6X6X6X6X6X",
"6X6X6X6X6X6X6X6X6X6X6X6X6X6X6X6X6X6X6X6X6X6X6X6X6X6X6X6X6X6X6X6X6X6X6X6X6X",
"6X6X6X6X6X6X6X6X6X6X6X6X6X6X6X6X6X6X6X6X6X6X6X6X6X6X6X6X6X6X6X6X6X6X6X6X6X",
"6X6X6X6X6X6X6X6X6X6X6X6X6X6X6X6X6X6X6X6X6X6X6X6X6X6X6X6X6X6X6X6X6X6X6X6X6X",
"6X6X6X6X6X6X6X6X6X6X6X6X6X6X6X6X6X6X6X6X6X6X6X6X6X6X6X6X6X6X6X6X6X6X6X6X6X",
"6X6X6X6X6X6X6X6X6X6X6X6X6X6X6X6X6X6X6X6X6X6X6X6X6X6X6X6X6X6X6X6X6X6X6X6X6X",
"6X6X6X6X6X6X6X6X6X6X6X6X6X6X6X6X6X6X6X6X6X6X6X6X6X6X6X6X6X6X6X6X6X6X6X6X6X",
"6X6X6X6X6X6X6X6X6X6X6X6X6X6X6X6X6X6X6X6X6X6X6X6X6X6X6X6X6X6X6X6X6X6X6X6X6X",
"6X6X6X6X6X6X6X6X6X6X6X6X6X6X6X6X6X6X6X6X6X6X6X6X6X6X6X6X6X6X6X6X6X6X6X6X6X",
"6X6X6X6X6X6X6X6X6X6X6X6X6X6X6X6X6X6X6X6X6X6X6X6X6X6X6X6X6X6X6X6X6X6X6X6X6X",
"6X6X6X6X6X6X6X6X6X6X6X6X6X6X6X6X6X6X6X6X6X6X6X6X6X6X6X6X6X6X6X6X6X6X6X6X6X",
"6X6X6X6X6X6X6X6X6X6X6X6X6X6X6X6X6X6X6X6X6X6X6X6X6X6X6X6X6X6X6X6X6X6X6X6X6X",
"6X6X6X6X6X6X6X6X6X6X6X6X6X6X6X6X6X6X6X6X6X6X6X6X6X6X6X6X6X6X6X6X6X6X6X6X6X",
"6X6X6X6X6X6X6X6X6X6X6X6X6X6X6X6X6X6X6X6X6X6X6X6X6X6X6X6X6X6X6X6X6X6X6X6X6X",
"6X6X6X# 6X6X6X6X6X6X6X6X6X6X6X6X6X6X6X6X6X6X6X6X6X6X6X6X6X6X6X6X6X6X6X6X6X",
"6X6X2 5 2 6X6X6X6X6X6X6X6X6X6X6X6X6X6X6X6X6X6X6X6X6X6X6X6X6X6X6X6X6X6X6X6X",
", 6 k P k 2 6X6X6X6X6X6X6X6X6X6X6X6X6X6X6X6X6X6X6X6X6X6X6X6X6X6X6X6X6X6X6X",
"# 6 I ) I 5 # * = * = * = = = = 1 = 6X6X6X6X6X6X6X6X6X6X6X6X6X6X6X6X6X6X6X",
"# 6 U W I l j k k A Z Z Z A A A Z A s 6X6X6X6X6X6X6X6X6X6X6X6X6X6X6X6X6X6X",
"6X6X6 i P W / ^ ^ =.-.-.-.-.-.-.-.=.S 1 + 6X6X6X6X6X6X6X6X6X6X6X6X6X6X6X6X",
"6X6X6X, l W ) ^ ( :._._._._.`.{.}.`.! d 6 6X6X6X6X6X6X6X6X6X6X6X6X6X6X6X6X",
"6X6X6X6Xi d l j x _ 1.1.&.:._.].[.'.'.~ R a # 6X6X6X6X6X6X6X6X6X6X6X6X6X6X",
"6X6X6X6X6X, , # 6 P ( ` ) &.<.'.'.'.'.[.~ i * 6X6X6X6X6X6X6X6X6X6X6X6X6X6X",
"6X6X6X6X6X6X6X6X1 p x T ` %.&.:.'.'.}.}.] s # 6X6X6X6X6X6X6X6X6X6X6X6X6X6X",
"6X6X6X6X6X6X6X6X6X# 5 U / %.) ' ,.'.[.[.! i # 6X6X6X6X6X6X6X6X6X6X6X6X6X6X",
"6X6X6X6X6X6X6X6X6X6X* d P W / %.>.:.=.! R a 6X6X6X6X6X6X6X6X6X6X6X6X6X6X6X",
"6X6X6X6X6X6X6X6X6X6X6X6X6 l ^ *.*.%.E a 5 6X6X6X6X6X6X6X6X6X6X6X6X6X6X6X6X",
"6X6X6X6X6X6X6X6X6X6X6X+ $ f I T T Y p - + 6X6X6X6X6X6X6X6X6X6X6X6X6X6X6X6X",
"6X6X6X6X6X6X6X2 : : ; % & : < u u u > & O ; ; O X X X = 2 2 6X6X6X6X6X6X6X",
"6X6X6X6X6X6X6X1 3 0 0 e 0 9 9 9 9 9 9 q q q r r g s t y 3 2 6X6X6X6X6X6X6X",
"6X6X6X6X6X6X6X= 0 F e.y.6.6.6.5.5.5.5.r.r.r.s.^.(.).(.Q y % 6X6X6X6X6X6X6X",
"6X6X6X6X6X6X6X& r e.L.Y.L.K.K.K.K.K.K.H.I.G.XX;X4X3X4X/.h @ 6X6X6X6X6X6X6X",
"6X6X6X6X6X6X6X& r y.T.XXY.K.B.b.c.z.z.z.z.x.M..XOX+XOXa.8 .   6X6X6X6X6X6X",
"6X6X6X6X6X6X6X& r e.U.W.L.m.8.| X.X.X.X.X.X. .o.o.@.@.V 2 ; % - , 2 2 6X6X",
"6X6X6X6X6X6X6X& w e.I.E.L.b.+.{ O.0.0.0.0.0.8.9.9.9.9.o.H H D D V 5 = 6X6X",
"6X6X6X6X6X6X6X& w e.L.T.L.b.+.X.k.C.A.Z.C.V.C.C.C.V.m.oX%X-X*X%XL 2 X 6X6X",
"6X6X6X6X6X6X6X& w e.L.T.L.b.+.+.b.L.J.A.F.J.J.F.Z.G.L.@X>X4X3X2XQ.5 . 6X6X",
"6X6X6X6X6X6X6X& w e.J.T.L.b.+.O.m.L.m.t.l.H.H.k.d.m.L.D.N..X5X2XQ.2 . 6X6X",
"6X6X6X6X6X6X6X& r e.L.T.L.b.+.+.n.H.k...0.A.C.0.X.k.H.x.| u.*X<XQ.2 o 6X6X",
"6X6X6X6X6X6X6X& r e.K.T.L.b.+.+.n.H.k.{ 0.Z.C.7.{ k.H.x.} 0.*X<XQ.2 o 6X6X",
"6X6X6X6X6X6X6X& w e.L.T.L.b.+.+.n.H.k...w.A.C.0.#.z.F.c.| i.&X<XQ.5 . 6X6X",
"6X6X6X6X6X6X6X& w e.K.T.L.b.+.+.n.H.k...0.Z.C.0.{ k.H.v.| u.&X<XQ.2 X 6X6X",
"6X6X6X6X6X6X6X& w e.L.T.L.n.O.+.n.H.g.{ 0.Z.C.7.{ k.K.x.| u.&X<XQ.2 . 6X6X",
"6X6X6X6X6X6X6X& w e.L.T.L.c.+.+.m.J.n.0.k.H.A.k.w.c.L.B.j.!.,X2XQ.5 o 6X6X",
"6X6X6X6X6X6X6X& r e.L.T.L.b.@.+.n.U.H.C.A.J.J.A.C.G.L.@X;X5X3X2XQ.2 . 6X6X",
"6X6X6X6X6X6X6X& w e.L.T.L.b.@.X.l.Z.F.A.A.Z.Z.Z.A.S.Z.oX=X<X,X%XK 5 X 6X6X",
"6X6X6X6X6X6X6X& w e.L.T.L.b.+.{ 7.w.d.t.t.t.t.t.d.h.9.4.K K K J V 5 - 6X6X",
"6X6X6X6X6X6X6X& w e.L.Y.L.b.7.{ { X.X...X.X.X.X.X.X.O.M 3 - : 1 2 2 2 6X6X",
"6X6X6X6X6X6X6X& w y.L.E.L.A.c.g.g.g.f.k.f.f.f.k.g.~.!.K 3   . o - 2 6X6X6X",
"6X6X6X6X6X6X6X& w y.L.E.L.L.H.H.H.H.H.A.H.H.F.G.K.:X1X/.h X 6X6X6X6X6X6X6X",
"6X6X6X6X6X6X6X& e 2.n.B.b.n.m.m.m.m.m.m.m.m.m.v.B.$X>X^.V O 6X6X6X6X6X6X6X",
"6X6X6X6X6X6X6X: 9 n +.@.+.+.+.O.+.+.+.+.+.+.+.X.8.B.XXs.r ; 6X6X6X6X6X6X6X",
"6X6X6X6X6X6X6X& 8 m 7.q.#.+.+.+.O.+.O.+.+.+.+.| 7.B.XXs.r ; 6X6X6X6X6X6X6X",
"6X6X6X6X6X6X6X; 8 2.B.B.c.c.b.b.b.b.c.n.b.c.c.x.M.$X>X^.t X 6X6X6X6X6X6X6X",
"6X6X6X6X6X6X6X= h e.L.R.L.L.L.L.L.L.L.L.L.L.L.I.P.:X1X/.V % 6X6X6X6X6X6X6X",
"6X6X6X6X6X6X8 v N 7.z.A.Y.E.T.T.T.T.T.T.T.T.T.E.E.oX!.p.G v 9 6X6X6X6X6X6X",
"6X6X6X6X6X: h N | { #.k.H.L.L.L.K.K.L.L.L.L.L.P.H.k.#. .X.N h : 6X6X6X6X6X",
"6X6X6X6X6X: e b m b b F 3.6.3.6.3.3.3.3.3.3.3.6.2.B v v n b e : 6X6X6X6X6X",
"6X6X6X6X6X2 5 3 7 3 3 4 e 0 0 0 0 0 0 0 0 0 e 0 e 8 7 3 3 3 5 2 6X6X6X6X6X",
"6X6X6X6X6X1 2 : : - : & & & ; ; & & ; & & & & & ; & = = = = 2 2 6X6X6X6X6X"
};
