/* XPM */
static char *result[] = {
/* columns rows colors chars-per-pixel */
"37 64 206 2 ",
"   c #060608",
".  c #0A0A0B",
"X  c #050806",
"o  c #190D0D",
"O  c #150A0A",
"+  c #00110E",
"@  c #0F0F11",
"#  c #120F10",
"$  c #0A1514",
"%  c #0A1A16",
"&  c #0D1C18",
"*  c #041B13",
"=  c #141414",
"-  c #1A1214",
";  c #111D19",
":  c #1D1A1A",
">  c #1E1917",
",  c #211C1C",
"<  c #19201E",
"1  c #22201E",
"2  c #1F1C22",
"3  c #331D23",
"4  c #2E1C20",
"5  c #1E2326",
"6  c #242324",
"7  c #24272A",
"8  c #252A2D",
"9  c #2B2829",
"0  c #33252A",
"q  c #3C262D",
"w  c #2A2F31",
"e  c #2B3435",
"r  c #2E3B3A",
"t  c #2A3338",
"y  c #333B3B",
"u  c #3C3D3C",
"i  c #482C36",
"p  c #502031",
"a  c #473739",
"s  c #42403F",
"d  c #2B3C49",
"f  c #5C3841",
"g  c #623142",
"h  c #743449",
"j  c #7A2D46",
"k  c #294D47",
"l  c #2B4D48",
"z  c #344D4B",
"x  c #324240",
"c  c #37514E",
"v  c #314B5C",
"b  c #344E55",
"n  c #3A5666",
"m  c #38596A",
"M  c #314F62",
"N  c #3E646F",
"B  c #474442",
"V  c #52504F",
"C  c #5D5C5A",
"Z  c #575654",
"A  c #6D484D",
"S  c #47736E",
"D  c #497673",
"F  c #4B7D7C",
"G  c #47737C",
"H  c #6F7273",
"J  c #853A53",
"K  c #8A3954",
"L  c #9D3356",
"P  c #85304D",
"I  c #A23D5F",
"U  c #A83E63",
"Y  c #89555C",
"T  c #86535A",
"R  c #874B59",
"E  c #935963",
"W  c #BE436D",
"Q  c #B5466A",
"!  c #AF4066",
"~  c #807E7A",
"^  c #BD6D79",
"/  c #AA626D",
"(  c #DB4679",
")  c #D9497A",
"_  c #D64477",
"`  c #D04B77",
"'  c #E24A7E",
"]  c #E0517F",
"[  c #C3697B",
"{  c #3F6B86",
"}  c #356B85",
"|  c #3C738B",
" . c #367189",
".. c #3F7F93",
"X. c #406E88",
"o. c #42738B",
"O. c #44788E",
"+. c #437690",
"@. c #467B91",
"#. c #477D99",
"$. c #547D95",
"%. c #E65682",
"&. c #F45588",
"*. c #F04F84",
"=. c #DA7987",
"-. c #E96989",
";. c #F7658E",
":. c #E9778D",
">. c #FC7C98",
",. c #4A8396",
"<. c #4C8698",
"1. c #4D899A",
"2. c #458297",
"3. c #508E9E",
"4. c #569691",
"5. c #599C96",
"6. c #53969D",
"7. c #528E8C",
"8. c #618399",
"9. c #69899E",
"0. c #6E8A90",
"q. c #70A19A",
"w. c #4F8FA1",
"e. c #5E8FA0",
"r. c #4B99A5",
"t. c #549AA6",
"y. c #569DA8",
"u. c #5A9EA9",
"i. c #5AA4AD",
"p. c #5CA8AF",
"a. c #5BA9A8",
"s. c #5DB2A9",
"d. c #5EB0A7",
"f. c #5CA7B2",
"g. c #5EACB3",
"h. c #56AFB3",
"j. c #5BB1B4",
"k. c #5EB7BC",
"l. c #62B3AB",
"z. c #61AEB4",
"x. c #61B3B6",
"c. c #63B7B9",
"v. c #65BDBD",
"b. c #6ABDBD",
"n. c #72AEAD",
"m. c #65C0BF",
"M. c #69C4C2",
"N. c #6DCAC5",
"B. c #6DCEC9",
"V. c #66C7C3",
"C. c #78C6C6",
"Z. c #6DD2CC",
"A. c #67D0C9",
"S. c #71D5CD",
"D. c #74D6CE",
"F. c #74DBD1",
"G. c #75D8D1",
"H. c #6CDED3",
"J. c #77E0D6",
"K. c #77E2D9",
"L. c #79E5DB",
"P. c #7AE8DD",
"I. c #6DE1D6",
"U. c #7DEEE2",
"Y. c #8D8983",
"T. c #898987",
"R. c #949088",
"E. c #92A9B7",
"W. c #8BAAAF",
"Q. c #A7A9A4",
"!. c #B4ABA6",
"~. c #BCB8B1",
"^. c #EC8392",
"/. c #F58395",
"(. c #FC8C9C",
"). c #F98499",
"_. c #FF93A5",
"`. c #FF97A8",
"'. c #C3B2AB",
"]. c #8CC1BE",
"[. c #B5C7BE",
"{. c #91B4C2",
"}. c #97DDD8",
"|. c #93CFCF",
" X c #AFCBCC",
".X c #81E3D8",
"XX c #A3E5DC",
"oX c #B7E9E2",
"OX c #CBCDC7",
"+X c #D8D2C7",
"@X c #D8DFDF",
"#X c #D9DBD7",
"$X c #C4DBDA",
"%X c #C8ECE6",
"&X c #C7F4E9",
"*X c #D7FEF3",
"=X c #E4EBE6",
"-X c #F5EDE2",
";X c #E3F2EA",
":X c #F5F3EB",
">X c #FAF5EB",
",X c #F4F5F2",
"<X c #FDFEF4",
"1X c #FFFFFD",
"2X c #F6FBFC",
"3X c None",
/* pixels */
"3X3X3X3X3X3X3X3X3X3X3X3X3X3X3X3X3X3X3X3X3X3X3X3X3X3X3X3X3X3X3X3X3X3X3X3X3X",
"3X3X3X3X3X3X3X3X3X3X3X3X3X3X3X3X3X3X3X3X3X3X3X3X3X3X3X3X3X3X3X3X3X3X3X3X3X",
"3X3X3X3X3X3X3X3X3X3X3X3X3X3X3X3X3X3X3X3X3X3X3X3X3X3X3X3X3X3X3X3X3X3X3X3X3X",
"3X3X3X3X3X3X3X3X3X3X3X3X3X3X3X3X3X3X3X3X3X3X3X3X3X3X3X3X3X3X3X3X3X3X3X3X3X",
"3X3X3X3X3X3X3X3X3X3X3X3X3X3X3X3X3X3X3X3X3X3X3X3X3X3X3X3X3X3X3X3X3X3X3X3X3X",
"3X3X3X3X3X3X3X3X3X3X3X3X3X3X3X3X3X3X3X3X3X3X3X3X3X3X3X3X3X3X3X3X3X3X3X3X3X",
"3X3X3X3X3X3X3X3X3X3X3X3X3X3X3X3X3X3X3X3X3X3X3X3X3X3X3X3X3X3X3X3X3X3X3X3X3X",
"3X3X3X3X3X3X3X3X3X3X3X3X3X3X3X3X3X3X3X3X3X3X3X3X3X3X3X3X3X3X3X3X3X3X3X3X3X",
"3X3X3X3X3X3X3X3X3X3X3X3X3X3X3X3X3X3X3X3X3X3X3X3X3X3X3X3X3X3X3X3X3X3X3X3X3X",
"3X3X3X3X3X3X3X3X3X3X3X3X3X3X3X3X3X3X3X3X3X3X3X3X3X3X3X3X3X3X3X3X3X3X3X3X3X",
"3X3X3X3X3X3X3X3X3X3X3X3X3X3X3X3X3X3X3X3X3X3X3X3X3X3X3X3X3X3X3X3X3X3X3X3X3X",
"3X3X3X3X3X3X3X3X3X3X3X3X3X3X3X3X3X3X3X3X3X3X3X3X3X3X3X3X3X3X3X3X3X3X3X3X3X",
"3X3X3X3X3X3X3X3X3X3X3X3X3X3X3X3X3X3X3X3X3X3X3X3X3X3X3X3X3X3X3X3X3X3X3X3X3X",
"3X3X3X3X3X3X3X3X3X3X3X3X3X3X3X3X3X3X3X3X3X3X3X3X3X3X3X3X3X3X3X3X3X3X3X3X3X",
"3X3X3X3X3X3X3X3X3X3X3X3X3X3X3X3X3X3X3X3X3X3X3X3X3X3X3X3X3X3X3X3X3X3X3X3X3X",
"3X3X3X3X3X3X3X3X3X3X3X3X3X3X3X3X3X3X3X3X3X3X3X3X3X3X3X3X3X3X3X3X3X3X3X3X3X",
"3X3X3X3X3X3X3X3X3X3X3X3X3X3X3X3X3X3X3X3X3X3X3X3X3X3X3X3X3X3X3X3X3X3X3X3X3X",
"3X3X3X3X3X3X3X3X3X3X3X3X3X3X3X3X3X3X3X3X3X3X3X3X3X3X3X3X3X3X3X3X3X3X3X3X3X",
"3X3X3X& & & & & & % $ $ % % $ $ % $ 3X3X3X3X3X3X3X3X3X3X3X3X3X3X3X3X3X3X3X",
"3X3X6 6 9 6 6 6 6 6 6 7 6 6 6 9 9 6 6 3X3X3X3X3X3X3X3X3X3X3X3X3X3X3X3X3X3X",
"; 0 g K K J J P J T Y Y Y T T Y E A f 3X3X3X3X3X3X3X3X3X3X3X3X3X3X3X3X3X3X",
"; 0 K ) %.( ) ) ) :.^.^.^.^.^.^.(.:.T 6 + 3X3X3X3X3X3X3X3X3X3X3X3X3X3X3X3X",
"& 0 h Q W Q U U W :.>.>.>.>.(._.`.(.^ A a 3X3X3X3X3X3X3X3X3X3X3X3X3X3X3X3X",
"3X3Xq i i i i q g Q &.&.] -.).(.(.(./.=.E i ; 3X3X3X3X3X3X3X3X3X3X3X3X3X3X",
"3X3X3X; < ; & * 9 P W _ ( ] -.)././.`._.[ s ; 3X3X3X3X3X3X3X3X3X3X3X3X3X3X",
"3X3X3X3X3X3X3X3X3Xq g U ' *.%.-.>.(.`._.[ a ; 3X3X3X3X3X3X3X3X3X3X3X3X3X3X",
"3X3X3X3X3X3X3X3X3X* 2 h ` _ ' ] -.).(.^./ i & 3X3X3X3X3X3X3X3X3X3X3X3X3X3X",
"3X3X3X3X3X3X3X3X3X3X3Xi h I _ &.;.-.[ T A 3X3X3X3X3X3X3X3X3X3X3X3X3X3X3X3X",
"3X3X3X3X3X3X3X3X3X3X3X3X< g W ' &.( K 9 ; 3X3X3X3X3X3X3X3X3X3X3X3X3X3X3X3X",
"3X3X3X3X3X3X3X3X3X3X3XX $ q j L L P p = X 3X3X3X3X3X3X3X3X3X3X3X3X3X3X3X3X",
"3X3X3X3X3X3X3X6 6 , > > - , , 3 3 3 , - > > = : = = = , 6 6 3X3X3X3X3X3X3X",
"3X3X3X3X3X3X3X1 8 x c c z z z k z l z z c c c Z C C C B w , 3X3X3X3X3X3X3X",
"3X3X3X3X3X3X3X> e F l.c.l.a.d.s.s.a.d.z.s.s.n.[.+X#X+XR.u = 3X3X3X3X3X3X3X",
"3X3X3X3X3X3X3Xo y 5.L.U.K.F.S.S.S.S.S.S.Z.A.}.@X:X2X,XQ.u # 3X3X3X3X3X3X3X",
"3X3X3X3X3X3X3X- r 5.K..XK.B.p.t.t.t.t.t.r.r.u.n.E.{.E.H 6     . : 6 3X3X3X",
"3X3X3X3X3X3X3X- r 4.F.P.F.c.2.{ { o.o.X.o.+.o.{ { o.| n w , 6 6 6 6 2 3X3X",
"3X3X3X3X3X3X3X- r 4.G.P.F.x.@.{ ,.t.t.u.y.t.6.t.r.r.r.9.T.R.T.~ V 7 = 3X3X",
"3X3X3X3X3X3X3X- r 4.G.P.F.c.@.O.g.S.S.S.B.S.S.S.S.A.N.}.=X:X,X#XH 6 . 3X3X",
"3X3X3X3X3X3X3X- r 4.G.P.F.c.@.@.c.F.S.v.N.F.F.N.m.N.F.}.$X=X1X>XR.6 X 3X3X",
"3X3X3X3X3X3X3X= r 4.F.P.D.x.@.@.c.F.z.<.t.B.N.t.<.j.D.m.e.E.=X-XY.6 . 3X3X",
"3X3X3X3X3X3X3X- r 4.D.P.F.x.@.@.c.S.u.{ 1.N.N.<.{ i.S.h.} 1.#X-XY.6 . 3X3X",
"3X3X3X3X3X3X3X- r 4.F.P.F.c.@.@.c.F.u.X.1.B.N.<.| i.S.j.{ 9.@X-XY.6 . 3X3X",
"3X3X3X3X3X3X3X- r 4.F.P.F.c.@.@.c.S.a.o.w.N.N.1.o.p.F.j.| 9.@X-XY.6 . 3X3X",
"3X3X3X3X3X3X3X- r 4.F.P.F.j.@.@.c.S.t.{ 1.N.N.<.{ a.S.h.} 1.@X-XY.6 . 3X3X",
"3X3X3X3X3X3X3X- r 4.D.P.D.c.@.@.c.S.i.o.3.N.N.1.| a.Z.j. .9.@X-XY.6 . 3X3X",
"3X3X3X3X3X3X3X- r 4.F.P.F.c.@.@.c.F.v.y.g.S.S.g.i.m.F.C.E. X,X>XY.6 . 3X3X",
"3X3X3X3X3X3X3X- r 4.F.L.F.c.@.@.c.F.G.B.Z.G.G.S.Z.Z.F.XX;X2X1X:XY.6   3X3X",
"3X3X3X3X3X3X3X- r 4.F.L.F.x.@.o.t.v.M.M.M.v.v.b.m.k.k.].OX+XOX~.H , . 3X3X",
"3X3X3X3X3X3X3X- r 4.G.P.F.x.@.{ o.,.,.,.,.,.2.,.,.2...G C Z Z V u 7 : 3X3X",
"3X3X3X3X3X3X3X- r 4.F.P.F.v.1.o.o.o.O.O.O.O.O.O.O.$.$.n 6 # = = : 2 6 3X3X",
"3X3X3X3X3X3X3X- r 5.F.U.F.S.v.c.x.x.x.x.x.l.j.j.x. XOX~ w X   3X3X3X3X3X3X",
"3X3X3X3X3X3X3X- r 4.F.K.S.S.S.S.S.D.S.D.S.S.S.Z.G.&X<X!.B . 3X3X3X3X3X3X3X",
"3X3X3X3X3X3X3X- e G i.f.i.i.i.p.p.p.p.p.p.p.i.i.z.}.&XW.u # 3X3X3X3X3X3X3X",
"3X3X3X3X3X3X3X> 8 m o.+.o.o.o.o.o.o.o.o.o.| | { +.c.G.5.y - 3X3X3X3X3X3X3X",
"3X3X3X3X3X3X3X> e N <.w.<.<.<.1.1.1.1.3.<.<.<.2.w.C.}.q.y - 3X3X3X3X3X3X3X",
"3X3X3X3X3X3X3X- e 7.N.B.M.M.M.M.M.m.m.m.M.m.V.k.C.oX=XQ.u # 3X3X3X3X3X3X3X",
"3X3X3X3X3X3X3X- r 5.K.P.J.J.J.J.J.J.J.J.J.J.J.H..X*X<X'.s $ 3X3X3X3X3X3X3X",
"3X3X3X3X3X3X3X- r 5.L.U.L.K.L.P.P.P.P.P.P.P.L.I..X*X1X'.s . 3X3X3X3X3X3X3X",
"3X3X3X3X3X3X3X- r 4.S.F.S.B.N.N.N.N.N.N.N.m.N.A.D.%X>X!.a = 3X3X3X3X3X3X3X",
"3X3X3X3X3X3X3X- e X.p.j.p.6.F D D D D D D S F 5.f.{.E.0.y = 3X3X3X3X3X3X3X",
"3X3X3X3X3X3X3X, 8 n o.#.O.m t 1 6 6 6 7 6 < e m ..#.o.n e > 3X3X3X3X3X3X3X",
"3X3X3X3X3X3X3X, 7 d v n v d 2 O O o o o o - 6 d v M v d 8 3X3X3X3X3X3X3X3X",
"3X3X3X3X3X3X3X1 6 8 8 8 8 9 3X3X3X3X3X3X3X, 6 7 8 8 5 8 3X3X3X3X3X3X3X3X3X",
"3X3X3X3X3X3X3X6 6 1 - , , , 3X3X3X3X3X3X3X6 6 1 : : : : 3X3X3X3X3X3X3X3X3X"
};
