/* XPM */
static char *result[] = {
/* columns rows colors chars-per-pixel */
"64 64 12 1 ",
"  c #2B2928",
". c #3E3B39",
"X c #6F2F27",
"o c #73716F",
"O c #A7473F",
"+ c #C88850",
"@ c #F7F757",
"# c #DFC76F",
"$ c #AEB6A1",
"% c #F8C090",
"& c #E5E9DE",
"* c None",
/* pixels */
"****************************************************************",
"****************************************************************",
"****************************************************************",
"****************************************************************",
"****************************************************************",
"****************************************************************",
"****************************************************************",
"****************************************************************",
"****************************************************************",
"****************************************************************",
"****************************************************************",
"****************************************************************",
"****************************************************************",
"****************************************************************",
"****************************************************************",
"****************************************************************",
"****************************************************************",
"****************************************************************",
"****************************************************************",
"****************************************************************",
"****************************************************************",
"****************************************************************",
"****************************************************************",
"****************************************************************",
"****************************************************************",
"****************************************************************",
"****************************************************************",
"****************************************************************",
"****************************************************************",
"****************************************************************",
"****************************************************************",
"****************************************************************",
"****************************************************************",
"****************************************************************",
"************************  **        ****************************",
"************************  **        ****************************",
"**********************  &&  XXXXXXXX    ************************",
"**********************  &&  XXXXXXXX    ************************",
"********************  &&$$&&XXXXOOOOOOOO  **********************",
"********************  &&$$&&XXXXOOOOOOOO  **********************",
"******************  $$$$  XXOOOOOOOOOOOO  **********************",
"******************  $$$$  XXOOOOOOOOOOOO  **********************",
"******************  $$$$OOOOOOOOOOOO++  ************************",
"******************  $$$$OOOOOOOOOOOO++  ************************",
"******************  $$  OOOOOO  ++++    ************************",
"******************  $$  OOOOOO  ++++    ************************",
"********************  **  ..++%%....%%  ************************",
"********************  **  ..++%%....%%  ************************",
"************************  ++++........  ************************",
"************************  ++++........  ************************",
"************************  OOOO@@++@@OO  ************************",
"************************  OOOO@@++@@OO  ************************",
"**********************  &&OOOOOO@@OOOO&&  **********************",
"**********************  &&OOOOOO@@OOOO&&  **********************",
"********************  &&&&XXOOOO##OOOO&&&&  ********************",
"********************  &&&&XXOOOO##OOOO&&&&  ********************",
"********************  %%%%####@@@@@@##%%%%  ********************",
"********************  %%%%####@@@@@@##%%%%  ********************",
"********************  %%++oooo    oooo++%%  ********************",
"********************  %%++oooo    oooo++%%  ********************",
"**********************    ....    ....    **********************",
"**********************    ....    ....    **********************",
"****************************************************************",
"****************************************************************"
};
