/* XPM */
static char *result[] = {
/* columns rows colors chars-per-pixel */
"64 64 4 1 ",
"  c #222222",
". c #AA8D7A",
"X c #D3BFA9",
"o c None",
/* pixels */
"oooooooooooooooooooooooooooooooooooooooooooo    ............    ",
"oooooooooooooooooooooooooooooooooooooooooooo    ............    ",
"oooooooooooooooooooooooooooooooooooooooooooo    ............    ",
"oooooooooooooooooooooooooooooooooooooooooooo    ............    ",
"oooooooooooooooooooooooooooooooooooooooooooo    XXXXXXXXXXXX    ",
"oooooooooooooooooooooooooooooooooooooooooooo    XXXXXXXXXXXX    ",
"oooooooooooooooooooooooooooooooooooooooooooo    XXXXXXXXXXXX    ",
"oooooooooooooooooooooooooooooooooooooooooooo    XXXXXXXXXXXX    ",
"oooooooooooooooooooooooooooooooooooooooooooo                    ",
"oooooooooooooooooooooooooooooooooooooooooooo                    ",
"oooooooooooooooooooooooooooooooooooooooooooo                    ",
"oooooooooooooooooooooooooooooooooooooooooooo                    ",
"oooooooooooooooooooooooooooooooooooooooooooo    ............    ",
"oooooooooooooooooooooooooooooooooooooooooooo    ............    ",
"oooooooooooooooooooooooooooooooooooooooooooo    ............    ",
"oooooooooooooooooooooooooooooooooooooooooooo    ............    ",
"oooooooooooooooooooooooooooooooooooooooooooo    ............    ",
"oooooooooooooooooooooooooooooooooooooooooooo    ............    ",
"oooooooooooooooooooooooooooooooooooooooooooo    ............    ",
"oooooooooooooooooooooooooooooooooooooooooooo    ............    ",
"oooooooooooooooooooooooooooooooooooooooooooo    ............    ",
"oooooooooooooooooooooooooooooooooooooooooooo    ............    ",
"oooooooooooooooooooooooooooooooooooooooooooo    ............    ",
"oooooooooooooooooooooooooooooooooooooooooooo    ............    ",
"oooooooooooooooooooooooooooooooooooooooooooo    ............    ",
"oooooooooooooooooooooooooooooooooooooooooooo    ............    ",
"oooooooooooooooooooooooooooooooooooooooooooo    ............    ",
"oooooooooooooooooooooooooooooooooooooooooooo    ............    ",
"oooooooooooooooooooooooooooooooooooooooooooo    ............    ",
"oooooooooooooooooooooooooooooooooooooooooooo    ............    ",
"oooooooooooooooooooooooooooooooooooooooooooo    ............    ",
"oooooooooooooooooooooooooooooooooooooooooooo    ............    ",
"oooooooooooooooooooooooooooooooooooooooooooo    XXXXXXXXXXXX    ",
"oooooooooooooooooooooooooooooooooooooooooooo    XXXXXXXXXXXX    ",
"oooooooooooooooooooooooooooooooooooooooooooo    XXXXXXXXXXXX    ",
"oooooooooooooooooooooooooooooooooooooooooooo    XXXXXXXXXXXX    ",
"oooooooooooooooooooooooooooooooooooooooooooo                    ",
"oooooooooooooooooooooooooooooooooooooooooooo                    ",
"oooooooooooooooooooooooooooooooooooooooooooo                    ",
"oooooooooooooooooooooooooooooooooooooooooooo                    ",
"oooooooooooooooooooooooooooooooooooooooooooo    ............    ",
"oooooooooooooooooooooooooooooooooooooooooooo    ............    ",
"oooooooooooooooooooooooooooooooooooooooooooo    ............    ",
"oooooooooooooooooooooooooooooooooooooooooooo    ............    ",
"oooooooooooooooooooooooooooooooooooooooooooo    ............    ",
"oooooooooooooooooooooooooooooooooooooooooooo    ............    ",
"oooooooooooooooooooooooooooooooooooooooooooo    ............    ",
"oooooooooooooooooooooooooooooooooooooooooooo    ............    ",
"oooooooooooooooooooooooooooooooooooooooooooo    ............    ",
"oooooooooooooooooooooooooooooooooooooooooooo    ............    ",
"oooooooooooooooooooooooooooooooooooooooooooo    ............    ",
"oooooooooooooooooooooooooooooooooooooooooooo    ............    ",
"oooooooooooooooooooooooooooooooooooooooooooo    ............    ",
"oooooooooooooooooooooooooooooooooooooooooooo    ............    ",
"oooooooooooooooooooooooooooooooooooooooooooo    ............    ",
"oooooooooooooooooooooooooooooooooooooooooooo    ............    ",
"oooooooooooooooooooooooooooooooooooooooooooo    ............    ",
"oooooooooooooooooooooooooooooooooooooooooooo    ............    ",
"oooooooooooooooooooooooooooooooooooooooooooo    ............    ",
"oooooooooooooooooooooooooooooooooooooooooooo    ............    ",
"oooooooooooooooooooooooooooooooooooooooooooo    ............    ",
"oooooooooooooooooooooooooooooooooooooooooooo    ............    ",
"oooooooooooooooooooooooooooooooooooooooooooo    ............    ",
"oooooooooooooooooooooooooooooooooooooooooooo    ............    "
};
