/* XPM */
static char *result[] = {
/* columns rows colors chars-per-pixel */
"32 32 233 2 ",
"   c black",
".  c #020406",
"X  c #030507",
"o  c #040507",
"O  c #040609",
"+  c #07080A",
"@  c #09090C",
"#  c #090A0C",
"$  c #090B0E",
"%  c #0A0C0D",
"&  c #0D0D0F",
"*  c #0E0E0F",
"=  c gray6",
"-  c #0E0F10",
";  c #0F0F10",
":  c #0F1011",
">  c #131313",
",  c #101114",
"<  c #111114",
"1  c #101214",
"2  c #111215",
"3  c #121214",
"4  c #121416",
"5  c #141415",
"6  c #151617",
"7  c #141618",
"8  c #151719",
"9  c #161718",
"0  c #161719",
"q  c #16171A",
"w  c #19191A",
"e  c #191A1B",
"r  c #1B1B1C",
"t  c #1B1B1D",
"y  c #1E1E1E",
"u  c #1E1E1F",
"i  c #1E1F1F",
"p  c gray12",
"a  c #202020",
"s  c #202121",
"d  c gray13",
"f  c #222222",
"g  c #232323",
"h  c gray14",
"j  c #272626",
"k  c #282827",
"l  c #282829",
"z  c gray16",
"x  c #2B2A2A",
"c  c #2D2C2B",
"v  c #2E2D2C",
"b  c #312E2B",
"n  c #302F2F",
"m  c #33302B",
"M  c #383532",
"N  c #3B3834",
"B  c #3E3B37",
"V  c #3A3A39",
"C  c #3D3D3C",
"Z  c #3E3D3C",
"A  c #3E3E3D",
"S  c #3D3E3E",
"D  c #3F3F3E",
"F  c #413E3A",
"G  c #423F3B",
"H  c #3F403F",
"J  c #40403F",
"K  c #44403C",
"L  c #47433E",
"P  c #46433F",
"I  c #48443F",
"U  c #424140",
"Y  c #414242",
"T  c #464545",
"R  c #474645",
"E  c #494540",
"W  c #4C4843",
"Q  c #494846",
"!  c #4B4947",
"~  c #4D4944",
"^  c #494A4B",
"/  c #4D4C4A",
"(  c #4D4C4B",
")  c #4E4D4C",
"_  c #4E4E4D",
"`  c #504E4B",
"'  c #514F4D",
"]  c #51504E",
"[  c #51504F",
"{  c #51514F",
"}  c #515150",
"|  c #535250",
" . c #545351",
".. c #555452",
"X. c #565452",
"o. c #595856",
"O. c #5A5957",
"+. c #6A6660",
"@. c #6B6660",
"#. c #6B6661",
"$. c #6B6761",
"%. c #6D6862",
"&. c #6E6963",
"*. c #72706C",
"=. c #73716E",
"-. c #72716F",
";. c #777674",
":. c #8B7D6E",
">. c #928476",
",. c #A19383",
"<. c #A49380",
"1. c #A49685",
"2. c #A69787",
"3. c #AD9C8A",
"4. c #B09F8C",
"5. c #B1A291",
"6. c #B0A293",
"7. c #B7A591",
"8. c #BCAE9D",
"9. c #BEB09E",
"0. c #BFB09E",
"q. c #AAA7A1",
"w. c #AEABA5",
"e. c #B4B0AA",
"r. c #C1B1A1",
"t. c #C1B2A2",
"y. c #CBBBA8",
"u. c #C4BFB6",
"i. c #C8C2B8",
"p. c #CDC6BC",
"a. c #CEC6BC",
"s. c #E6D2BC",
"d. c #E7D3BC",
"f. c #CDC7C0",
"g. c #CCC8C0",
"h. c #CDC8C0",
"j. c #CECAC2",
"k. c #CFCAC2",
"l. c #CFCBC4",
"z. c #CFCCC5",
"x. c #CFCDC6",
"c. c #D1CCC3",
"v. c #D0CCC4",
"b. c #D1CDC5",
"n. c #D2CDC5",
"m. c #D2CDC6",
"M. c #D2CFC8",
"N. c #D3D0C9",
"B. c #D3D1C9",
"V. c #D4D0C8",
"C. c #D4D2CA",
"Z. c #D5D3CB",
"A. c #D5D2CC",
"S. c #D8D2C9",
"D. c #D9D4CC",
"F. c #D8D4CD",
"G. c #DAD5CC",
"H. c #DAD6CC",
"J. c #DAD6CD",
"K. c #DAD6CE",
"L. c #D3D3D0",
"P. c #DCD9D1",
"I. c #DEDAD2",
"U. c #DBDBD7",
"Y. c #DCDCD9",
"T. c #E8D5C0",
"R. c #E8D5C1",
"E. c #E9D6C1",
"W. c #EAD8C3",
"Q. c #ECD9C3",
"!. c #ECD9C4",
"~. c #EDD9C4",
"^. c #EDDAC5",
"/. c #EEDECB",
"(. c #E0DBD2",
"). c #E2DDD5",
"_. c #E2DED5",
"`. c #F6E1CB",
"'. c #F6E2CB",
"]. c #F1E0CE",
"[. c #ECE4D8",
"{. c #EFE9DE",
"}. c #FCEBD9",
"|. c #EBEBE7",
" X c #F2EDE3",
".X c #F7EEE0",
"XX c #F4EEE5",
"oX c #F8EFE1",
"OX c #F6F2E5",
"+X c #FAF0E3",
"@X c #FBF1E5",
"#X c #FAF2E5",
"$X c #FBF2E6",
"%X c #FEF3E5",
"&X c #FEF4E6",
"*X c #F6F2E9",
"=X c #F6F2EA",
"-X c #F6F4E8",
";X c #F4F3EF",
":X c #FBF4E9",
">X c #FDF6E9",
",X c #F9F4EF",
"<X c #FDF8EE",
"1X c #FEF9EE",
"2X c #FEFBEE",
"3X c #FEFCEF",
"4X c #FFFDEF",
"5X c #FDF9F0",
"6X c #FEFAF0",
"7X c #FFFAF1",
"8X c #FFFBF1",
"9X c #FFFBF2",
"0X c #FFFBF3",
"qX c #FFFDF0",
"wX c #FFFCF1",
"eX c #FFFCF2",
"rX c #FFFFF2",
"tX c #FFFEF3",
"yX c #FFFDF4",
"uX c #FFFFF4",
"iX c #FFFEF5",
"pX c #FFFFF5",
"aX c #FFFFF6",
"sX c #FFFFF7",
"dX c #FFFDF8",
"fX c #FFFFF8",
"gX c #FFFFFA",
"hX c #FFFFFB",
"jX c #FFFFFC",
"kX c #FFFFFD",
"lX c #FFFFFE",
"zX c white",
"xX c None",
/* pixels */
"xXxXxXxXxXxXxXxXxXxXxXxXxXxXxXxXxXxXxXxXxXxXxXxXxXxXxXxXxXxXxXxX",
"xXxXxXxXxXxXxXxXxXxXxXxXxXxXxXxXxXxXxXxXxXxXxXxXxXxXxXxXxXxXxXxX",
"xXxXxXxXxXxXxXxXxXxXxXxXxXxXxXxXxXxXxXxXxXxXxXxXxXxXxXxXxXxXxXxX",
"xXxXxXxXxXxXxXxXxXxXxXxXxXxXxXxXxXxXxXxXxXxXxXxXxXxXxXxXxXxXxXxX",
"xXxXxXxXxXxXf s q 1 : = ; ; ; ; ; ; ; ; ; = = 5 a h xXxXxXxXxXxX",
"xXxXxXxXxXxXi v F ~ ` [ ] ] ] ] ] ] ] ] ] { } Q n y xXxXxXxXxXxX",
"xXxXxXxXxXxX9 F >.r.a.N.m.b.b.b.b.b.b.b.b.B.L.w.Q > xXxXxXxXxXxX",
"xXxXxXxXxXxX2 E 7.`.4XzXzXzXzXzXjXhXhXhXhXzXzX)...& xXxXxXxXxXxX",
"xXxXxXxXxXxX4 I 4.Q.%XgXzXzXzXkXpX8XwXwX8XgXzX_.X.& xXxXxXxXxXxX",
"xXxXxXxXxXxX4 L 3.E.#X=XK.g.g.D.XX5X<X<X5X*XU.q.R 3 xXxXxXxXxXxX",
"xXxXxXxXxXxX4 L 3.!.2XP.=.Z Z *.G.dX8X8XdXJ.-.V z y xXxXxXxXxXxX",
"xXxXxXxXxXxX4 L 3.^.rXz.H     A h.kXsXsXkXf.Z . r g xXxXxXxXxXxX",
"xXxXxXxXxXxX4 L 3.^.rXx.Y     J h.zXzXzXzXf.D O t g xXxXxXxXxXxX",
"xXxXxXxXxXxX4 L 3.!.3XK.$.m m #.H.;XC.C.;XJ.&.b j p xXxXxXxXxXxX",
"xXxXxXxXxXxX4 L 3.W.>X{.9.<.<.t.OXA.O.O.A.-Xy.:.B 0 xXxXxXxXxXxX",
"xXxXxXxXxXxX4 L 3.E.@X:X/.s.s.].qXV.o.o.V.uX}.0.W < xXxXxXxXxXxX",
"xXxXxXxXxXxX4 L 3.T.+X6X$XoXoX$X1X Xn.n. XtX0Xp.` : xXxXxXxXxXxX",
"xXxXxXxXxXxX4 I 4.~.&XfXfXaXyX9X<XeXkXlXpXsXzXF.| & xXxXxXxXxXxX",
"xXxXxXxXxXxX2 E 7.'.4XzXzXhXpX9X7XiXkXzXjXzXzXI. .& xXxXxXxXxXxX",
"xXxXxXxXxXxX9 F >.r.a.M.l.S.[..X.X[.S.j.v.B.L.w.Q > xXxXxXxXxXxX",
"xXxXxXxXxXxXi v F ~ ` ) T +.8.d.d.8.+.T ( { } Q n y xXxXxXxXxXxX",
"xXxXxXxXxXxXf s q , - @ X N 6.R.R.6.N o @ * & 5 a h xXxXxXxXxXxX",
"xXxXxXxXxXxXxXxXxXxXxXxX@ ! i.,X,Xi.! @ xXxXxXxXxXxXxXxXxXxXxXxX",
"xXxXxXxXxXxXxXxXxXxXxXxX# / M.zXzXM./ # xXxXxXxXxXxXxXxXxXxXxXxX",
"xXxXxXxXxXxXxXxXxXxXg w o U k.zXzXk.U o w g xXxXxXxXxXxXxXxXxXxX",
"xXxXxXxXxXxXxXxXxXxXe l C ;.(.zXzX(.;.C l e xXxXxXxXxXxXxXxXxXxX",
"xXxXxXxXxXxXxXxXf t $ S e.|.sXzXzXsX|.e.S $ t f xXxXxXxXxXxXxXxX",
"xXxXxXxXxXxXxXxXu x M @.u.Y.Z.c.c.Z.Y.u.@.M x u xXxXxXxXxXxXxXxX",
"xXxXxXxXxXxXxXxX7 P 1.5.%.^ _ ' ' _ ^ %.5.1.P 7 xXxXxXxXxXxXxXxX",
"xXxXxXxXxXxXxXxX6 P 2.,.M + % - - % + M ,.2.P 6 xXxXxXxXxXxXxXxX",
"xXxXxXxXxXxXxXxXi c K G k w xXxXxXxXw k G K c i xXxXxXxXxXxXxXxX",
"xXxXxXxXxXxXxXxXg s 8 0 d f xXxXxXxXf d 0 8 s g xXxXxXxXxXxXxXxX"
};
