/* XPM */
static char *result[] = {
/* columns rows colors chars-per-pixel */
"32 32 162 2 ",
"   c #130314",
".  c #180B18",
"X  c #1C0E10",
"o  c #1E1416",
"O  c #17111F",
"+  c #1B141C",
"@  c #1F1A19",
"#  c #201C1C",
"$  c #2F301C",
"%  c #373C1F",
"&  c #171220",
"*  c #191320",
"=  c #1E1C21",
"-  c #201E21",
";  c #1F272F",
":  c #1E2D3A",
">  c #1A2132",
",  c #222223",
"<  c #262925",
"1  c #23262A",
"2  c #242B2A",
"3  c #292C23",
"4  c #2E3425",
"5  c #26332F",
"6  c #353C21",
"7  c #242D33",
"8  c #263534",
"9  c #283135",
"0  c #273837",
"q  c #293A36",
"w  c #24343A",
"e  c #29333B",
"r  c #293C3A",
"t  c #303B39",
"y  c #39401E",
"u  c #364026",
"i  c #3A4626",
"p  c #39462F",
"a  c #3C4A29",
"s  c #35432B",
"d  c #2E4136",
"f  c #2D423B",
"g  c #364936",
"h  c #3F5C3C",
"j  c #3C5737",
"k  c #414F2B",
"l  c #495F2B",
"z  c #465C2C",
"x  c #425E37",
"c  c #415F3B",
"v  c #516625",
"b  c #476030",
"n  c #46693F",
"m  c #43623A",
"M  c #2D3C48",
"N  c #2E4547",
"B  c #2F4949",
"V  c #375E4E",
"C  c #395942",
"Z  c #2B4F51",
"A  c #365D50",
"S  c #314F69",
"D  c #365363",
"F  c #375768",
"G  c #3A5C73",
"H  c #355A7A",
"J  c #3B5F78",
"K  c #35577A",
"L  c #36736D",
"P  c #3C7C6D",
"I  c #2F6C70",
"U  c #3D657B",
"Y  c #3E6C7C",
"T  c #346B78",
"R  c #367671",
"E  c #377872",
"W  c #387A73",
"Q  c #4C776F",
"!  c #759F2E",
"~  c #6F9C36",
"^  c #729D31",
"/  c #78AF3F",
"(  c #7EB237",
")  c #3F8278",
"_  c #73AD45",
"`  c #72A548",
"'  c #77B549",
"]  c #79B749",
"[  c #7ABA4C",
"{  c #408E7A",
"}  c #568B7F",
"|  c #4F9973",
" . c #4F9E79",
".. c #509C72",
"X. c #54A374",
"o. c #58A772",
"O. c #53A47A",
"+. c #56AC7D",
"@. c #59AE7B",
"#. c #5BB07B",
"$. c #67BF79",
"%. c #7FC652",
"&. c #6AC47B",
"*. c #6DC878",
"=. c #83B634",
"-. c #85BA34",
";. c #80B53A",
":. c #84BC3B",
">. c #89BE33",
",. c #8BC236",
"<. c #87C239",
"1. c #89C53D",
"2. c #8EC939",
"3. c #93CC34",
"4. c #95D53C",
"5. c #9ADE3E",
"6. c #9EE23C",
"7. c #A4EC3D",
"8. c #A2E639",
"9. c #80BB41",
"0. c #88C641",
"q. c #84CA4D",
"w. c #8DCB4C",
"e. c #8CD346",
"r. c #8DD34C",
"t. c #8ED84E",
"y. c #9ADE40",
"u. c #92DD4B",
"i. c #90D443",
"p. c #8ED252",
"a. c #8FDC52",
"s. c #86D85C",
"d. c #92DF52",
"f. c #9FE843",
"g. c #95E24F",
"h. c #9CE645",
"j. c #97E852",
"k. c #A0E741",
"l. c #A1E940",
"z. c #82D560",
"x. c #375E81",
"c. c #3F6981",
"v. c #406D87",
"b. c #407480",
"n. c #447C8E",
"m. c #457995",
"M. c #348286",
"N. c #3C8986",
"B. c #3F9083",
"V. c #438D83",
"C. c #578E81",
"Z. c #459B84",
"A. c #439B8B",
"S. c #599685",
"D. c #46A18E",
"F. c #59BC8F",
"G. c #55B58E",
"H. c #4AA596",
"J. c #4AB199",
"K. c #60BE8C",
"L. c #6FD180",
"P. c None",
/* pixels */
"P.P.P.P.P.P.P.P.P.P.P.P.P.P.P.P.P.P.P.P.P.P.P.P.P.P.P.P.P.P.P.P.",
"P.P.P.P.P.P.P.P.P.P.P.P.P.P.P.P.P.P.P.P.P.P.P.P.P.P.P.P.P.P.P.P.",
"P.P.P.P.P.P.P.P.P.P.P.P.P.P.P.P.P.P.P.P.P.P.P.P.P.P.P.P.P.P.P.P.",
"P.P.P.P.P.P.P.P.P.P.P.P.P.P.P.P.P.P.P.P.P.P.P.P.P.P.P.P.P.P.P.P.",
"P.P.P.P.P.P.P.P.P.P.P.P.P.P.P.P.P.P.P.P.P.P.P.P.P.P.P.P.P.P.P.P.",
"P.P.P.P.P.P.P.P.P.P.P.P.P.P.P.P.P.P.P.P.P.P.P.P.P.P.P.P.P.P.P.P.",
"P.P.P.P.P.P.P.P.# @ O O O O O O O & & & & * * & P.P.P.P.P.P.P.P.",
"P.P.P.P.P.P.P.P.9 t a a k a a a a a a a a a k i P.P.P.P.P.P.P.P.",
"P.P.P.P.P.P.@ e D Q ` :.-.-.-.;.;.( ;.;.:.9.,.^ a O P.P.P.P.P.P.",
"P.P.P.P.P.P.# e x.S.p.l.g.d.d.g.h.7.k.k.l.k.j.[ p O P.P.P.P.P.P.",
"P.P.P.P.P.P.@ e H C.w.u.*.F.F.&.p.6.5.5.6.a.L. .f o P.P.P.P.P.P.",
"P.P.P.P.P.P.@ e H C.w.e.| M.M.| q.6.5.5.6.q.O.I r # P.P.P.P.P.P.",
"P.P.P.P.P.P.@ e H C.r.<.c : : h ( f.6.y.6.9.c 7 1 # P.P.P.P.P.P.",
"P.P.P.P.P.P.@ e H C.p.-.%     % ( f.y.y.f.( 6 . - , P.P.P.P.P.P.",
"P.P.P.P.P.P.@ e H C.p.-.y     % ( f.y.y.f.( % . - , P.P.P.P.P.P.",
"P.P.P.P.P.P.@ e H C.p.<.m w : h :.f.y.5.l.9.h 7 1 - P.P.P.P.P.P.",
"P.P.P.P.P.P.# e H } w.e.X.N.M.| r.7.6.y.7.a.O.I 7 X P.P.P.P.P.P.",
"P.P.P.P.P.P.o e U S.r.e.o.A.G.$.' -.4.4.-.' &.O.A 8 P.P.P.P.P.P.",
"P.P.P.P., , # r N.F.g.-.j C q.q.b l <.1.l z ( s.+.W r o P.P.P.P.",
"P.P.P.P., , # 8 L o.s._ 4 $ ! ^ 4 4 -.:.4 4 / s.G.L r # P.P.P.P.",
"P.P., , , , - , 5 V +.X.r # u 6 = i ,.,.y 8 X.G.V 7 < - , - P.P.",
"P.P., < < # - # o 9 E E r @ o O O p [ ] u : R P 9 o # < < , P.P.",
"P.P.- < , , # # # , 0 q 2 @ @ o + f +.O.d @ 8 8 , # , , < , P.P.",
"P.P.# - , < 8 q < # # + @ 2 0 8 , 8 R P q # + # , , # - , , P.P.",
", , # # # q Q ) q @ o o @ q W W 0 = 2 5 1 # o # , , # # - , , , ",
", < 9 7 + r Z. .d # 8 8 @ d O.O.d = 2 7 - , 0 0 , , 8 q 1 @ , , ",
"# 9 F D , 5 B.Z.5 2 P P ; % ] ] 6 > L L ; ; L R ; ; L E 7 + - < ",
"@ e Y v.N B B.B.N B D.D.Z x 2.3.v C @.@.x c @.@.x x @.@.n 6 , = ",
"# e U m.c.Y n.n.c.c.H.J.A.X.u.8.2.1.a.a.1.1.a.a.0.1.a.g.e.^ 6 * ",
"# 2 D U U U G G K Q ) ) B.| _ =.:.:.=.=.:.-.-.=.:.:.=.-.2.~ s * ",
", , 5 9 e 9 7 e 9 0 q q r r i i a a i i a a i a i a i i a u < # ",
", , @ @ @ @ @ @ # + # o # + O O O O O O O O O O O O O O O * , , "
};
