/* XPM */
static char *result[] = {
/* columns rows colors chars-per-pixel */
"32 32 164 2 ",
"   c #130314",
".  c #180B18",
"X  c #1C0F11",
"o  c #1E1415",
"O  c #17111F",
"+  c #1B141C",
"@  c #1F1A1A",
"#  c #201C1C",
"$  c #2F301C",
"%  c #373C1F",
"&  c #171220",
"*  c #191320",
"=  c #1E1C21",
"-  c #211F21",
";  c #1F272F",
":  c #1E2D3A",
">  c #1A2232",
",  c #222222",
"<  c #252826",
"1  c #23262A",
"2  c #242929",
"3  c #292C23",
"4  c #2E3425",
"5  c #27332F",
"6  c #353D23",
"7  c #242E34",
"8  c #263534",
"9  c #283235",
"0  c #273937",
"q  c #2A3B36",
"w  c #24343A",
"e  c #29333B",
"r  c #293B39",
"t  c #303B39",
"y  c #39401E",
"u  c #374022",
"i  c #3A4626",
"p  c #39462F",
"a  c #3C4A29",
"s  c #394629",
"d  c #2E4136",
"f  c #2E433B",
"g  c #304539",
"h  c #3C4D31",
"j  c #3C5737",
"k  c #3F5C3C",
"l  c #414F2B",
"z  c #495F2B",
"x  c #465C2C",
"c  c #425E37",
"v  c #415F3A",
"b  c #516625",
"n  c #476030",
"m  c #43623A",
"M  c #2F4949",
"N  c #2D4346",
"B  c #314D4F",
"V  c #385B48",
"C  c #2B4F51",
"Z  c #375E50",
"A  c #3A6250",
"S  c #314F69",
"D  c #375667",
"F  c #375768",
"G  c #3B5D74",
"H  c #355A7A",
"J  c #3B5F78",
"K  c #35577A",
"L  c #3C7C6D",
"P  c #37756C",
"I  c #2F6C70",
"U  c #316F72",
"Y  c #37667E",
"T  c #3D667E",
"R  c #3E6C79",
"E  c #367671",
"W  c #387A73",
"Q  c #4C776F",
"!  c #6E972F",
"~  c #759F2E",
"^  c #739D30",
"/  c #78AF3F",
"(  c #7EB237",
")  c #3F8278",
"_  c #73AD45",
"`  c #72A548",
"'  c #77B549",
"]  c #79B749",
"[  c #7ABB4C",
"{  c #408E7A",
"}  c #568B7F",
"|  c #4F9973",
" . c #4F9E79",
".. c #509C72",
"X. c #54A374",
"o. c #58A772",
"O. c #53A57A",
"+. c #56AB7C",
"@. c #59AE7B",
"#. c #5BB07A",
"$. c #67BF79",
"%. c #7FC652",
"&. c #6AC47B",
"*. c #6DC878",
"=. c #83B634",
"-. c #85BA34",
";. c #80B53A",
":. c #84BC3B",
">. c #89BE33",
",. c #8BC236",
"<. c #87C139",
"1. c #89C53D",
"2. c #8EC939",
"3. c #93CC34",
"4. c #95D53C",
"5. c #9ADE3E",
"6. c #9EE23C",
"7. c #A4EC3D",
"8. c #A2E639",
"9. c #80BB41",
"0. c #88C641",
"q. c #84CA4D",
"w. c #8DCB4C",
"e. c #8BCA40",
"r. c #8CD346",
"t. c #8DD34C",
"y. c #8ED84E",
"u. c #9ADE40",
"i. c #92DD4B",
"p. c #8ED252",
"a. c #8FDC52",
"s. c #87D85D",
"d. c #9FE843",
"f. c #95E24F",
"g. c #9CE645",
"h. c #95E451",
"j. c #9BEE53",
"k. c #A0E741",
"l. c #A1E940",
"z. c #82D560",
"x. c #375E81",
"c. c #407283",
"v. c #447B8E",
"b. c #457F90",
"n. c #348286",
"m. c #3C8E86",
"M. c #3D8786",
"N. c #3F9083",
"B. c #438C83",
"V. c #578E81",
"C. c #459B85",
"Z. c #439B8B",
"A. c #449085",
"S. c #599287",
"D. c #599982",
"F. c #46A18E",
"G. c #5BB180",
"H. c #59BC8F",
"J. c #55B58E",
"K. c #4AA596",
"L. c #4AB199",
"P. c #60BE8C",
"I. c #6FD180",
"U. c None",
/* pixels */
"U.U.U.U.U.U.U.U.U.U.U.U.U.U.U.U.U.U.U.U.U.U.U.U.U.U.U.U.U.U.U.U.",
"U.U.U.U.U.U.U.U.U.U.U.U.U.U.U.U.U.U.U.U.U.U.U.U.U.U.U.U.U.U.U.U.",
"U.U.U.U.U.U.U.U.U.U.U.U.U.U.U.U.U.U.U.U.U.U.U.U.U.U.U.U.U.U.U.U.",
"U.U.U.U.U.U.U.U.U.U.U.U.U.U.U.U.U.U.U.U.U.U.U.U.U.U.U.U.U.U.U.U.",
"U.U.U.U.U.U.U.U.# @ * . O O & & * & & & & * * O U.U.U.U.U.U.U.U.",
"U.U.U.U.U.U.U.U.9 r p a a a a a a a a a a a l i U.U.U.U.U.U.U.U.",
"U.U.U.U.U.U.@ e D Q ` -.>.-.-.-.;.;.;.;.;.9.2.^ a & U.U.U.U.U.U.",
"U.U.U.U.U.U.@ e x.S.p.7.h.a.a.f.g.k.k.k.k.k.j.[ h O U.U.U.U.U.U.",
"U.U.U.U.U.U.@ r H V.w.i.*.H.H.&.y.6.5.5.6.a.*. .g + U.U.U.U.U.U.",
"U.U.U.U.U.U.@ e H V.w.r.| n.n.| q.5.5.5.6.q.O.U 8 # U.U.U.U.U.U.",
"U.U.U.U.U.U.@ e H V.t.<.c : : k ( 6.5.5.6.:.k : 1 - U.U.U.U.U.U.",
"U.U.U.U.U.U.@ e H V.p.-.y     % ( d.u.g.d.( % . - , U.U.U.U.U.U.",
"U.U.U.U.U.U.@ e H V.p.-.y     % ( d.g.5.d.( % . - , U.U.U.U.U.U.",
"U.U.U.U.U.U.@ e H V.t.<.m w : k <.d.5.5.d.:.k : 1 # U.U.U.U.U.U.",
"U.U.U.U.U.U.@ e K V.w.r.o.M.n.| t.7.5.5.7.a.O.I 7 X U.U.U.U.U.U.",
"U.U.U.U.U.U.@ e Y D.w.r.X.Z.J.&.' -.4.4.-.' &.O.Z 8 U.U.U.U.U.U.",
"U.U.U.U.U.U.# r M.H.f.>.j V %.q.n z 1.1.n x 9.s.G.N.U.U.U.U.U.U.",
"U.U.U.U.U.U.# q P O.s._ $ $ ^ ^ 3 4 <.-.4 3 / s.G.m.U.U.U.U.U.U.",
"U.U.U.U.U.U., < 5 Z +.O.d # u u = i ,.<.6 8 ..G.A 8 U.U.U.U.U.U.",
"U.U.U.U.U.U., , o 5 W W 0 @ + + + a [ ] s 7 E W 8 o U.U.U.U.U.U.",
"U.U.U.U.- , < , # < 8 0 < - ; @ @ f O.O.g - 8 8 < # , - U.U.U.U.",
"U.U.U.U., < # # , - # # - , # # # 0 W W 0 @ @ @ - , < , U.U.U.U.",
"U.U., , , - # # - , # , , - # # # 2 0 8 2 , # , , , < , , , U.U.",
"U.U.- < , < q 0 < - - # - 2 8 0 2 # @ @ # , , - , , # - < , U.U.",
", , , - # 0 L ) r # # # # 8 W W r # o @ , , # # , , # # - , , , ",
"< , < # o f C.C.r # 8 5 # q O.O.q + 8 8 , , 8 8 , , 0 r < - , , ",
", , , # o f C. .5 3 L L 1 6 ] ] 4 > E E ; ; E E 1 ; E W 0 # , , ",
", , , , 1 M A.M.N M C.F.M c 2.3.b v +.@.v v @.@.v v @.O.g # - , ",
", - # 9 F c.b.b.x.c.K.L.m.o.y.8.2.0.a.i.1.0.a.i.0.e.h.[ p + - , ",
", - # 7 F T G G J R { { Z.| _ =.:.:.=.=.:.-.=.=.:.<.,.! 6 * , , ",
", , # < 7 e 7 9 9 9 0 r r d s i i a i i a a i i a a a u < - , , ",
", , < - # @ @ @ o # # o + @ O & & O * * O O + O O O O * - , , , "
};
