/* XPM */
static char *result[] = {
/* columns rows colors chars-per-pixel */
"32 32 165 2 ",
"   c #130314",
".  c #1C0F11",
"X  c #180B18",
"o  c #1E1516",
"O  c #17111F",
"+  c #1B141C",
"@  c #1F1A1A",
"#  c #201719",
"$  c #211C1D",
"%  c #21201E",
"&  c #2F301C",
"*  c #373C1F",
"=  c #171220",
"-  c #191421",
";  c #1E1C21",
":  c #211E21",
">  c #1F272F",
",  c #1E2D3A",
"<  c #1A2232",
"1  c #222222",
"2  c #242827",
"3  c #292C24",
"4  c #23262A",
"5  c #242929",
"6  c #282C2C",
"7  c #2E3425",
"8  c #27332F",
"9  c #353D22",
"0  c #222D35",
"q  c #263534",
"w  c #293235",
"e  c #273937",
"r  c #2A3B37",
"t  c #24343A",
"y  c #29333B",
"u  c #293B39",
"i  c #303B39",
"p  c #39401E",
"a  c #374022",
"s  c #394526",
"d  c #39462F",
"f  c #3C4A29",
"g  c #394629",
"h  c #2E4136",
"j  c #2D433C",
"k  c #31463A",
"l  c #3C4D31",
"z  c #3F5C3C",
"x  c #3C5737",
"c  c #414F2B",
"v  c #495F2B",
"b  c #465C2C",
"n  c #425E37",
"m  c #415F3A",
"M  c #516625",
"N  c #476030",
"B  c #43623A",
"V  c #2F4949",
"C  c #2D4346",
"Z  c #314D4F",
"A  c #385B48",
"S  c #2B4F51",
"D  c #375E50",
"F  c #396250",
"G  c #314F69",
"H  c #385768",
"J  c #385869",
"K  c #3B5D74",
"L  c #355A7A",
"P  c #3B5F78",
"I  c #35577A",
"U  c #3C7C6D",
"Y  c #37756C",
"T  c #2F6C70",
"R  c #37667E",
"E  c #3D667E",
"W  c #386E76",
"Q  c #367671",
"!  c #397B73",
"~  c #4C776F",
"^  c #759F2E",
"/  c #6F9730",
"(  c #739D30",
")  c #78AF3F",
"_  c #7EB237",
"`  c #3F8278",
"'  c #73AD45",
"]  c #72A548",
"[  c #77B549",
"{  c #79B749",
"}  c #7ABB4C",
"|  c #408E7A",
" . c #568B7F",
".. c #4F9973",
"X. c #4F9E79",
"o. c #509C72",
"O. c #54A374",
"+. c #58A772",
"@. c #53A47A",
"#. c #56AB7C",
"$. c #59AE7B",
"%. c #5BB07A",
"&. c #67BF79",
"*. c #7FC652",
"=. c #6AC47B",
"-. c #6DC878",
";. c #83B634",
":. c #85BA34",
">. c #80B53A",
",. c #84BC3B",
"<. c #89BE33",
"1. c #8BC236",
"2. c #87C139",
"3. c #89C53D",
"4. c #8EC939",
"5. c #93CC34",
"6. c #95D53C",
"7. c #9ADE3E",
"8. c #9EE23C",
"9. c #A4EC3D",
"0. c #A2E639",
"q. c #80BB41",
"w. c #88C641",
"e. c #84CA4D",
"r. c #8DCB4C",
"t. c #8BCA40",
"y. c #8CD346",
"u. c #8DD34C",
"i. c #8ED84E",
"p. c #9ADE40",
"a. c #92DD4B",
"s. c #8ED252",
"d. c #8FDC52",
"f. c #87D85D",
"g. c #9FE843",
"h. c #95E24F",
"j. c #9CE645",
"k. c #95E451",
"l. c #9BEE53",
"z. c #A0E741",
"x. c #A1E940",
"c. c #82D560",
"v. c #375E81",
"b. c #407283",
"n. c #447B8E",
"m. c #457F90",
"M. c #348286",
"N. c #3C8E86",
"B. c #3D8786",
"V. c #3F9083",
"C. c #438C83",
"Z. c #578E81",
"A. c #459B85",
"S. c #439B8B",
"D. c #449085",
"F. c #599685",
"G. c #46A18E",
"H. c #5BB180",
"J. c #59BC8F",
"K. c #55B58E",
"L. c #4AA596",
"P. c #4AB199",
"I. c #60BE8C",
"U. c #6FD180",
"Y. c None",
/* pixels */
"Y.Y.Y.Y.Y.Y.Y.Y.Y.Y.Y.Y.Y.Y.Y.Y.Y.Y.Y.Y.Y.Y.Y.Y.Y.Y.Y.Y.Y.Y.Y.Y.",
"Y.Y.Y.Y.Y.Y.Y.Y.Y.Y.Y.Y.Y.Y.Y.Y.Y.Y.Y.Y.Y.Y.Y.Y.Y.Y.Y.Y.Y.Y.Y.Y.",
"Y.Y.Y.Y.Y.Y.Y.Y.Y.Y.Y.Y.Y.Y.Y.Y.Y.Y.Y.Y.Y.Y.Y.Y.Y.Y.Y.Y.Y.Y.Y.Y.",
"Y.Y.Y.Y.Y.Y.Y.Y.Y.Y.Y.Y.Y.Y.Y.Y.Y.Y.Y.Y.Y.Y.Y.Y.Y.Y.Y.Y.Y.Y.Y.Y.",
"Y.Y.Y.Y.Y.Y.Y.Y.# # - O O O = = O O = O O = = O Y.Y.Y.Y.Y.Y.Y.Y.",
"Y.Y.Y.Y.Y.Y.Y.Y.0 i d f f f f f f f f f f f c s Y.Y.Y.Y.Y.Y.Y.Y.",
"Y.Y.Y.Y.Y.Y.@ y G ~ ] ,.:.:.:.:.,.>.>.>.>.,.3.( f = Y.Y.Y.Y.Y.Y.",
"Y.Y.Y.Y.Y.Y.@ y v.F.s.9.h.k.d.h.j.x.z.z.x.z.l.} l + Y.Y.Y.Y.Y.Y.",
"Y.Y.Y.Y.Y.Y.@ y L F.r.h.-.J.J.=.i.8.8.7.8.d.-.O.k + Y.Y.Y.Y.Y.Y.",
"Y.Y.Y.Y.Y.Y.@ y L  .r.y.o.M.M...e.7.7.7.8.e.@.T y # Y.Y.Y.Y.Y.Y.",
"Y.Y.Y.Y.Y.Y.@ y L  .u.,.m , , z _ g.p.7.g._ z , 4 $ Y.Y.Y.Y.Y.Y.",
"Y.Y.Y.Y.Y.Y.@ y L F.u.:.p     * _ g.p.j.g._ * X : 1 Y.Y.Y.Y.Y.Y.",
"Y.Y.Y.Y.Y.Y.@ y L Z.s.:.p     * _ g.8.p.g._ * X : 1 Y.Y.Y.Y.Y.Y.",
"Y.Y.Y.Y.Y.Y.@ y L Z.u.1.B t , z ,.g.7.p.g.,.z , 4 $ Y.Y.Y.Y.Y.Y.",
"Y.Y.Y.Y.Y.Y.@ y I  .r.y.+.N.M...i.9.7.7.9.i.@.T 0 o Y.Y.Y.Y.Y.Y.",
"Y.Y.Y.Y.Y.Y.$ y R F.r.y.O.S.K.&.[ :.6.6.:.[ =.@.D q Y.Y.Y.Y.Y.Y.",
"Y.Y.Y.Y.Y.Y.# u B.J.h.1.x A *.w.N v 2.2.v b q.f.%.V.Y.Y.Y.Y.Y.Y.",
"Y.Y.Y.Y.Y.Y.# u Y @.f.' & & / ) 3 7 ,.2.7 3 ' f.H.N.Y.Y.Y.Y.Y.Y.",
"Y.Y.Y.Y.Y.Y.% 2 8 D #.O.r $ a a ; f 1.1.9 q o.H.F q Y.Y.Y.Y.Y.Y.",
"Y.Y.Y.Y.Y.Y.1 1 o 8 ! ! e @ - - O f } { g 0 Q ! e o Y.Y.Y.Y.Y.Y.",
"Y.Y.Y.Y.Y.Y.1 1 $ 2 e e 2 ; ; @ @ j @.@.h $ e e 2 $ Y.Y.Y.Y.Y.Y.",
"Y.Y.Y.Y.Y.Y.% 1 1 1 # # % 1 1 $ # e ! ! u @ @ @ 1 1 Y.Y.Y.Y.Y.Y.",
"Y.Y.Y.Y.1 1 # # 1 1 1 % 1 1 # @ % 5 e e 2 1 $ 1 1 1 1 1 Y.Y.Y.Y.",
"Y.Y.Y.Y.% 6 u e 2 : 1 $ 1 2 e e 2 $ @ @ : 1 1 @ 1 1 2 $ Y.Y.Y.Y.",
"Y.Y.1 : # r U | r @ @ o @ e ! ! u # o # : 1 $ # 1 1 $ $ : 1 Y.Y.",
"Y.Y.1 1 # j A.A.h % q q @ h @.@.h + q e 1 1 e e 1 1 e u 6 $ Y.Y.",
"Y.Y.1 1 # r A.| 8 5 U U 4 9 { { 7 < Q Q > > Q Q 4 > Q ! u # Y.Y.",
"Y.Y.% 4 6 Z D.C.C V S.G.S n 4.5.M z #.$.n m $.$.m m $.#.k + Y.Y.",
"Y.Y.# w H b.m.n.E ~ L.P.V.O.a.0.4.w.d.a.3.3.d.a.w.t.k.} f + Y.Y.",
"Y.Y.@ w H E K K E E ! N.V...' _ ,.,.;.;.,.,.;.;.,.2.1./ g - Y.Y.",
"Y.Y.1 2 w y w w w w e u j j g g g f f s f g s g f f f s 3 ; Y.Y.",
"Y.Y.1 1 $ @ # # @ @ @ o @ + + = = + O O = + - = X O = - 1 1 Y.Y."
};
