/* XPM */
static char *result[] = {
/* columns rows colors chars-per-pixel */
"32 32 162 2 ",
"   c #130314",
".  c #1C0F11",
"X  c #180B18",
"o  c #1E1416",
"O  c #17111F",
"+  c #1A131D",
"@  c #1F1A1A",
"#  c #201C1C",
"$  c #21201F",
"%  c #2F301C",
"&  c #373C1F",
"*  c #171120",
"=  c #1A1420",
"-  c #1E1B21",
";  c #211F20",
":  c #1F272E",
">  c #1E2D3A",
",  c #1A2232",
"<  c #222222",
"1  c #22262B",
"2  c #242928",
"3  c #282B23",
"4  c #2E3425",
"5  c #27332F",
"6  c #353C22",
"7  c #242D34",
"8  c #263534",
"9  c #293534",
"0  c #273837",
"q  c #2A3B37",
"w  c #25343A",
"e  c #29333B",
"r  c #293C39",
"t  c #39401E",
"y  c #364024",
"u  c #3A4626",
"i  c #36432C",
"p  c #384529",
"a  c #3B4929",
"s  c #3C4A26",
"d  c #2E4136",
"f  c #2E433C",
"g  c #304539",
"h  c #3C4D31",
"j  c #3F5C3C",
"k  c #3C5737",
"l  c #495F2B",
"z  c #465C2C",
"x  c #425D36",
"c  c #415F3B",
"v  c #516625",
"b  c #476030",
"n  c #43623A",
"m  c #2F4544",
"M  c #2F4949",
"N  c #385B48",
"B  c #2B4F51",
"V  c #375E50",
"C  c #396250",
"Z  c #314D69",
"A  c #354F61",
"S  c #355A7A",
"D  c #35577A",
"F  c #36746C",
"G  c #3C7B6C",
"H  c #2F6C70",
"J  c #3C617A",
"K  c #3F6E7B",
"L  c #346B78",
"P  c #357672",
"I  c #387A73",
"U  c #4B756E",
"Y  c #759F2E",
"T  c #6F9B30",
"R  c #739E30",
"E  c #78AF3F",
"W  c #7EB237",
"Q  c #7DB139",
"!  c #3E8170",
"~  c #3F8278",
"^  c #73AD45",
"/  c #78AF49",
"(  c #70A246",
")  c #79B749",
"_  c #7ABA4C",
"`  c #77B549",
"'  c #408E7A",
"]  c #568B7F",
"[  c #4F9973",
"{  c #4F9E79",
"}  c #509C72",
"|  c #54A374",
" . c #58A772",
".. c #53A47A",
"X. c #56AB7C",
"o. c #59AE7C",
"O. c #57A873",
"+. c #67BF79",
"@. c #7FC652",
"#. c #6AC47B",
"$. c #6DC878",
"%. c #83B634",
"&. c #85BA33",
"*. c #89BF35",
"=. c #81B538",
"-. c #84BD3B",
";. c #8AC235",
":. c #87C239",
">. c #89C53D",
",. c #8EC939",
"<. c #93CC34",
"1. c #95D53C",
"2. c #9ADE3E",
"3. c #9EE23C",
"4. c #A4EC3D",
"5. c #A2E639",
"6. c #80BB41",
"7. c #88C641",
"8. c #84CA4D",
"9. c #8DCB4C",
"0. c #8CD346",
"q. c #8DD34C",
"w. c #8ED94F",
"e. c #9ADE40",
"r. c #92DD4B",
"t. c #8ED252",
"y. c #8FDC52",
"u. c #87D85D",
"i. c #9FE843",
"p. c #95E24F",
"a. c #9CE645",
"s. c #94E255",
"d. c #9BEE53",
"f. c #A0E741",
"g. c #A1E940",
"h. c #82D560",
"j. c #375E81",
"k. c #3B6982",
"l. c #407480",
"z. c #348286",
"x. c #3C8D86",
"c. c #3D8786",
"v. c #3F9083",
"b. c #448D83",
"n. c #578E81",
"m. c #449780",
"M. c #469D86",
"N. c #439B8B",
"B. c #599685",
"V. c #458094",
"C. c #48A089",
"Z. c #46A18E",
"A. c #5EA48C",
"S. c #5BB180",
"D. c #59BC8F",
"F. c #55B58E",
"G. c #4AA596",
"H. c #4AB199",
"J. c #60BE8C",
"K. c #6FD180",
"L. c #61C090",
"P. c None",
/* pixels */
"P.P.P.P.P.P.P.P.# # + O * * + O O * + O * * = O P.P.P.P.P.P.P.P.",
"P.P.P.P.P.P.P.P.7 q i u u u u u u p p p p a a u P.P.P.P.P.P.P.P.",
"P.P.P.P.P.P.@ e Z U ( %.%.%.%.=.Q Q E W W =.-.R a * P.P.P.P.P.P.",
"P.P.P.P.P.P.@ e j.B.t.4.p.s.y.p.a.f.f.5.f.i.d._ h + P.P.P.P.P.P.",
"P.P.P.P.P.P.@ e S n.9.p.$.D.D.#.w.3.2.2.3.w.K.{ f o P.P.P.P.P.P.",
"P.P.P.P.P.P.# e S ] 9.0.} z.z.[ 8.2.2.2.3.8...H 0 @ P.P.P.P.P.P.",
"P.P.P.P.P.P.@ e S n.q.:.c > > j -.3.2.e.3.6.c 7 1 ; P.P.P.P.P.P.",
"P.P.P.P.P.P.@ e S n.t.&.t     & W i.e.e.f.W 6 X ; < P.P.P.P.P.P.",
"P.P.P.P.P.P.@ e S n.t.&.y     & W i.e.e.i.W & X ; < P.P.P.P.P.P.",
"P.P.P.P.P.P.@ e S n.t.:.n > > c -.i.2.2.f.-.j > 1 @ P.P.P.P.P.P.",
"P.P.P.P.P.P.@ e D ] 9.0. .x.z.[ w.4.2.2.4.y...H 7 o P.P.P.P.P.P.",
"P.P.P.P.P.P.@ e L B.q.0.| N.F.+.` *.1.1.*.` #...V 8 P.P.P.P.P.P.",
"P.P.P.P.P.P.o r b.D.p.*.k N 8.8.z l >.>.z z ) u.S.v.P.P.P.P.P.P.",
"P.P.P.P.P.P.# 0 F ..u./ 4 % R R 3 4 -.*.4 4 Q u.S.x.P.P.P.P.P.P.",
"P.P.P.P.P.P.$ 2 5 V S.} q # & y - a ;.;.6 8 ..X.C 8 P.P.P.P.P.P.",
"P.P.P.P.P.P.< < # 2 P I 0 # o + O a _ ) y 7 P G 8 o P.P.P.P.P.P.",
"P.P.P.P.P.P.; 3 < < 0 0 2 < - @ @ f X...g # 8 0 2 # P.P.P.P.P.P.",
"P.P.P.P.P.P.< < < # # # : < < $ @ 0 I I 0 # # # ; < P.P.P.P.P.P.",
"P.P.P.P.P.P.P.P.< < < $ # $ < < # 2 0 0 2 < < # P.P.P.P.P.P.P.P.",
"P.P.P.P.P.P.P.P.< < < < < $ < < < ; # @ < < < < P.P.P.P.P.P.P.P.",
"P.P.P.P.P.P.P.P.< < 2 < < < < < < < : # $ < < < P.P.P.P.P.P.P.P.",
"P.P.P.P.P.P.P.P.< < < < < < # < < < < < < < < < P.P.P.P.P.P.P.P.",
"P.P.P.P.P.P.# # < < < < < < # # < < < < < < < < < < P.P.P.P.P.P.",
"P.P.P.P.P.P.9 q 2 < $ $ < < 0 0 2 $ @ < < < $ $ < < P.P.P.P.P.P.",
"P.P.P.P.# d ! I 0 @ @ @ @ 0 I I r @ o # < ; ; # # # < < P.P.P.P.",
"P.P.P.P.o m C.M.f # 9 8 # q ....r - 8 0 < < w e e 7 2 ; P.P.P.P.",
"P.P.< < o m M.{ 9 3 G G 1 & ) ) 6 , P P : : P b.k.Z 7 # < < P.P.",
"P.P.< < @ r b.b.m M N.N.B x ,.<.v j X.O.c x O.J.A.U q # 3 < P.P.",
"P.P.< < # e U l.K k.G.H.v.| r.3.>.>.p.y.>.>.w.s.s./ i = ; < P.P.",
"P.P.< < ; 7 Z k.J K ' ' v.[ ^ %.-.-.%.=.-.-.&.%.>.R 6 ; ; ; P.P.",
"P.P.< < < < e e 9 e 0 r f f p p a a u u a a a a z 4 2 ; < < P.P.",
"P.P.< 2 < < @ @ @ @ @ o o + + * O O + O O O O O X = ; < 3 < P.P."
};
