/* XPM */
static char *result[] = {
/* columns rows colors chars-per-pixel */
"64 64 3 1 ",
"  c #222222",
". c #483B3A",
"X c #775C55",
/* pixels */
"    XXXXXXXXXXXXXXXX    XXXXXXXXXXXXXXXX    XXXXXXXX        XXXX",
"    XXXXXXXXXXXXXXXX    XXXXXXXXXXXXXXXX    XXXXXXXX        XXXX",
"    XXXXXXXXXXXXXXXX    XXXXXXXXXXXXXXXX    XXXXXXXX        XXXX",
"    XXXXXXXXXXXXXXXX    XXXXXXXXXXXXXXXX    XXXXXXXX        XXXX",
"    ................    ................    ................    ",
"    ................    ................    ................    ",
"    ................    ................    ................    ",
"    ................    ................    ................    ",
"    ................    ........    ....    ....    ............",
"    ................    ........    ....    ....    ............",
"    ................    ........    ....    ....    ............",
"    ................    ........    ....    ....    ............",
"                                                                ",
"                                                                ",
"                                                                ",
"                                                                ",
"        XXXXXXXX    XXXX    XXXXXXXXXXXXXXXX    XXXXXXXXXXXXXXXX",
"        XXXXXXXX    XXXX    XXXXXXXXXXXXXXXX    XXXXXXXXXXXXXXXX",
"        XXXXXXXX    XXXX    XXXXXXXXXXXXXXXX    XXXXXXXXXXXXXXXX",
"        XXXXXXXX    XXXX    XXXXXXXXXXXXXXXX    XXXXXXXXXXXXXXXX",
"    ............    ........    ............    ................",
"    ............    ........    ............    ................",
"    ............    ........    ............    ................",
"    ............    ........    ............    ................",
"    ............    ........    ............    ....    ........",
"    ............    ........    ............    ....    ........",
"    ............    ........    ............    ....    ........",
"    ............    ........    ............    ....    ........",
"                                                                ",
"                                                                ",
"                                                                ",
"                                                                ",
"    XXXX    XXXXXXXXXXXXXXXX    XXXXXXXX    XXXXXXXXXXXX        ",
"    XXXX    XXXXXXXXXXXXXXXX    XXXXXXXX    XXXXXXXXXXXX        ",
"    XXXX    XXXXXXXXXXXXXXXX    XXXXXXXX    XXXXXXXXXXXX        ",
"    XXXX    XXXXXXXXXXXXXXXX    XXXXXXXX    XXXXXXXXXXXX        ",
"    ........    ............    ........    ............    ....",
"    ........    ............    ........    ............    ....",
"    ........    ............    ........    ............    ....",
"    ........    ............    ........    ............    ....",
"    ........................    ........................    ....",
"    ........................    ........................    ....",
"    ........................    ........................    ....",
"    ........................    ........................    ....",
"                                                                ",
"                                                                ",
"                                                                ",
"                                                                ",
"    XXXXXXXX    XXXX    XXXXXXXXXXXXXXXX    XXXXXXXX    XXXXXXXX",
"    XXXXXXXX    XXXX    XXXXXXXXXXXXXXXX    XXXXXXXX    XXXXXXXX",
"    XXXXXXXX    XXXX    XXXXXXXXXXXXXXXX    XXXXXXXX    XXXXXXXX",
"    XXXXXXXX    XXXX    XXXXXXXXXXXXXXXX    XXXXXXXX    XXXXXXXX",
"    ........    ....    ................    ....................",
"    ........    ....    ................    ....................",
"    ........    ....    ................    ....................",
"    ........    ....    ................    ....................",
"    ........    ................    ....    ....    ............",
"    ........    ................    ....    ....    ............",
"    ........    ................    ....    ....    ............",
"    ........    ................    ....    ....    ............",
"                                                                ",
"                                                                ",
"                                                                ",
"                                                                "
};
