/* XPM */
static char *result[] = {
/* columns rows colors chars-per-pixel */
"64 92 94 2 ",
"   c #4F2913",
".  c #502712",
"X  c #532C16",
"o  c #542E19",
"O  c #56321C",
"+  c #59341D",
"@  c #5A3721",
"#  c #5C3A24",
"$  c #5F3E29",
"%  c #603E27",
"&  c #613F29",
"*  c #5E422E",
"=  c #5F4430",
"-  c #62422C",
";  c #644631",
":  c #664935",
">  c #694B35",
",  c #664C39",
"<  c #694E3B",
"1  c #6D523F",
"2  c #71513A",
"3  c #6E5542",
"4  c #715643",
"5  c #735A46",
"6  c #765C49",
"7  c #795F4B",
"8  c #76604B",
"9  c #7A614E",
"0  c #7C6451",
"q  c #756B5B",
"w  c #776F60",
"e  c #7E7666",
"r  c #7F7668",
"t  c #7E7D6F",
"y  c #7F7E70",
"u  c #836A56",
"i  c #807766",
"p  c #817866",
"a  c #827C6E",
"s  c #817F71",
"d  c #838175",
"f  c #8C8376",
"g  c #868479",
"h  c #89877B",
"j  c #8C8B7E",
"k  c #948977",
"l  c #90877C",
"z  c #948B7B",
"x  c #998D7E",
"c  c #9E927F",
"v  c #8D8B80",
"b  c #908F81",
"n  c #998F83",
"m  c #8F9084",
"M  c #929184",
"N  c #9B9285",
"B  c #969589",
"V  c #99968B",
"C  c #9B998E",
"Z  c #9E9C91",
"A  c #A19583",
"S  c #A0978B",
"D  c #A39E8E",
"F  c #A29E92",
"G  c #A89F93",
"H  c #9FA094",
"J  c #A4A08F",
"K  c #A5A192",
"L  c #A9A496",
"P  c #AEA897",
"I  c #A5A499",
"U  c #ABA599",
"Y  c #AEA99A",
"T  c #B0AA97",
"R  c #B0A79B",
"E  c #B2AC9C",
"W  c #B4B09E",
"Q  c #ACACA3",
"!  c #B3AFA0",
"~  c #B6B1A3",
"^  c #B9B4A5",
"/  c #B5B3A9",
"(  c #BBB6A9",
")  c #BDB9AC",
"_  c #BCBAB1",
"`  c #C0BCAF",
"'  c #C0BEB1",
"]  c #C4C1B6",
"[  c #C5C4B9",
"{  c #C8C6BC",
"}  c #C9C8BF",
"|  c #CBCAC1",
" . c #D1D1C8",
".. c None",
/* pixels */
"....: 2 2 > : : : : > : ; - - ; - ; - - - - - - ; - - - = ; : ; ; ; > > - - > - : ; ; > > > > > > > > > ; ; ; - > ; - > > % ....",
"....9 u 9 8 8 8 8 8 8 8 8 8 1 8 5 5 5 5 5 5 5 5 5 5 5 8 5 8 8 5 8 8 9 9 8 9 8 8 9 9 8 8 8 8 9 0 8 9 8 8 9 8 9 8 8 9 u u u u ....",
": 0 x K N z x z z z c z k k x k k x k k k k k k k k k k k k k z c c c c c c c c c c c c c c c c J c c J J c c N c c A J R A u - ",
"2 u L / Y J K L K L J K P P J P T J J P P J L J L K J J J J J J T W W W W W W W W W W W E E W W E W E E ^ W W W W W W ` { E u > ",
"< 0 G / I F K J J J J J J J J J J J J J J J J J J J D D D D A J T W W T W T T T T E T E T W T E T T W E E E E W E E E ~ ' R u - ",
"> 0 S ! L D D D J J J J J D D D D D D A J A D J J J A D C D C J T T T T T T T T T P T T P T T E E T T T T T E T T E T ~ ' P u - ",
"< 9 D / L C D D J J J c J J J J D D D D D D A J C A D D D J C J P T T T T T T W T E T T T E T T T E T T T T T E T E T W ' G 9 ; ",
"> u D ! L D D D J A J J J J J A J D D J A D D D J J A D A A A J P T T T T T T T T T E E T T T P E T T T E E E T T T T W ' G u ; ",
": 0 G ! J D D J J J J J J A J J D D D D D D D D J J J J D D S J P T T T E E P T E T E T E E E E E T T E E T W T E E T ~ ' R u & ",
"> 0 G / J D J D J J J J J J J J D D D J D D D D J J A C D J A D T T T T E Y E E T E T E Y E P E T E E E E E T E T E T ~ ' R u & ",
"> 0 D / T J D J J J J J J J J A D J G J D D D J A J J D D C C J E T W T E E W Y E E W E E E E E E E E T E T T E E E T ~ ' P u % ",
"> 0 D ~ P D J J J J A J J J J J D D D D D J D D J J J J A J D J T E E W E E Y E E E E T E E E E E E E E E E E E E T T ~ ' G u % ",
"> 0 F / L D J D D G D G J J J J J K D J D J J D J J D D D D C J T W Y W E E E E E E E E W E E E T E E E E E E E E E R ~ ' R u & ",
"> 0 F / L J D J J J J D J D J J D D J D J D J D J D D D D D D J P W W E E E E E W E E E E E W E E E E E E E E E E E T ^ ' ! u & ",
": 0 S / L J D G J J J J J J D J F L L F F J D K D D D J D D D K T W W W W E E E E E E E E E ! E E E W W E E E E E E E ~ ' R u % ",
": 9 G / L J G L J J K D K K J D D D D D K D K J D D D D D D D J E W W Y E W E W E E W E ! E E E E E E E E E E E E E E ^ ' R 7 & ",
": 9 S / U D D G K D K L D D J L D D D L D K D F J G D D F D D J T W W E W W W E W W ~ E W E E W ~ W W E ^ W E E W E E ^ ' T u % ",
"; 9 G / U G J J F K J J L J D D D G G D D D D K F D D D D D D L T W W W W E W W E W E W W W W W W W E W E W E E E E E W { T u & ",
"; 6 S / U F L D K J J J D J L L L L D K K J L J K J G F K J D K E ^ E ~ ~ W W W ~ W W W E ~ W ~ W W ~ W W E W W ^ E E ^ ' R u + ",
"; u G / U D F L J J L J K K D F D J K J L K K J D L D F K D D K T ~ W ~ E W W W W W W ~ E W W W W W ~ E W W W ~ E ~ W ` ] G u & ",
"& 7 D / U J K K K K K K J L G G K K J K J L D L K K K J D K D L E ^ ^ E ~ ~ ~ ~ ~ W W ~ ! ~ E E ` T W ~ W ` ~ E ~ W W ^ ] R u % ",
"& 7 S / U J K K K K K K L J J G K J L K K K F D K K F K K D F K ! ^ ~ ^ ~ ~ ~ W ~ ~ ~ ~ ^ ~ ^ ^ ~ ~ ~ ~ W R ~ ~ ~ ~ ~ ( { T 7 % ",
"& 7 V / L J K K D J D D G G G G D K J J D J F G D D F D F D F L ! ^ ^ W ^ ~ ^ ~ ^ ^ ~ ~ ~ ~ ~ ~ ` W ~ ^ ` W ` W W ^ ^ ( { R 7 & ",
"% 6 D _ Y L U U L P U P P J G T L U L L U L U L L U U L U U L U E E ! E E ! E ! R E ~ E ! E ! Q R R E E R T R T E T T ^ ' P 7 - ",
"# 6 U ' ^ R ~ ~ E E W ~ W W E E E E E ! E W W ! ~ W ! ! ! ! ! E U L L L L L L L L L L U K K L L F L F F G F F F G L D U ! N 6 - ",
"# 6 R | ` ~ ^ ~ ^ ^ ^ ~ ^ ^ ^ ^ ^ ^ ^ ^ ^ W ^ ^ ~ ^ ^ ~ ^ ~ ^ ! L F K F D F F D D F C F D K D F D F F D D D F F D S C F I N 6 - ",
"# 6 R | ( ~ ^ ~ ~ ^ ^ ~ ^ ~ ^ ^ ^ ^ ^ ^ ^ ^ ^ ^ ^ ^ ~ ^ ^ ^ ^ ~ L F F F F K F K D K F F F D F D F F D F D D D S D D C K Y n 5 - ",
"# 6 R { ` ~ ^ ^ ` ^ ~ ^ ^ ~ ^ ~ ^ ^ ^ ^ ^ ^ ^ ^ ~ / ~ ^ ^ ^ ^ E L F F K F D F F F F K D K K J F G D F F D F F D D C S K Q N 6 - ",
"@ 6 R | ) ~ ^ ^ E ~ ~ ` W ~ W ~ ^ ^ ^ ^ ^ ^ ^ ^ ^ ^ ^ ^ ^ ^ ^ ~ U F J F L K F J J K F K F F F F F F F D F D F F G V D L Q N 6 - ",
"@ 6 R { ` ~ ~ ^ E ` ^ ~ W ` ` W ^ ^ ^ ^ ^ ^ ^ ^ ^ ^ ^ ^ ^ ^ ( E L D K K D J K K F K K J D F F F F D F F F F F C D F D F Q N 5 - ",
"@ 7 Q | ) ~ ^ ^ ~ ~ ^ ^ ` ` W W ^ ^ ^ ^ ^ ^ ^ ^ ^ ^ ^ ^ ^ ^ ^ W L D F K K F D F F K F K F K F D F D F D F S D F Z D D F Q S 6 & ",
"@ 6 R | ) ~ / ^ ` W ~ ^ W ~ ~ ` ^ ^ ^ ^ ^ ^ ^ ^ ( ^ ^ ^ ^ ^ ^ ~ L K K K F K K F D K F D F F D G D F F F Z D F F C F C L Q N 5 - ",
"@ 7 R | ` ~ ! ` ` E ` E E ` E ` ^ ^ ^ ^ ~ ` ^ ^ ^ ^ ^ ` ^ ^ ^ ~ L F F F F F F F F K F D F F F F F D V F F F C F D D Z F Q V 6 & ",
"@ 7 R | ` E ` E E ` ! ` ` ! ` ~ ` ~ ` ^ ^ ^ ^ ^ ^ ^ ^ ^ ^ ^ ^ ~ L D K F L F F G G F F F F G D G F G F F F S F D D Z Z G Q V 6 & ",
"@ 6 R | ` ~ ~ ` ` ! ` ! ! ` ~ ` ^ ^ ( ( ^ ` ( ( ` ^ ^ ^ ^ ^ ` E L F F F L F F F K F K F D F G F F F F D Z F F D F S F I ! N 5 % ",
"+ 6 ! ' ` ` ` E ! ` E ` E ` ~ ` ( ^ ^ ( ^ ^ ^ ( ^ ^ ^ ^ ` ^ ^ ~ L Z F F F F F K F F F D F F D F F F F S D F D D Z D F F Q N 5 % ",
"@ 7 R | ` ~ ` ` ` ` ! ` ` ~ ` ~ ( ^ ^ ` ( ( ( ( ) ` ^ ^ ( ` ^ ~ U D D G F F F G F G F F F S D F F F G D F D F F F F F I ! N 5 & ",
"@ 7 R | ` ~ ` E ! ` ` ! ~ ` ~ ` ^ ` ( ^ ( ( ^ ( ^ / ( ^ ^ ^ ` E L D F F F F K D F F F F F F F G S F F F F F D F F F Z F Q N 5 & ",
"@ 4 R | ` ` ~ ` ~ ` ` E ` ~ ` ~ ^ ` ` ^ ( ( ( ^ ( ( ) ( ` ^ ` ~ L D F F F F F F F F F F F G F F F F F F F F F F D F F G Q N 4 & ",
"@ u R | ` ~ ` ~ ` ! ` ` ~ ` ~ ` ( ^ ` ( ( ( ( ` ( ( ( ( ^ ^ ` ~ L D F F K F K F F F F F F F D F F F F F F D F F F D F G Q N 4 # ",
"% 7 R | ' ` ~ ` / ` ` ~ ` ~ ` ~ ` ^ ( ) ^ ) ( ( / ` ~ ` ~ ` ` ! I Z F F F G F F F F F F F F F F F F F F F F F F F D F L Q n 4 # ",
"@ 7 R | ' ` ` ~ ` / ~ ` ~ ` ` / ` ( ) ( ) ^ ) ( ` ~ ` ~ ` ~ ` ~ L D F F F F F F F F F F F F G F S F D F F F C F Z D Z G Q n 4 # ",
"@ 7 R | ` ! ~ ` _ / / / ` ~ / ` ^ ( ( ( ( ^ ^ ^ / ` / ` ~ ` ~ ~ G Z D F F F F F F F D F F F F F F D F Z D C Z Z D F V F Y n 4 # ",
"% 7 ! | ` ` ` ` ` ` ` _ ` ` ` ` ` ` ` ` ` ` ` ` ` ` ` ` ` ` ` ~ Y L F I I I G G F L I L I L G G I F L L F L G G F L L Y / S 4 + ",
"$ 7 Q  .{ { { { { { { [ { [ { { ' | ' | ] ' [ ' [ [ ' ' ' ' ' ' / / / / / / / ! / / / / ) / / / ! ! / / / / / ! / / / / _ F 4 @ ",
"# 7 G [ ' ` _ ` _ _ _ _ _ _ _ _ _ _ _ / ) ) _ _ / / _ / _ _ _ / / / / / / / / / / / / / / / / / / / / / / / / / / / / _ [ G 4 + ",
"$ 4 N Q Z V V V V V V V V V V V C C B V B V B V V V V V V V V C I I I I I I I Q U I I I G I I I I Q G G Q F I I Q F I Q _ G 4 + ",
"& 4 v Z v h h h h h h h h h h h h v v g v h h v h h h h h v v v Z F F Z F F F Z F F F Z F Z F Z Z Z Z Z F Z Z Z Z Z C G _ G 4 + ",
"& 4 l I m v v g v v h v v h v v h v v h v v h v v h v v v v h b Z Z I Z I Z Z Z Z Z I Z Z Z Z Z Z Z H I F I Z Z Z Z Z I _ F 3 + ",
"& 6 l Z v v v v v v v v v v h v v v v v v v v v v v v v v v v v Z I Z Z Z Z I I I F Z F F I F I F F F Z F Z Z I Z Z Z I / F 3 + ",
"& 5 l Z v v h h v v v v v v v v v v v h v v v v v v h v v v v m C Z Z I Z I I Z F Z I Z I Z Z F Z I Z I Z I Z I F Z Z I / S 3 O ",
"& 5 l Z v h v v h v h v v v h v v v v v v v v v v v v v v v v b Z I Z I Z Z Z Z Z I F Z I Z I Z F F F Z Z I Z Z I Z Z Q / S 3 + ",
"& 6 l V v v h v v v h v v v v v v v v v v v v v v v v v v v h M C Z I Z Z Z I I Z Z I Z F I Z I Z I Z Z Z Z I Z F Z Z I / S 3 O ",
"& 4 l Z v h v g v h v v v h v v v v v v v v v v h v v v j v v M Z Z I Z I Z Z Z I Z Z I Z I Z Z Z Z Z Q Z F Z F F F Z I / S 3 + ",
"* 4 v Z v v v v h v v h v h h v h v v v h v v h v v v v v v h v C Z Z Z Z F Z I F Z Z Z Z Z I Z H I Z Z I F Z Z Z F F I / S 3 + ",
"& 4 l Z v v h v h v v v h v h v v v h v h v v v v h v h h v v M C I Z Z Z Z F Z Z I Z F I Z Z Z F Z Z F Z Z I Z Z I Z F / N 3 O ",
"* 3 g Z v h h h v g v g v v g v j j h j j h v h h v h v h v h v C Z Z Z Z Z C Z Z Z Z Z Z Z Z Z H Z Z Z Z Z Z Z Z Z Z I Q V 3 o ",
"* 3 h V v h h v g v g v g v v g h j h h h j h v v h v v v h h v C Z Z Z Z Z Z Z Z Z Z Z Z Z Z Z H H H Z I Z Z Z Z Z Z I Q V 3 O ",
"$ 3 g B v g h g g g g g g g g g h h h h h h h h h h h h h h h v V Z C Z Z C Z C Z Z Z Z Z Z Z Z Z Z Z Z Z Z Z Z Z Z Z I Q N 3 o ",
"* 3 h B v g g g g v g v v v g v j h h h h h h j h h h h h h g v V Z Z C Z Z Z Z Z Z Z Z Z Z Z Z Z Z Z Z Z Z Z Z Z Z Z I Q N 3 o ",
"$ 3 l N v g g g g h h g g g v g h g h h h g h g h h h h h h h v B C C C V C C C Z C Z C Z V C Z Z Z Z Z Z C Z Z Z C Z Z Q N 3 @ ",
"* 4 g B h g g g h g h h g g h g g j h h g g j j h h h h h h h v V Z C C C C C C C C C Z Z Z Z Z Z Z Z V C Z Z C Z Z Z I Q N 3 O ",
"* 3 f B h g g g g g g g g g g g g g g h g g g h g g h g h g g v B Z C C C C C C C C C C C C Z C Z Z Z Z Z Z C V C C C F Q N 3 O ",
"$ 1 g B g d g g g g g g g g g h h g g g g g g g h g h h g g g v B C C C C C C C C C C C C C V Z V Z V Z Z Z C Z Z C V F Q N 3 O ",
"$ 3 f B h d d d g d g g g s g d h h d h d g g g g g g g g g g j B C V V C V C V C C V C V Z V Z V Z C C C C C C Z B B Z Q v 3 O ",
"$ 3 d B g d d d g d g g g h g g d g h d g g d g d d g d g d g h M C V V B C C V V V C V C V Z V Z V Z Z C Z C C Z B Z Z Q V < @ ",
"$ 3 d v g d d d g y d d g s h d g g d d g g d g d g d g g d d h M C V V C C C C C C C V V C C C V Z C C Z Z Z Z Z Z Z Z Q v 1 @ ",
"$ 3 l n h d g g h h h h h h h h h h h h h h h j h h j h h h h j M B M M M M M M M M B M B M B B M V M B B B B B B B B Z I v < @ ",
"$ 3 l I B v v B M M v M m M M M M M M M M M c j B j m c M M M j h h h h h g h h j h h h h h h h v v h v v v v v v v h v V d < @ ",
"$ 4 n I V v B B B B B B B M B B B B B B B B B B C B B B C B C B g d d d d g d g d d d d g g d g d g g g y g g d g g g g v d < @ ",
"$ 3 n I Z v v B V M M B M B B B M N B M M M V B c B B B B B B j g d d d g d d d g d g d f d g g d g g g g g g g g g g v v d < $ ",
"$ 3 v I V n v B M M M M M M B M M M M B N M M B M M B B c B B B g d d g d d d d d d d g g g d f g g g g g g g g g g g h n d < @ ",
"$ 3 l I B b M b M M M M M M M M m B j m c j j m B M m B j B B j g d d d d d d d d d d d d d d d d g d d d g g g g g g g v d < @ ",
"# 3 v I V b b M M M M M M M M M m B c B j m H B M B B B B B B c g g d d d d d d d d d d d g d d d d g d g g g g g g g h v d < @ ",
"# 3 n I V b b B M M M M M M M M j c B m H m c B M M B c c B B j h y g s d s d s d y d t d d d d d d d d d g d g g g g h v d , @ ",
"# 3 v I V b b m b M M M M M M M B B B c j m j H M M j B m j B j d s s d y d s d d d d d d d d d d d g d d d g d d g g h v s , @ ",
"@ 3 n I V m m b M M M M M M M m m m j c m j j j j B j B m B B j d y s s s s s s y s d s d d s d d d d d d d d g g d d g m d , @ ",
"O 3 l I V m n m M M M M M M M M m m m B C j C j j j B j m j j j g s s s s y d s d y s s s s d s y d d d d d g d d g g v v y , @ ",
"O 3 l I V v n B M M M M z m M z m m m m c B j j C j j B j j B j d t s s s d s s s s s s t d t d d d d d d d d g d d g g v s , @ ",
"O < l Z B v m m M M b b M M j M m m c j j j C B c j m m c B c j d y d s s s d s s s s d d a d d y d d y d d d d d d d g m s , O ",
"# , m J b b b b b m b b b m b b m j c m b b b b b b b b b b b j d t y d p y d p y y d d t t d d d p t d t d t d d d d g m p , O ",
"O = b J M b b b b b b b b b b b m j j m b b b b b b b b b b b j d y y y y y y y y y d t d t d t d d d d d d d d y d d g j t , O ",
"O , k J M b j b b b b b b j b b m m c m b b b b b b b b b b b b d y y y y y y y t d p y d t d t t d t d d d t d d d y g m t , O ",
"O , b J M b b b b b b b b b b b m m m m b b b b b b b k b b b j d y y y d p y d y y y y y y p d d d d d d t d d d y d g j e , + ",
"O , j H M b b b k b j b j j b b m m b j b b b b b j j b b j b j y t t t t t t t t t y y y d y y e d t d d d t d y d y g j t = O ",
"O = y H b j b b j j b j j j j j j b b b j k j j j b b b j b b k d t t t t t t t t t p d y p y y t y t t y y d t y y d d j p = O ",
"O , k J b j b k j j j j b k j b b j j j j b j k j k k j j b j y y p t p t t t t t t t t y y t t t t t t t t t d t t t d j p = + ",
"O , y H b b j b j j b b j b b j j b b j j j b b b b j b b b b b y t y t t t t t t t y y y y y y y t t t y t t y t t t d j p > + ",
"o : k H j j c j m m m m b b b b m m m m m j m m b b m m m m m j d y y d y y t y y t y d y y d y d y y d y y y d t y y g j t > + ",
"  = p k y p t t p t p p p p p p p p p t p p t t p p t t p p p p q q q q q q q q q q q q q q q q q q q q q q q q q q q w p q : @ ",
"....3 : - = = = = = = = = = = = = = = = = = = = = = = = = = = = - = * * = * * * * * * * = * * * * * = = = = * = = = = = > = ....",
"....O o       o o   o     o   O O O     O O O O # O # O O O O # o o o o o o   o X X o o o X o o o o o O O O o o o O + + + O ...."
};
