/* XPM */
static char *result[] = {
/* columns rows colors chars-per-pixel */
"64 64 3 1 ",
"  c #222222",
". c #483B3A",
"X c #775C55",
/* pixels */
"XXXXXXXXXXXXXXXXXXXX    XXXXXXXXXXXXXXXX    XXXXXXXX            ",
"XXXXXXXXXXXXXXXXXXXX    XXXXXXXXXXXXXXXX    XXXXXXXX            ",
"XXXXXXXXXXXXXXXXXXXX    XXXXXXXXXXXXXXXX    XXXXXXXX            ",
"XXXXXXXXXXXXXXXXXXXX    XXXXXXXXXXXXXXXX    XXXXXXXX            ",
"....................    ................    ................    ",
"....................    ................    ................    ",
"....................    ................    ................    ",
"....................    ................    ................    ",
"....................    ........    ....    ....    ........    ",
"....................    ........    ....    ....    ........    ",
"....................    ........    ....    ....    ........    ",
"....................    ........    ....    ....    ........    ",
"                                                                ",
"                                                                ",
"                                                                ",
"                                                                ",
"XXXX    XXXXXXXX    XXXX    XXXXXXXXXXXXXXXX    XXXXXXXXXXXX    ",
"XXXX    XXXXXXXX    XXXX    XXXXXXXXXXXXXXXX    XXXXXXXXXXXX    ",
"XXXX    XXXXXXXX    XXXX    XXXXXXXXXXXXXXXX    XXXXXXXXXXXX    ",
"XXXX    XXXXXXXX    XXXX    XXXXXXXXXXXXXXXX    XXXXXXXXXXXX    ",
"................    ........    ............    ............    ",
"................    ........    ............    ............    ",
"................    ........    ............    ............    ",
"................    ........    ............    ............    ",
"................    ........    ............    ....    ....    ",
"................    ........    ............    ....    ....    ",
"................    ........    ............    ....    ....    ",
"................    ........    ............    ....    ....    ",
"                                                                ",
"                                                                ",
"                                                                ",
"                                                                ",
"XXXXXXXX    XXXXXXXXXXXXXXXX    XXXXXXXX    XXXXXXXXXXXXXXXX    ",
"XXXXXXXX    XXXXXXXXXXXXXXXX    XXXXXXXX    XXXXXXXXXXXXXXXX    ",
"XXXXXXXX    XXXXXXXXXXXXXXXX    XXXXXXXX    XXXXXXXXXXXXXXXX    ",
"XXXXXXXX    XXXXXXXXXXXXXXXX    XXXXXXXX    XXXXXXXXXXXXXXXX    ",
"........    ................    ........    ................    ",
"........    ................    ........    ................    ",
"........    ................    ........    ................    ",
"........    ................    ........    ................    ",
"............    ............    ............................    ",
"............    ............    ............................    ",
"............    ............    ............................    ",
"............    ............    ............................    ",
"                                                                ",
"                                                                ",
"                                                                ",
"                                                                ",
"XXXXXXXX    XXXXXXXX    XXXXXXXXXXXXXXXX    XXXXXXXX    XXXX    ",
"XXXXXXXX    XXXXXXXX    XXXXXXXXXXXXXXXX    XXXXXXXX    XXXX    ",
"XXXXXXXX    XXXXXXXX    XXXXXXXXXXXXXXXX    XXXXXXXX    XXXX    ",
"XXXXXXXX    XXXXXXXX    XXXXXXXXXXXXXXXX    XXXXXXXX    XXXX    ",
"....        ........    ................    ................    ",
"....        ........    ................    ................    ",
"....        ........    ................    ................    ",
"....        ........    ................    ................    ",
"........    ....................    ....    ....    ........    ",
"........    ....................    ....    ....    ........    ",
"........    ....................    ....    ....    ........    ",
"........    ....................    ....    ....    ........    ",
"                                                                ",
"                                                                ",
"                                                                ",
"                                                                "
};
